<svg id="Layer_7" data-name="Layer 7" xmlns="http://www.w3.org/2000/svg" xmlns:xlink="http://www.w3.org/1999/xlink" viewBox="0 0 1920 945.4"><defs><style>.cls-1,.cls-2,.cls-4,.cls-7{fill:#ccc09c;}.cls-1{clip-rule:evenodd;}.cls-2{fill-rule:evenodd;}.cls-3{clip-path:url(#clip-path);}.cls-4{opacity:0.5;}.cls-5{clip-path:url(#clip-path-2);}.cls-6{clip-path:url(#clip-path-3);}</style><clipPath id="clip-path"><path id="SVGID" class="cls-1" d="M707.6,444.9l-.6.3-.5.3-.6.6-.3.8v1.7h.3v.9h.3l.3.3v.6h.8l1.2.2.8.3v-.3l.6-.2,1.1-1.2.3-2.8-.8-.9-1.2-.6Zm-33.2,0-.8.3-.6.3-.3.6-.6,1.7.3.3v.5h.3v1.2h.6l.3.3.5.3.3.2,1.5.3v-.3l.8-.2,1.2-1.2.2-2.8-.8-.9-.6-.3-.8-.3Zm4.6-28.3v33.8h.3l.3.2,24.6.3v-.3l.3-.2.2-33.5-.2-.3Zm35.8-12.9v.9H662.1v1.1h.3v1.5h.3v1.4h.3v1.1h.3v1.5h.3v1.4h.2V414h.3v1.2h.3v1.4h.3V418h.3v1.5h.8v1.1h-.5l.3.3V422h.2v1.5h.3v1.1h.3V426h.3v1.2h.3v1.4h.3V430h.3v1.2h.2v1.4h.3v1.2h.3v1.4h.3v1.1h.3v1.5h.3v1.4h.8l-.3,1.4v1.5h.3v1.4h.3v1.4h.3v1.5h.3v1.4h.3v1.4h.3v1.4h.2v1.5h44.4V422.3h6.3V404.6H715v-.9ZM798,346.8l-.3.3-.6.3-.2.5-.3.3-.3.6v2h.3v.9h.3l.8.8.6.3,1.7.6v-.3l.9-.3.5-.3.9-.8.3-.6.3-2.6h-.3v-.6l-.6-.5-.6-.3-.2-.3Zm-28.9-32-.6.2v30.1h.3l.6.6,32,.2v-.2l1.2-.3.3-30.4-.3-.2Zm29.2-7.5-.6.3-1.1,1.2-.3.8v2h.3v.6h.3l.2.3v.5h.6l.3.3,1.2.3,1.7.3v-.3l.5-.6.6-.2.3-.3.3-.6.3-2.9-1.5-1.4-.5-.3Zm-48.6-4.6v38.4h-8.1l-.2,1.1v14.9h.2v1.1H780v42.4h16.3V358.5H804V302.7Z"/></clipPath><clipPath id="clip-path-2"><path id="SVGID-2" data-name="SVGID" class="cls-1" d="M763.1,403.2v27.7h1.1V403.2Zm-1.1-.9v29.5l7.1-.3.3-.9h.6v1.2h7.1v-9.2h.3v19.7h28v-4l-9.1-.2-.6-.6h-.3v-.9h-.3v-2l.3-1.4.6-.6h9.4v-4h-8.3V402.3H777.4l-.3,9.2v-9.2Zm-71.6-56.1-.5.3-.6.6-.6.3-.3,1.1-20.8.3v14.3h43.7V348.8h-7.1v-.9l-1.5-1.4-.8-.3h-2l-.6.3-.8.9-.3,1.1-3.8.3v-1.1l-1.1-1.2-.9-.3Zm-18.6-10.8.9.2v-.2Zm-3.1,0,.6.2v-.2Zm4-.3.6.3v-.3Zm6.9-7.8.3.3v-.3Zm-18.1,0v.6l.3-.6Zm-.2-1.4.2.3v-.3Zm18.3-2v.6l.3-.6Zm-18.1,0v.6l.3-.6Zm.3-6.3.3.3v-.3Zm17.8-.8.3.2v-.2Zm-18.1-.3v.8l.3-.8Zm-.2-1.2.2.3v-.3Zm18.3-2v.6l.3-.6Zm-18.1,0v.6l.3-.6Zm79.6-5.1v26.9h6.6V308.2Zm-72.4-2.9,3.1.3v-.3Zm0-.6-1.7.3-.3.3.6.3.8.3v-.3h.3l-.3.3-.5.3-.6.5-2,.3-.9.3-.8.9-.3.6-.3,2.8-.6.6-.3.6v-.6l.3-.3-.3-.3H661l-.3.3.6.3-.3.8-.3.6v3.2h.3v.5h.3l-.3.6-.3.3.8.8v-.2l.6-.6h.6l.3.3-.3,4-.6.6-.3.5v-.8l.3-.3-.3-.3H661l-.3.3.6.3-.3.8-.3.6v3.1h.3v.6h.3l-.3.6-.3.3.3.3v.5l.5-.3.3-1.1h.3v.9h.9v3.1h.3v.6h.3l.2.3,1.2.5,2,.3.8.9.6.3-.8.3v-.3h-.3l-.6.3.3.2v.6l.6-.3h1.1l.6.3,2.5.3v-.3l.9-.3h1.1l.3.3v-.3l.3-.5-.3-.3-.5-.3.5-.6,2.9-.6.6-.5.3-.6.2-3.2.3-.2.6-.3h.3l.8.8v-.3l.3-.5-.3-.3.3-1.4.3-2.6h-.3v-1.2l-.3-.2.3-.9h-.8l-.3.3.3.3-.3.5v-.2l-.6-.6h-.6v-3.7l.3-.3.6-.3h.3l.8.8v-.2l.3-.6-.3-.3.3-1.4.3-2.6h-.3v-1.1l-.3-.3.3-1.2h-.5l-.6.6.3.3-.3.6v-.3l-.6-.6h-.6v-3.4h-.2v-.6l-.6-.6-.9-.3-2.3-.3-1.1-1.1h.6l.5.3v-.3l.3-.9h-.6l-.8.3v-.3Zm5.1-18.3-.5.3-1.2.6-1.4,1.4-.3.9-.3,1.4-.3.9V293h.3v.6h.3v.8h.3v.9h.3l1.1,1.1v.6h.6l.6.3.8.3,2.3.6v-.3l.9-.3,1.1-.3.6-.3.3-.3.6-.3.2-.2.6-1.2.6-.6.3-1.4.3-1.1h-.3v-1.7h-.3v-.9H681v-.6l-1.1-1.1-.6-.3-.3-.3-.6-.3-.3-.3Zm41-4-.6.3-.9.3-.5.3-.3.3-.6.3-.6,1.7-.3,4.8.6.6v.6h.3v.6H697l-.3.2-.5.3-.6.6-.3.6-.3.3v.8h-2l-.6.3-.8.9-.3.8-.6,1.2-.3,2-.2,1.7v19.7h.2v3.7h.3v.9h.3v1.1h.3v.6h.3v.9h.3l.3.3,1.1.5.3.3,1.1.3v.9h.3v.5h.3v.6h.3v.6h.3l.3.3.5.3.3.2.9.3,35.5.3v-.3l.8-.3,1.2-.5.5-.6h1.8l.3-37-1.5-1v-.5l-1.4-1.5-.6-.2-10.6-.3.3-.6.3-6.3h-.3v-.6l-1.1-1.1-.9-.3-.6-.3-.8-.3Zm25.7-21.1-.9.2-4.2,1.5-.6.3-6,2-.6.3-6,2-.6.2-1.4.3-3.4,1.2-.6.3-4.3,1.4-.6.3-4.3,1.4-.5.3-4.3,1.4-.6.3-1.4.3-5.2,1.7-.6.3-5.1,1.7-.6.3-6,2,.3.3-1.4.3-.9.3-2.3.5-2.3,1.2-.8.3L673,285l-.9.3-.5.6-.6.3-.3.2-.6.3-.3.3-.5.3-.3.3-.6.3-.3.3-.5.2-.3.3-.6.3-2,2-.6.3-.8.9-.6.2-.6.6-.6.3.3.3-.5.6-.6.2-2.6,2.6-.3.6-.3.3-.2.6-.3.2-.3.6-.3.3-.3.6-.6.5-.2.6-.9.9-.9,1.7-.2.3-1.2,2.3-.3.2-.3.9-.3.6-.2.8-.6,1.2-1.2,3.4.3.3-.3,1.1-.5.3-.3.3-.9,5.2-.3,1.1-.2,3.2-.3,2.8.3.3v3.4h.2v2.9h.3v2.3h.3v2.3h.9v1.1h-.6l.3.3v1.1h.3v1.2h.3v1.4h.2v1.2h.3v1.4h.3v1.1h.3v1.5h.3v1.1h.3v1.2h.3v1.4h.2v1.1h.3v1.5h.3v1.1h.3v1.4h.6v1.2h-.6l.3.3v1.1h.3v1.4h.3v1.2h.3v1.4h.2v1.5h.3v1.1h.3v1.4h.3v1.5h.3v1.1h.3v1.4h.3v1.5h.2v1.1h.3v1.4h.3V378h.9v1.1h46.3v12.6H717V379.1h6.3v23.8h.6v2.3h-1.4V420h1.4v2.3h-.6v.9h.3l-.3,30.3v.9h22.1v-1.8h1.7v1.8h17.7V433.5h10.9v8.8l.3-9.1H747.1v5.4h-1.7v-6.8h-5.2V385.7h1.4v.6H758l-10.9.3v6.8h.8v-6h1.5v6l.3-.5h1.1l-.3,1.1-.6.3V394l-.2-.3h-.3v6h-1.5v-6h-.8v6.9h17.1V400h1.2v.6h3.7V383.7l-1.1-.3h1.1v-9.7H768v-.6h1.1V361.4h-4.3l-.3,8.6-.3,1.1-.2.3-.6.3-.6.6-2.3.2v-.2l-.5-.6h-.6v-.6l-.3-.3h-.3v-9.4h-4.3v8.3H741.9v-8.3h-.3v9.1h-1.4V357.1h1.2V342.2h-1.2v-2.8h7.7V302.7h-6.8V261.3Z"/></clipPath><clipPath id="clip-path-3"><path id="SVGID-3" data-name="SVGID" class="cls-1" d="M766.8,269.8l-1.4.3-2.9,1.5-1.4,1.4-.6,1.1-.3,1.2-.2.8-.3.6v2h.3V281h.2v.6h.3v.5h.3v.6h.3v.6h.3l.6.6v.5h.5l.6.6,2.3,1.2,1.4.2,2.6.3v-.3l1.1-.2.9-.3,1.7-.9,1.4-1.4.3-.6.6-.6.3-.5.3-1.2.3-1.4.3-2.3h-.3v-1.1H776v-1.5h-.3v-.6l-2.6-2.5-1.7-.9-.9-.3-1.1-.3Zm12.9-23.1-.9.3-10.3,3.4-.5.3-11.2,3.7-.6.3-12,4v40.6h59.2v-10l2-.3.9-.3.6-.3.8-.2h.6v-1.5H808v-.5l-.3-.3h-.3v-.6l-.2-.3h-.3v-.6l-.3-.3h-.3v-.5l-.6-.6h-.3v-.6l-.2-.3h-.3v-.5l-.3-.3h-.3v-.6l-.3-.3h-.3v-.5l-.5-.6h-.3v-.6l-.3-.3h-.3v-.5l-.3-.3h-.3V277l-.3-.3h-.2v-.6l-.6-.5h-.3V275l-.3-.3h-.3v-.6l-.3-.3h-.2v-.5l-.3-.3h-.3v-.6l-.6-.6h-.3v-.5l-.3-.3h-.3v-.6l-.2-.3h-.3v-.5l-.3-.3H796v-.6l-.6-.6h-.3v-.5l-.2-.3h-.3v-.6l-.3-.3H794v-.6l-.3-.2h-.3V265l-.5-.6h-.3v-.6l-.3-.2H792V263l-.3-.3h-.3v-.6l-.3-.3h-.2v-.5l-.6-.6H790v-.6l-.3-.3h-.3v-.5l-.3-.3h-.2v-.6l-.3-.3h-.3v-.6l-.6-.5h-.3v-.6l-.3-.3h-.3v-.6l-.2-.2h-.3v-.6l-.3-.3h-.3v-.6l-.6-.5h-.3v-.6l-.2-.3h-.3v-.6l-.3-.3h-.3V251l-.3-.3h-.3v-.6l-.5-.6h-.3V249l-.3-.3h-.3v-.6l-.3-.3h-.3v-.6l-.5-.5Z"/></clipPath></defs><title>Artboard 5</title><path id="SVGID-4" data-name="SVGID" class="cls-2" d="M707.6,444.9l-.6.3-.5.3-.6.6-.3.8v1.7h.3v.9h.3l.3.3v.6h.8l1.2.2.8.3v-.3l.6-.2,1.1-1.2.3-2.8-.8-.9-1.2-.6Zm-33.2,0-.8.3-.6.3-.3.6-.6,1.7.3.3v.5h.3v1.2h.6l.3.3.5.3.3.2,1.5.3v-.3l.8-.2,1.2-1.2.2-2.8-.8-.9-.6-.3-.8-.3Zm4.6-28.3v33.8h.3l.3.2,24.6.3v-.3l.3-.2.2-33.5-.2-.3Zm35.8-12.9v.9H662.1v1.1h.3v1.5h.3v1.4h.3v1.1h.3v1.5h.3v1.4h.2V414h.3v1.2h.3v1.4h.3V418h.3v1.5h.8v1.1h-.5l.3.3V422h.2v1.5h.3v1.1h.3V426h.3v1.2h.3v1.4h.3V430h.3v1.2h.2v1.4h.3v1.2h.3v1.4h.3v1.1h.3v1.5h.3v1.4h.8l-.3,1.4v1.5h.3v1.4h.3v1.4h.3v1.5h.3v1.4h.3v1.4h.3v1.4h.2v1.5h44.4V422.3h6.3V404.6H715v-.9ZM798,346.8l-.3.3-.6.3-.2.5-.3.3-.3.6v2h.3v.9h.3l.8.8.6.3,1.7.6v-.3l.9-.3.5-.3.9-.8.3-.6.3-2.6h-.3v-.6l-.6-.5-.6-.3-.2-.3Zm-28.9-32-.6.2v30.1h.3l.6.6,32,.2v-.2l1.2-.3.3-30.4-.3-.2Zm29.2-7.5-.6.3-1.1,1.2-.3.8v2h.3v.6h.3l.2.3v.5h.6l.3.3,1.2.3,1.7.3v-.3l.5-.6.6-.2.3-.3.3-.6.3-2.9-1.5-1.4-.5-.3Zm-48.6-4.6v38.4h-8.1l-.2,1.1v14.9h.2v1.1H780v42.4h16.3V358.5H804V302.7Z"/><g class="cls-3"><rect class="cls-4" x="662.1" y="302.7" width="141.9" height="149.33"/></g><path id="SVGID-5" data-name="SVGID" class="cls-2" d="M763.1,403.2v27.7h1.1V403.2Zm-1.1-.9v29.5l7.1-.3.3-.9h.6v1.2h7.1v-9.2h.3v19.7h28v-4l-9.1-.2-.6-.6h-.3v-.9h-.3v-2l.3-1.4.6-.6h9.4v-4h-8.3V402.3H777.4l-.3,9.2v-9.2Zm-71.6-56.1-.5.3-.6.6-.6.3-.3,1.1-20.8.3v14.3h43.7V348.8h-7.1v-.9l-1.5-1.4-.8-.3h-2l-.6.3-.8.9-.3,1.1-3.8.3v-1.1l-1.1-1.2-.9-.3Zm-18.6-10.8.9.2v-.2Zm-3.1,0,.6.2v-.2Zm4-.3.6.3v-.3Zm6.9-7.8.3.3v-.3Zm-18.1,0v.6l.3-.6Zm-.2-1.4.2.3v-.3Zm18.3-2v.6l.3-.6Zm-18.1,0v.6l.3-.6Zm.3-6.3.3.3v-.3Zm17.8-.8.3.2v-.2Zm-18.1-.3v.8l.3-.8Zm-.2-1.2.2.3v-.3Zm18.3-2v.6l.3-.6Zm-18.1,0v.6l.3-.6Zm79.6-5.1v26.9h6.6V308.2Zm-72.4-2.9,3.1.3v-.3Zm0-.6-1.7.3-.3.3.6.3.8.3v-.3h.3l-.3.3-.5.3-.6.5-2,.3-.9.3-.8.9-.3.6-.3,2.8-.6.6-.3.6v-.6l.3-.3-.3-.3H661l-.3.3.6.3-.3.8-.3.6v3.2h.3v.5h.3l-.3.6-.3.3.8.8v-.2l.6-.6h.6l.3.3-.3,4-.6.6-.3.5v-.8l.3-.3-.3-.3H661l-.3.3.6.3-.3.8-.3.6v3.1h.3v.6h.3l-.3.6-.3.3.3.3v.5l.5-.3.3-1.1h.3v.9h.9v3.1h.3v.6h.3l.2.3,1.2.5,2,.3.8.9.6.3-.8.3v-.3h-.3l-.6.3.3.2v.6l.6-.3h1.1l.6.3,2.5.3v-.3l.9-.3h1.1l.3.3v-.3l.3-.5-.3-.3-.5-.3.5-.6,2.9-.6.6-.5.3-.6.2-3.2.3-.2.6-.3h.3l.8.8v-.3l.3-.5-.3-.3.3-1.4.3-2.6h-.3v-1.2l-.3-.2.3-.9h-.8l-.3.3.3.3-.3.5v-.2l-.6-.6h-.6v-3.7l.3-.3.6-.3h.3l.8.8v-.2l.3-.6-.3-.3.3-1.4.3-2.6h-.3v-1.1l-.3-.3.3-1.2h-.5l-.6.6.3.3-.3.6v-.3l-.6-.6h-.6v-3.4h-.2v-.6l-.6-.6-.9-.3-2.3-.3-1.1-1.1h.6l.5.3v-.3l.3-.9h-.6l-.8.3v-.3Zm5.1-18.3-.5.3-1.2.6-1.4,1.4-.3.9-.3,1.4-.3.9V293h.3v.6h.3v.8h.3v.9h.3l1.1,1.1v.6h.6l.6.3.8.3,2.3.6v-.3l.9-.3,1.1-.3.6-.3.3-.3.6-.3.2-.2.6-1.2.6-.6.3-1.4.3-1.1h-.3v-1.7h-.3v-.9H681v-.6l-1.1-1.1-.6-.3-.3-.3-.6-.3-.3-.3Zm41-4-.6.3-.9.3-.5.3-.3.3-.6.3-.6,1.7-.3,4.8.6.6v.6h.3v.6H697l-.3.2-.5.3-.6.6-.3.6-.3.3v.8h-2l-.6.3-.8.9-.3.8-.6,1.2-.3,2-.2,1.7v19.7h.2v3.7h.3v.9h.3v1.1h.3v.6h.3v.9h.3l.3.3,1.1.5.3.3,1.1.3v.9h.3v.5h.3v.6h.3v.6h.3l.3.3.5.3.3.2.9.3,35.5.3v-.3l.8-.3,1.2-.5.5-.6h1.8l.3-37-1.5-1v-.5l-1.4-1.5-.6-.2-10.6-.3.3-.6.3-6.3h-.3v-.6l-1.1-1.1-.9-.3-.6-.3-.8-.3Zm25.7-21.1-.9.2-4.2,1.5-.6.3-6,2-.6.3-6,2-.6.2-1.4.3-3.4,1.2-.6.3-4.3,1.4-.6.3-4.3,1.4-.5.3-4.3,1.4-.6.3-1.4.3-5.2,1.7-.6.3-5.1,1.7-.6.3-6,2,.3.3-1.4.3-.9.3-2.3.5-2.3,1.2-.8.3L673,285l-.9.3-.5.6-.6.3-.3.2-.6.3-.3.3-.5.3-.3.3-.6.3-.3.3-.5.2-.3.3-.6.3-2,2-.6.3-.8.9-.6.2-.6.6-.6.3.3.3-.5.6-.6.2-2.6,2.6-.3.6-.3.3-.2.6-.3.2-.3.6-.3.3-.3.6-.6.5-.2.6-.9.9-.9,1.7-.2.3-1.2,2.3-.3.2-.3.9-.3.6-.2.8-.6,1.2-1.2,3.4.3.3-.3,1.1-.5.3-.3.3-.9,5.2-.3,1.1-.2,3.2-.3,2.8.3.3v3.4h.2v2.9h.3v2.3h.3v2.3h.9v1.1h-.6l.3.3v1.1h.3v1.2h.3v1.4h.2v1.2h.3v1.4h.3v1.1h.3v1.5h.3v1.1h.3v1.2h.3v1.4h.2v1.1h.3v1.5h.3v1.1h.3v1.4h.6v1.2h-.6l.3.3v1.1h.3v1.4h.3v1.2h.3v1.4h.2v1.5h.3v1.1h.3v1.4h.3v1.5h.3v1.1h.3v1.4h.3v1.5h.2v1.1h.3v1.4h.3V378h.9v1.1h46.3v12.6H717V379.1h6.3v23.8h.6v2.3h-1.4V420h1.4v2.3h-.6v.9h.3l-.3,30.3v.9h22.1v-1.8h1.7v1.8h17.7V433.5h10.9v8.8l.3-9.1H747.1v5.4h-1.7v-6.8h-5.2V385.7h1.4v.6H758l-10.9.3v6.8h.8v-6h1.5v6l.3-.5h1.1l-.3,1.1-.6.3V394l-.2-.3h-.3v6h-1.5v-6h-.8v6.9h17.1V400h1.2v.6h3.7V383.7l-1.1-.3h1.1v-9.7H768v-.6h1.1V361.4h-4.3l-.3,8.6-.3,1.1-.2.3-.6.3-.6.6-2.3.2v-.2l-.5-.6h-.6v-.6l-.3-.3h-.3v-9.4h-4.3v8.3H741.9v-8.3h-.3v9.1h-1.4V357.1h1.2V342.2h-1.2v-2.8h7.7V302.7h-6.8V261.3Z"/><g class="cls-5"><rect class="cls-4" x="646.7" y="261.3" width="158.8" height="193.1"/></g><path id="SVGID-6" data-name="SVGID" class="cls-2" d="M766.8,269.8l-1.4.3-2.9,1.5-1.4,1.4-.6,1.1-.3,1.2-.2.8-.3.6v2h.3V281h.2v.6h.3v.5h.3v.6h.3v.6h.3l.6.6v.5h.5l.6.6,2.3,1.2,1.4.2,2.6.3v-.3l1.1-.2.9-.3,1.7-.9,1.4-1.4.3-.6.6-.6.3-.5.3-1.2.3-1.4.3-2.3h-.3v-1.1H776v-1.5h-.3v-.6l-2.6-2.5-1.7-.9-.9-.3-1.1-.3Zm12.9-23.1-.9.3-10.3,3.4-.5.3-11.2,3.7-.6.3-12,4v40.6h59.2v-10l2-.3.9-.3.6-.3.8-.2h.6v-1.5H808v-.5l-.3-.3h-.3v-.6l-.2-.3h-.3v-.6l-.3-.3h-.3v-.5l-.6-.6h-.3v-.6l-.2-.3h-.3v-.5l-.3-.3h-.3v-.6l-.3-.3h-.3v-.5l-.5-.6h-.3v-.6l-.3-.3h-.3v-.5l-.3-.3h-.3V277l-.3-.3h-.2v-.6l-.6-.5h-.3V275l-.3-.3h-.3v-.6l-.3-.3h-.2v-.5l-.3-.3h-.3v-.6l-.6-.6h-.3v-.5l-.3-.3h-.3v-.6l-.2-.3h-.3v-.5l-.3-.3H796v-.6l-.6-.6h-.3v-.5l-.2-.3h-.3v-.6l-.3-.3H794v-.6l-.3-.2h-.3V265l-.5-.6h-.3v-.6l-.3-.2H792V263l-.3-.3h-.3v-.6l-.3-.3h-.2v-.5l-.6-.6H790v-.6l-.3-.3h-.3v-.5l-.3-.3h-.2v-.6l-.3-.3h-.3v-.6l-.6-.5h-.3v-.6l-.3-.3h-.3v-.6l-.2-.2h-.3v-.6l-.3-.3h-.3v-.6l-.6-.5h-.3v-.6l-.2-.3h-.3v-.6l-.3-.3h-.3V251l-.3-.3h-.3v-.6l-.5-.6h-.3V249l-.3-.3h-.3v-.6l-.3-.3h-.3v-.6l-.5-.5Z"/><g class="cls-6"><rect class="cls-4" x="744.2" y="246.7" width="64.1" height="52.64"/></g><line class="cls-7" x1="759.4" y1="348.2" x2="758.8" y2="349.4"/></svg>