<svg xmlns="http://www.w3.org/2000/svg" viewBox="0 0 28.13 21.27"><defs><style>.cls-1{fill:#A49C87;}</style></defs><title>culture</title><g id="Layer_2" data-name="Layer 2"><g id="Layer_1-2" data-name="Layer 1"><path class="cls-1" d="M28.13,3.68c0,.15,0,.29,0,.44a19.5,19.5,0,0,1-1.23,5.65,20,20,0,0,1-1,2.37A11.44,11.44,0,0,1,23.7,14.9a11.72,11.72,0,0,1-2.07,1.65,7,7,0,0,1-2.41,1A5,5,0,0,1,16,17.06L16,17a.36.36,0,0,1,0-.11,14.51,14.51,0,0,0,.93-3.49s0-.09.07-.09a3.21,3.21,0,0,1,1.51.06,4.13,4.13,0,0,1,1.47.86l.86.74a.52.52,0,0,0,.19.11.25.25,0,0,0,.38-.17,1.32,1.32,0,0,0,0-.44,3.49,3.49,0,0,0-3-3.13,3.32,3.32,0,0,0-1.33.09l-.14,0a24.65,24.65,0,0,0-.64-3.92l.56-.06a2.07,2.07,0,0,0,.79-.31,2.17,2.17,0,0,0,.81-.81,1,1,0,0,0,.12-.26c0-.17-.05-.28-.23-.24s-.25.06-.37.09c-.33.08-.65.18-1,.23A2,2,0,0,1,16,6.07a.2.2,0,0,1-.13-.14,19.72,19.72,0,0,0-1.4-3.11l0-.07A21.69,21.69,0,0,1,11.94,4.5c0-.21.07-.4.11-.59A19.7,19.7,0,0,1,13.25.09a.32.32,0,0,0,0-.09h.05l.09.08a20.4,20.4,0,0,0,4,2.09A22.23,22.23,0,0,0,19.91,3a20.74,20.74,0,0,0,3.92.59,19.86,19.86,0,0,0,3.36-.08l.94-.12ZM23.49,8.93A2.36,2.36,0,0,0,25.23,8a1.59,1.59,0,0,0,.34-.64c0-.19-.07-.3-.25-.25s-.41.14-.61.21a2.19,2.19,0,0,1-.33.12c-.2.05-.41.1-.61.13a1.88,1.88,0,0,1-.53,0,2.11,2.11,0,0,1-.91-.35c-.27-.18-.52-.4-.78-.6a2,2,0,0,0-.3-.2.18.18,0,0,0-.28.13.75.75,0,0,0,0,.26A2.45,2.45,0,0,0,23.49,8.93Z"/><path class="cls-1" d="M0,8.71A20.31,20.31,0,0,0,13.81,4.3a.41.41,0,0,1,0,.09A19,19,0,0,1,15.79,10c.12.73.24,1.46.29,2.21a9.85,9.85,0,0,1-.26,3,12.3,12.3,0,0,1-1,2.93,6.42,6.42,0,0,1-1.66,2.1,4.52,4.52,0,0,1-3.41,1A6.9,6.9,0,0,1,7,20.32a12.66,12.66,0,0,1-3-2.27A10.5,10.5,0,0,1,2.29,15.6,22.78,22.78,0,0,1,.8,12.21c-.09-.26-.16-.53-.23-.79C.43,10.86.29,10.31.16,9.75.09,9.43.05,9.1,0,8.78ZM9.74,18.88a3.54,3.54,0,0,0,2.68-1.17,3.5,3.5,0,0,0,1-2.54,1.84,1.84,0,0,0-.1-.51.26.26,0,0,0-.43-.13,1.12,1.12,0,0,0-.2.17c-.11.11-.22.24-.32.36-.32.34-.63.7-1,1a3.21,3.21,0,0,1-2.29.86,8.07,8.07,0,0,1-1.55-.24,3.72,3.72,0,0,0-.67-.08.25.25,0,0,0-.22.37,2.08,2.08,0,0,0,.28.48A3.64,3.64,0,0,0,9.74,18.88ZM2.92,13.22a.85.85,0,0,0,0,.16,1.85,1.85,0,0,0,.24.86.18.18,0,0,0,.31,0A1,1,0,0,0,3.62,14c.16-.31.31-.62.48-.91A2.21,2.21,0,0,1,5.5,12c.32-.07.65-.09,1-.13.18,0,.37,0,.55,0s.32-.2.15-.39a1.8,1.8,0,0,0-.36-.32,2.57,2.57,0,0,0-1.31-.42A2.48,2.48,0,0,0,2.92,13.22Zm9.43-4.71a2.57,2.57,0,0,0-2.61,2,1.14,1.14,0,0,0,0,.41c0,.18.14.25.31.17a2.4,2.4,0,0,0,.29-.19c.27-.2.53-.42.81-.61A2.27,2.27,0,0,1,12.79,10a4.8,4.8,0,0,1,1.16.39l.36.12a.18.18,0,0,0,.23-.22.92.92,0,0,0-.08-.27A2.47,2.47,0,0,0,12.35,8.51Z"/></g></g></svg>