<svg xmlns="http://www.w3.org/2000/svg" viewBox="0 0 28.1 21.3"><defs><style>.cls-1{fill:#033348;}</style></defs><title>cultureb</title><g id="Layer_2" data-name="Layer 2"><g id="Layer_1-2" data-name="Layer 1"><path class="cls-1" d="M28.1,3.7v.4a21.4,21.4,0,0,1-1.2,5.7,16.3,16.3,0,0,1-1.1,2.3,9.8,9.8,0,0,1-2.1,2.8,12,12,0,0,1-2.1,1.7,6.3,6.3,0,0,1-2.4.9,5,5,0,0,1-3.2-.4c0-.1,0-.1-.1-.1a.1.1,0,0,0,.1-.1,13.9,13.9,0,0,0,.9-3.5H17a2.6,2.6,0,0,1,1.5.1,7.1,7.1,0,0,1,1.5.8l.8.8H21c.2.1.4,0,.4-.2s.1-.3,0-.4a3.6,3.6,0,0,0-2.9-3.2H17a22.6,22.6,0,0,0-.7-3.9h.6c.3,0,.5-.2.8-.3a3,3,0,0,0,.8-.8.4.4,0,0,0,.1-.3c.1-.2,0-.3-.2-.2H18l-1,.2a1.7,1.7,0,0,1-1-.1l-.2-.2a14.1,14.1,0,0,0-1.4-3.1h0a14.4,14.4,0,0,1-2.5,1.8,1.3,1.3,0,0,0,.1-.6A17.1,17.1,0,0,1,13.3.1h.1a30.5,30.5,0,0,0,4,2.1l2.5.8a26.3,26.3,0,0,0,3.9.6h4.3ZM23.5,8.9A2.2,2.2,0,0,0,25.2,8a1.6,1.6,0,0,0,.4-.7c0-.1-.1-.2-.3-.2l-.6.2h-.3l-.6.2h-.6l-.9-.4-.7-.6-.4-.2c-.1-.1-.2,0-.2.1s-.1.2,0,.3A2.3,2.3,0,0,0,23.5,8.9Z"/><path class="cls-1" d="M0,8.7A20.4,20.4,0,0,0,13.8,4.3a.1.1,0,0,0,.1.1A21.8,21.8,0,0,1,15.8,10l.3,2.2a10.2,10.2,0,0,1-.3,3,11.8,11.8,0,0,1-1,3,6.8,6.8,0,0,1-1.7,2.1,4.5,4.5,0,0,1-3.4.9A6.2,6.2,0,0,1,7,20.3a12.9,12.9,0,0,1-3-2.2,13.8,13.8,0,0,1-1.7-2.5A20.7,20.7,0,0,1,.8,12.2a2.4,2.4,0,0,1-.2-.8A8.5,8.5,0,0,1,.2,9.7C.1,9.4.1,9.1,0,8.8ZM9.7,18.9a3.3,3.3,0,0,0,2.7-1.2,3.3,3.3,0,0,0,1-2.5,4.3,4.3,0,0,0-.1-.5.4.4,0,0,0-.5-.2l-.2.2-.3.4-.9,1a3.4,3.4,0,0,1-2.3.8l-1.6-.2H6.9c-.3,0-.3.2-.3.4l.3.5A4,4,0,0,0,9.7,18.9ZM2.9,13.2v.2a1.1,1.1,0,0,0,.3.8c0,.2.2.2.3.1s.1-.2.1-.3l.5-.9A2.6,2.6,0,0,1,5.5,12H7c.3-.1.3-.2.2-.4s-.2-.3-.4-.3a2.9,2.9,0,0,0-1.3-.5A2.6,2.6,0,0,0,2.9,13.2Zm9.4-4.7a2.7,2.7,0,0,0-2.6,2v.4c0,.2.2.3.3.2l.3-.2.8-.6a2.5,2.5,0,0,1,1.7-.3l1.2.3.3.2c.2,0,.3-.1.2-.3V10A2.6,2.6,0,0,0,12.3,8.5Z"/></g></g></svg>