<svg id="truong" xmlns="http://www.w3.org/2000/svg" xmlns:xlink="http://www.w3.org/1999/xlink" viewBox="0 0 3047.3 2006.1"><defs><style>.cls-1,.cls-4{fill:none;}.cls-2{clip-path:url(#clip-path);}.cls-3,.cls-6{fill:#37517a;}.cls-4,.cls-6{stroke:#0e1d40;stroke-linecap:round;stroke-linejoin:round;stroke-width:1.2px;}.cls-5{fill:#faf8f3;}.cls-7{clip-path:url(#clip-path-2);}.cls-8{clip-path:url(#clip-path-3);}.cls-9{clip-path:url(#clip-path-4);}.cls-10{clip-path:url(#clip-path-5);}.cls-11{clip-path:url(#clip-path-6);}.cls-12{fill:#d1af84;}.cls-13,.cls-21,.cls-35{font-size:24px;fill:#0a1c3d;font-family:Montserrat-Regular, Montserrat;}.cls-13{letter-spacing:-0.07em;}.cls-14{letter-spacing:-0.05em;}.cls-15{letter-spacing:-0.05em;}.cls-16{letter-spacing:-0.07em;}.cls-17{letter-spacing:-0.06em;}.cls-18{letter-spacing:-0.06em;}.cls-19{letter-spacing:-0.06em;}.cls-20{letter-spacing:-0.05em;}.cls-21,.cls-27{letter-spacing:-0.05em;}.cls-22{letter-spacing:-0.05em;}.cls-23{letter-spacing:-0.05em;}.cls-24{letter-spacing:-0.05em;}.cls-25{letter-spacing:-0.07em;}.cls-26{letter-spacing:-0.06em;}.cls-28{letter-spacing:-0.04em;}.cls-29{letter-spacing:-0.06em;}.cls-30{letter-spacing:-0.06em;}.cls-31{letter-spacing:-0.05em;}.cls-32{letter-spacing:-0.05em;}.cls-33{letter-spacing:-0.06em;}.cls-34,.cls-35{letter-spacing:-0.06em;}.cls-36{letter-spacing:-0.06em;}</style><clipPath id="clip-path"><rect class="cls-1" x="1002.8" y="1264.9" width="65.2" height="47.89"/></clipPath><clipPath id="clip-path-2"><rect class="cls-1" x="991.8" y="1411.2" width="65.2" height="47.89"/></clipPath><clipPath id="clip-path-3"><rect class="cls-1" x="1054.6" y="1519.8" width="65.2" height="47.89"/></clipPath><clipPath id="clip-path-4"><rect class="cls-1" x="1446.7" y="1339.9" width="65.2" height="47.89"/></clipPath><clipPath id="clip-path-5"><rect class="cls-1" x="1385.2" y="1231.9" width="65.2" height="47.89"/></clipPath><clipPath id="clip-path-6"><rect class="cls-1" x="1339.4" y="1128" width="65.2" height="47.89"/></clipPath></defs><title>edu</title><g class="cls-2"><path class="cls-3" d="M1018.2,1277.9v24.7h0c.4,4.8,8.2,8.7,17.8,8.7s17.4-3.9,17.7-8.7h.1v-24.7Z"/><path class="cls-4" d="M1018.2,1277.9v24.7h0c.4,4.8,8.2,8.7,17.8,8.7s17.4-3.9,17.7-8.7h.1v-24.7Z"/></g><polygon class="cls-5" points="1004.3 1282 1035.4 1297.5 1066.4 1282 1035.4 1266.5 1004.3 1282"/><path class="cls-6" d="M1004.3,1303.6v-20.4m62.1-1.2-31,15.5-31.1-15.5,31.1-15.6Z"/><g class="cls-7"><path class="cls-3" d="M1007.2,1424.2v24.7h0c.4,4.8,8.2,8.7,17.8,8.7s17.4-3.9,17.7-8.7h.1v-24.7Z"/><path class="cls-4" d="M1007.2,1424.2v24.7h0c.4,4.8,8.2,8.7,17.8,8.7s17.4-3.9,17.7-8.7h.1v-24.7Z"/></g><polygon class="cls-5" points="993.3 1428.3 1024.4 1443.8 1055.4 1428.3 1024.4 1412.8 993.3 1428.3"/><path class="cls-6" d="M993.3,1450v-20.5m62.1-1.2-31,15.5-31.1-15.5,31.1-15.5Z"/><g class="cls-8"><path class="cls-3" d="M1070,1532.8v24.7h0c.4,4.8,8.2,8.7,17.8,8.7s17.4-3.9,17.7-8.7h.1v-24.7Z"/><path class="cls-4" d="M1070,1532.8v24.7h0c.4,4.8,8.2,8.7,17.8,8.7s17.4-3.9,17.7-8.7h.1v-24.7Z"/></g><polygon class="cls-5" points="1056.1 1536.9 1087.2 1552.4 1118.3 1536.9 1087.2 1521.4 1056.1 1536.9"/><path class="cls-6" d="M1056.1,1558.6v-20.5m62.2-1.2-31.1,15.5-31.1-15.5,31.1-15.5Z"/><g class="cls-9"><path class="cls-3" d="M1462.1,1352.9v24.7h0c.4,4.8,8.2,8.7,17.8,8.7s17.4-3.9,17.7-8.7h.1v-24.7Z"/><path class="cls-4" d="M1462.1,1352.9v24.7h0c.4,4.8,8.2,8.7,17.8,8.7s17.4-3.9,17.7-8.7h.1v-24.7Z"/></g><polygon class="cls-5" points="1448.2 1357 1479.3 1372.5 1510.4 1357 1479.3 1341.5 1448.2 1357"/><path class="cls-6" d="M1448.2,1378.7v-20.5m62.2-1.2-31.1,15.5-31.1-15.5,31.1-15.5Z"/><g class="cls-10"><path class="cls-3" d="M1400.6,1244.9v24.7h0c.4,4.8,8.2,8.7,17.8,8.7s17.4-3.9,17.7-8.7h.1v-24.7Z"/><path class="cls-4" d="M1400.6,1244.9v24.7h0c.4,4.8,8.2,8.7,17.8,8.7s17.4-3.9,17.7-8.7h.1v-24.7Z"/></g><polygon class="cls-5" points="1386.7 1249 1417.8 1264.5 1448.8 1249 1417.8 1233.5 1386.7 1249"/><path class="cls-6" d="M1386.7,1270.7v-20.5m62.1-1.2-31,15.5-31.1-15.5,31.1-15.5Z"/><g class="cls-11"><path class="cls-3" d="M1354.8,1140.9v24.7h0c.4,4.9,8.2,8.7,17.8,8.7s17.4-3.8,17.7-8.7h.1v-24.7Z"/><path class="cls-4" d="M1354.8,1140.9v24.7h0c.4,4.9,8.2,8.7,17.8,8.7s17.4-3.8,17.7-8.7h.1v-24.7Z"/></g><polygon class="cls-5" points="1340.9 1145 1372 1160.6 1403.1 1145 1372 1129.5 1340.9 1145"/><path class="cls-6" d="M1340.9,1166.7v-20.4m62.2-1.3-31.1,15.6-31.1-15.6,31.1-15.5Z"/><rect class="cls-12" x="681.2" y="1502.4" width="303.7" height="79.17"/><polygon class="cls-12" points="1045 1542 984.9 1551.1 984.9 1532.8 1045 1542"/><text class="cls-13" transform="translate(777.8 1537.4) scale(0.97 1)">C<tspan class="cls-14" x="15.5" y="0">ollege Of</tspan><tspan class="cls-15"><tspan x="-94.4" y="30"> </tspan><tspan class="cls-16" x="-89.3" y="30">F</tspan><tspan class="cls-14" x="-75.7" y="30">o</tspan><tspan class="cls-17" x="-61.9" y="30">r</tspan><tspan class="cls-14" x="-53.7" y="30">eign </tspan><tspan class="cls-18" x="0.2" y="30">E</tspan><tspan class="cls-19" x="14.9" y="30">c</tspan><tspan class="cls-14" x="27" y="30">o</tspan><tspan class="cls-20" x="40.8" y="30">n</tspan><tspan class="cls-14" x="55.9" y="30">omic Relation</tspan></tspan></text><rect class="cls-12" x="1578.2" y="1324.3" width="303.7" height="79.17"/><polygon class="cls-12" points="1518.1 1360.7 1578.2 1369.8 1578.2 1351.6 1518.1 1360.7"/><text class="cls-21" transform="translate(1643.7 1352.4)">Chuo<tspan class="cls-22" x="59.9" y="0">n</tspan><tspan x="75" y="0">g Duo</tspan><tspan class="cls-23" x="142.8" y="0">n</tspan><tspan class="cls-24" x="157.9" y="0">g</tspan><tspan class="cls-25"><tspan x="3.8" y="30">P</tspan><tspan class="cls-26" x="19.2" y="30">r</tspan><tspan class="cls-27" x="27.5" y="30">ima</tspan><tspan class="cls-28" x="70" y="30">r</tspan><tspan class="cls-27" x="78.7" y="30">y S</tspan><tspan class="cls-29" x="109.2" y="30">c</tspan><tspan class="cls-22" x="121.3" y="30">h</tspan><tspan class="cls-24" x="136.4" y="30">ool</tspan></tspan></text><rect class="cls-12" x="611.8" y="1392.1" width="303.7" height="79.17"/><polygon class="cls-12" points="975.6 1431.7 915.5 1440.8 915.5 1422.6 975.6 1431.7"/><text class="cls-21" transform="translate(728.2 1427.3)">Sai Gon<tspan x="-12" y="30">Uni</tspan><tspan class="cls-30" x="26.1" y="30">v</tspan><tspan class="cls-31" x="37.6" y="30">e</tspan><tspan class="cls-32" x="50.9" y="30">r</tspan><tspan x="59.2" y="30">si</tspan><tspan class="cls-33" x="75" y="30">t</tspan><tspan x="83.3" y="30">y</tspan></text><rect class="cls-12" x="630.4" y="1242.4" width="303.7" height="79.17"/><polygon class="cls-12" points="994.1 1282 934 1291.1 934 1272.8 994.1 1282"/><text class="cls-21" transform="translate(722.3 1279.8)">Uni<tspan class="cls-30" x="38.1" y="0">v</tspan><tspan class="cls-31" x="49.6" y="0">e</tspan><tspan class="cls-32" x="62.9" y="0">r</tspan><tspan x="71.2" y="0">si</tspan><tspan class="cls-33" x="87" y="0">t</tspan><tspan x="95.3" y="0">y of</tspan><tspan class="cls-26"><tspan x="10.2" y="30">E</tspan><tspan class="cls-27" x="24.8" y="30">ducation</tspan></tspan></text><rect class="cls-12" x="1469.5" y="1112.3" width="303.7" height="79.17"/><polygon class="cls-12" points="1409.4 1148.7 1469.5 1157.8 1469.5 1139.6 1409.4 1148.7"/><text class="cls-21" transform="translate(1585.3 1150.1)"><tspan xml:space="preserve"> Duc </tspan><tspan class="cls-34" x="56.1" y="0">T</tspan><tspan class="cls-29" x="68.3" y="0">r</tspan><tspan x="76.5" y="0">i</tspan><tspan class="cls-24"><tspan x="-58.1" y="30">Junior Highs</tspan><tspan class="cls-26" x="79.7" y="30">c</tspan><tspan class="cls-22" x="91.9" y="30">h</tspan><tspan class="cls-27" x="107" y="30">ool</tspan></tspan></text><rect class="cls-12" x="1515.2" y="1212.6" width="303.7" height="79.17"/><polygon class="cls-12" points="1455.1 1249 1515.2 1258.2 1515.2 1239.9 1455.1 1249"/><text class="cls-35" transform="translate(1575.6 1249)">T<tspan class="cls-36" x="12.2" y="0">r</tspan><tspan class="cls-27" x="20.4" y="0">an Hu</tspan><tspan class="cls-22" x="86.8" y="0">n</tspan><tspan class="cls-27" x="101.9" y="0">g D</tspan><tspan class="cls-22" x="140.9" y="0">a</tspan><tspan class="cls-27" x="153.9" y="0">o</tspan><tspan class="cls-25"><tspan x="1.1" y="30">P</tspan><tspan class="cls-26" x="16.5" y="30">r</tspan><tspan class="cls-27" x="24.8" y="30">ima</tspan><tspan class="cls-28" x="67.3" y="30">r</tspan><tspan class="cls-27" x="76" y="30">y S</tspan><tspan class="cls-29" x="106.5" y="30">c</tspan><tspan class="cls-22" x="118.6" y="30">h</tspan><tspan class="cls-24" x="133.7" y="30">ool</tspan></tspan></text></svg>