<svg id="truong" xmlns="http://www.w3.org/2000/svg" xmlns:xlink="http://www.w3.org/1999/xlink" viewBox="0 0 3047.3 2006.1"><defs><style>.cls-1,.cls-4{fill:none;}.cls-2{clip-path:url(#clip-path);}.cls-3,.cls-6{fill:#37517a;}.cls-4,.cls-6{stroke:#0e1d40;stroke-linecap:round;stroke-linejoin:round;stroke-width:1.2px;}.cls-5{fill:#faf8f3;}.cls-7{clip-path:url(#clip-path-2);}.cls-8{clip-path:url(#clip-path-3);}.cls-9{clip-path:url(#clip-path-4);}.cls-10{clip-path:url(#clip-path-5);}.cls-11{clip-path:url(#clip-path-6);}.cls-12{fill:#d1af84;}.cls-13,.cls-21{font-size:24px;fill:#0a1c3d;font-family:Montserrat-Regular, Montserrat;}.cls-13{letter-spacing:-0.06em;}.cls-14{letter-spacing:-0.05em;}.cls-15{letter-spacing:-0.07em;}.cls-16{letter-spacing:-0.05em;}.cls-17{letter-spacing:-0.06em;}.cls-18{letter-spacing:-0.06em;}.cls-19{letter-spacing:-0.1em;}.cls-20{letter-spacing:-0.05em;}.cls-21{letter-spacing:-0.06em;}.cls-22{letter-spacing:-0.05em;}.cls-23{letter-spacing:-0.07em;}.cls-24{letter-spacing:-0.05em;}.cls-25{letter-spacing:-0.05em;}.cls-26{letter-spacing:-0.06em;}.cls-27{letter-spacing:-0.07em;}.cls-28{letter-spacing:-0.05em;}.cls-29{letter-spacing:-0.08em;}.cls-30{letter-spacing:-0.05em;}.cls-31{letter-spacing:-0.06em;}.cls-32{letter-spacing:-0.06em;}.cls-33{letter-spacing:-0.07em;}</style><clipPath id="clip-path"><rect class="cls-1" x="1002.8" y="1264.9" width="65.2" height="47.89"/></clipPath><clipPath id="clip-path-2"><rect class="cls-1" x="991.8" y="1411.2" width="65.2" height="47.89"/></clipPath><clipPath id="clip-path-3"><rect class="cls-1" x="1054.6" y="1519.8" width="65.2" height="47.89"/></clipPath><clipPath id="clip-path-4"><rect class="cls-1" x="1446.7" y="1339.9" width="65.2" height="47.89"/></clipPath><clipPath id="clip-path-5"><rect class="cls-1" x="1385.2" y="1231.9" width="65.2" height="47.89"/></clipPath><clipPath id="clip-path-6"><rect class="cls-1" x="1339.4" y="1128" width="65.2" height="47.89"/></clipPath></defs><title>eduV</title><g class="cls-2"><path class="cls-3" d="M1018.2,1277.9v24.7h0c.4,4.8,8.2,8.7,17.8,8.7s17.4-3.9,17.7-8.7h.1v-24.7Z"/><path class="cls-4" d="M1018.2,1277.9v24.7h0c.4,4.8,8.2,8.7,17.8,8.7s17.4-3.9,17.7-8.7h.1v-24.7Z"/></g><polygon class="cls-5" points="1004.3 1282 1035.4 1297.5 1066.4 1282 1035.4 1266.5 1004.3 1282"/><path class="cls-6" d="M1004.3,1303.6v-20.4m62.1-1.2-31,15.5-31.1-15.5,31.1-15.6Z"/><g class="cls-7"><path class="cls-3" d="M1007.2,1424.2v24.7h0c.4,4.8,8.2,8.7,17.8,8.7s17.4-3.9,17.7-8.7h.1v-24.7Z"/><path class="cls-4" d="M1007.2,1424.2v24.7h0c.4,4.8,8.2,8.7,17.8,8.7s17.4-3.9,17.7-8.7h.1v-24.7Z"/></g><polygon class="cls-5" points="993.3 1428.3 1024.4 1443.8 1055.4 1428.3 1024.4 1412.8 993.3 1428.3"/><path class="cls-6" d="M993.3,1450v-20.5m62.1-1.2-31,15.5-31.1-15.5,31.1-15.5Z"/><g class="cls-8"><path class="cls-3" d="M1070,1532.8v24.7h0c.4,4.8,8.2,8.7,17.8,8.7s17.4-3.9,17.7-8.7h.1v-24.7Z"/><path class="cls-4" d="M1070,1532.8v24.7h0c.4,4.8,8.2,8.7,17.8,8.7s17.4-3.9,17.7-8.7h.1v-24.7Z"/></g><polygon class="cls-5" points="1056.1 1536.9 1087.2 1552.4 1118.3 1536.9 1087.2 1521.4 1056.1 1536.9"/><path class="cls-6" d="M1056.1,1558.6v-20.5m62.2-1.2-31.1,15.5-31.1-15.5,31.1-15.5Z"/><g class="cls-9"><path class="cls-3" d="M1462.1,1352.9v24.7h0c.4,4.8,8.2,8.7,17.8,8.7s17.4-3.9,17.7-8.7h.1v-24.7Z"/><path class="cls-4" d="M1462.1,1352.9v24.7h0c.4,4.8,8.2,8.7,17.8,8.7s17.4-3.9,17.7-8.7h.1v-24.7Z"/></g><polygon class="cls-5" points="1448.2 1357 1479.3 1372.5 1510.4 1357 1479.3 1341.5 1448.2 1357"/><path class="cls-6" d="M1448.2,1378.7v-20.5m62.2-1.2-31.1,15.5-31.1-15.5,31.1-15.5Z"/><g class="cls-10"><path class="cls-3" d="M1400.6,1244.9v24.7h0c.4,4.8,8.2,8.7,17.8,8.7s17.4-3.9,17.7-8.7h.1v-24.7Z"/><path class="cls-4" d="M1400.6,1244.9v24.7h0c.4,4.8,8.2,8.7,17.8,8.7s17.4-3.9,17.7-8.7h.1v-24.7Z"/></g><polygon class="cls-5" points="1386.7 1249 1417.8 1264.5 1448.8 1249 1417.8 1233.5 1386.7 1249"/><path class="cls-6" d="M1386.7,1270.7v-20.5m62.1-1.2-31,15.5-31.1-15.5,31.1-15.5Z"/><g class="cls-11"><path class="cls-3" d="M1354.8,1140.9v24.7h0c.4,4.9,8.2,8.7,17.8,8.7s17.4-3.8,17.7-8.7h.1v-24.7Z"/><path class="cls-4" d="M1354.8,1140.9v24.7h0c.4,4.9,8.2,8.7,17.8,8.7s17.4-3.8,17.7-8.7h.1v-24.7Z"/></g><polygon class="cls-5" points="1340.9 1145 1372 1160.6 1403.1 1145 1372 1129.5 1340.9 1145"/><path class="cls-6" d="M1340.9,1166.7v-20.4m62.2-1.3-31.1,15.6-31.1-15.6,31.1-15.5Z"/><rect class="cls-12" x="681.2" y="1502.4" width="303.7" height="79.17"/><polygon class="cls-12" points="1045 1542 984.9 1551.1 984.9 1532.8 1045 1542"/><text class="cls-13" transform="translate(735.6 1537.4) scale(0.97 1)">T<tspan class="cls-14" x="12.2" y="0">r</tspan><tspan class="cls-15" x="20.7" y="0">ư</tspan><tspan class="cls-14" x="35.3" y="0">ờ</tspan><tspan class="cls-16" x="49.1" y="0">n</tspan><tspan class="cls-14" x="64.2" y="0">g </tspan><tspan class="cls-17" x="84.6" y="0">C</tspan><tspan class="cls-16" x="100.4" y="0">a</tspan><tspan class="cls-14" x="113.4" y="0">o Đẳ</tspan><tspan class="cls-16" x="164.1" y="0">n</tspan><tspan class="cls-14" x="179.2" y="0">g </tspan><tspan class="cls-18"><tspan x="2.7" y="30">K</tspan><tspan class="cls-14" x="18.3" y="30">inh </tspan><tspan class="cls-19" x="58.7" y="30">T</tspan><tspan class="cls-14" x="70" y="30">ế Đối Ng</tspan><tspan class="cls-20" x="164.9" y="30">o</tspan><tspan class="cls-14" x="178.7" y="30">ại</tspan></tspan></text><rect class="cls-12" x="1578.2" y="1324.3" width="303.7" height="79.17"/><polygon class="cls-12" points="1518.1 1360.7 1578.2 1369.8 1578.2 1351.6 1518.1 1360.7"/><text class="cls-21" transform="translate(1640.4 1352.4)">T<tspan class="cls-22" x="12.2" y="0">r</tspan><tspan class="cls-23" x="20.7" y="0">ư</tspan><tspan class="cls-24" x="35.3" y="0">ờ</tspan><tspan class="cls-25" x="49.1" y="0">n</tspan><tspan class="cls-24" x="64.2" y="0">g </tspan><tspan class="cls-26" x="84.6" y="0">T</tspan><tspan class="cls-22" x="96.8" y="0">iểu Học</tspan><tspan class="cls-22"><tspan x="3.7" y="30">Ch</tspan><tspan class="cls-27" x="34.8" y="30">ư</tspan><tspan x="49.4" y="30">ơ</tspan><tspan class="cls-28" x="63.3" y="30">n</tspan><tspan x="78.4" y="30">g D</tspan><tspan class="cls-23" x="117.3" y="30">ư</tspan><tspan class="cls-24" x="132" y="30">ơ</tspan><tspan class="cls-28" x="145.8" y="30">n</tspan><tspan x="160.9" y="30">g</tspan></tspan></text><rect class="cls-12" x="611.8" y="1392.1" width="303.7" height="79.17"/><polygon class="cls-12" points="975.6 1431.7 915.5 1440.8 915.5 1422.6 975.6 1431.7"/><text class="cls-21" transform="translate(685.8 1427.3)">T<tspan class="cls-22" x="12.2" y="0">r</tspan><tspan class="cls-23" x="20.7" y="0">ư</tspan><tspan class="cls-24" x="35.3" y="0">ờ</tspan><tspan class="cls-25" x="49.1" y="0">n</tspan><tspan class="cls-24" x="64.2" y="0">g Đại </tspan><tspan class="cls-28" x="126.6" y="0">h</tspan><tspan class="cls-22" x="141.7" y="0">ọc</tspan><tspan class="cls-22"><tspan x="42.4" y="30">Sài Gòn</tspan></tspan></text><rect class="cls-12" x="630.4" y="1242.4" width="303.7" height="79.17"/><polygon class="cls-12" points="994.1 1282 934 1291.1 934 1272.8 994.1 1282"/><text class="cls-21" transform="translate(703.3 1279.8)">T<tspan class="cls-22" x="12.2" y="0">r</tspan><tspan class="cls-23" x="20.7" y="0">ư</tspan><tspan class="cls-24" x="35.3" y="0">ờ</tspan><tspan class="cls-25" x="49.1" y="0">n</tspan><tspan class="cls-24" x="64.2" y="0">g Đại Học</tspan><tspan class="cls-22"><tspan x="-14" y="30">Sự phạm T</tspan><tspan class="cls-29" x="104.7" y="30">P</tspan><tspan x="120.1" y="30">.HCM </tspan></tspan></text><rect class="cls-12" x="1469.5" y="1112.3" width="303.7" height="79.17"/><polygon class="cls-12" points="1409.4 1148.7 1469.5 1157.8 1469.5 1139.6 1409.4 1148.7"/><text class="cls-21" transform="translate(1551.1 1150.1)">T<tspan class="cls-22" x="12.2" y="0">r</tspan><tspan class="cls-23" x="20.7" y="0">ư</tspan><tspan class="cls-24" x="35.3" y="0">ờ</tspan><tspan class="cls-25" x="49.1" y="0">n</tspan><tspan class="cls-24" x="64.2" y="0">g TH</tspan><tspan class="cls-30" x="115.5" y="0">C</tspan><tspan class="cls-22" x="131.4" y="0">S </tspan><tspan class="cls-24"><tspan x="36.8" y="30">Đ</tspan><tspan class="cls-23" x="55.5" y="30">ứ</tspan><tspan x="70.2" y="30">c </tspan><tspan class="cls-26" x="87.6" y="30">T</tspan><tspan class="cls-31" x="99.8" y="30">r</tspan><tspan class="cls-22" x="108" y="30">í</tspan></tspan></text><rect class="cls-12" x="1515.2" y="1212.6" width="303.7" height="79.17"/><polygon class="cls-12" points="1455.1 1249 1515.2 1258.2 1515.2 1239.9 1455.1 1249"/><text class="cls-21" transform="translate(1567 1249)">T<tspan class="cls-22" x="12.2" y="0">r</tspan><tspan class="cls-23" x="20.7" y="0">ư</tspan><tspan class="cls-24" x="35.3" y="0">ờ</tspan><tspan class="cls-28" x="49.1" y="0">n</tspan><tspan class="cls-22" x="64.2" y="0">g </tspan><tspan class="cls-26" x="84.6" y="0">T</tspan><tspan class="cls-22" x="96.8" y="0">iểu Học </tspan><tspan x="8.7" y="30">T</tspan><tspan class="cls-32" x="20.9" y="30">r</tspan><tspan class="cls-22" x="29.1" y="30">ần H</tspan><tspan class="cls-33" x="80.5" y="30">ư</tspan><tspan class="cls-28" x="95.3" y="30">n</tspan><tspan class="cls-22" x="110.4" y="30">g Đ</tspan><tspan class="cls-28" x="149.4" y="30">ạ</tspan><tspan class="cls-22" x="162.5" y="30">o</tspan></text></svg>