<svg id="Layer_8" data-name="Layer 8" xmlns="http://www.w3.org/2000/svg" xmlns:xlink="http://www.w3.org/1999/xlink" viewBox="0 0 1920 944"><defs><style>.cls-1,.cls-6{fill:url(#radial-gradient);}.cls-1,.cls-2,.cls-3,.cls-4{clip-rule:evenodd;}.cls-11,.cls-2,.cls-9{fill:url(#radial-gradient-2);}.cls-12,.cls-14,.cls-3{fill:url(#radial-gradient-3);}.cls-15,.cls-4{fill:url(#radial-gradient-4);}.cls-5{fill:#f8f6f1;}.cls-12,.cls-15,.cls-6,.cls-9{fill-rule:evenodd;}.cls-7{clip-path:url(#clip-path);}.cls-11,.cls-14,.cls-17,.cls-8{opacity:0.1;}.cls-8{fill:url(#radial-gradient-6);}.cls-10{clip-path:url(#clip-path-2);}.cls-13{clip-path:url(#clip-path-3);}.cls-16{clip-path:url(#clip-path-4);}.cls-17{fill:url(#radial-gradient-12);}.cls-18,.cls-19{font-size:21px;}.cls-18{fill:#A49C87;letter-spacing:0.05em;}.cls-18,.cls-20{font-family:Campton-Medium, Campton;font-weight:500;}.cls-19{fill:#033348;font-family:Campton-Light, Campton;font-weight:300;letter-spacing:0.02em;}.cls-20{font-size:24px;fill:#ccc09c;}</style><radialGradient id="radial-gradient" cx="913.44" cy="345.51" r="89.07" gradientUnits="userSpaceOnUse"><stop offset="0" stop-color="#fff"/><stop offset="0.86" stop-color="#A49C87"/></radialGradient><radialGradient id="radial-gradient-2" cx="896.56" cy="320.05" r="71.1" xlink:href="#radial-gradient"/><radialGradient id="radial-gradient-3" cx="826.9" cy="398.44" r="17.51" xlink:href="#radial-gradient"/><radialGradient id="radial-gradient-4" cx="957.07" cy="252.54" r="25.97" xlink:href="#radial-gradient"/><clipPath id="clip-path"><path id="SVGID" class="cls-1" d="M928.9,380.7v.6h.8v-.6Zm0-9.4v9.1h.8v-9.1Zm0-.6.8.3v-.3Zm-19.2-13.2-.3.6.3.3.9.3v-.3l.3-.6-.3-.3Zm-5.1,0v1.2h.3l.2.3v-.3h.6v-1.2Zm-17.8-10-.5.3-.3.3-.6.3-.3.5-.3,1.8-5.7.2v14.4h35.5V350.9h-14v-.5h-.3v-1.7l-.9-.9-.5-.3h-2.6l-.6.3-.3.3-.6.3-.2.5-.3,1.8-3.5.2v-2.2l-.8-.9-.6-.3ZM902,336.4l.3.2v-.2Zm-10.9,0,.6.2v-.2Zm22.1-7.5.2.3v-.3Zm-29.8,0v.6l.3-.6Zm-.3-1.4.3.3v-.3Zm0-1.2v.9l.3-.9Zm30.1-1.1.2.3v-.3Zm-6.9-6.6.3.3v-.3Zm-.9-.3.3.3v-.3Zm-4,0,.3.3v-.3Zm-6.6,0,.3.3v-.3Zm-3.1-.8-2.3.3-.3.3.9.8v-.3h.6l-.6.3-.6.6-2.6.3-1.1.5-.6.6-.3.6-.3,2.3-.2.3-.6.2v-.2l-.3-.3h-.6l-.3.3.3.2-.3,1.5v3.1h.3v.6h.3l-.3.6-.3.3.3.2.6.3v-.3l.3-.8h.3v.6h.5l.3.2v2.6h.3v.6h.3v.6h.6l.8.2,2.6.3.9.9.5.3-.8.3v-.3h-.3l-.6.3.3.2v.6l.6-.3h1.7l1.4.3,1.2.3v-.3l.8-.3h1.2l.3.3v-.3l.3-.5-.3-.3h-.9l-.6.3-.8.2v-.2l.8-.3.6-.3.6-.6h4l.6.6.5.3-.5.3v-.3h-.6l-.3.3v.8l.9-.3h1.4l2.8.6v-.3l.6-.3h1.2l.2.3v-.3l.3-.5-.3-.3h-.8l-.6.3-.8.2v-.2l.8-.3.6-.3.6-.6,2.5-.3.3-.3.9-.2.6-.3.2-.6.3-2.6.3-.3.6-.2h.3l.8.8v-.3l.3-.5-.3-.3.3-1.5.3-2.5H914v-1.2l-.3-.3.3-.8h-.8l-.3.3.3.2-.3.6v-.3l-.6-.5h-.6v-2.9h-.3v-.6l-.2-.3-1.2-.5h-2.9v-.6h-.2v-.6l.2-.3.3-.5-2.3-.3h-2.8l-2.3.3-.3.3.6.2.8.3-.5.3-.3.6-3.7.3v-.3l-.9-.9h.3l.3.3v-.3l.6-.5-.3-.3-2-.3ZM909.4,256l-.8.3-3.5,3.4-.8,2.6-.6.5-.3.6v1.2h.3l2.6,2.5-24.3.3-.3.3-.6.3-.3.3-.3.5-.8.9v1.4l-.9-.3h-7.1l-.9.9-.6.3-.5,1.7-.3.6-.6,3.4v21.2h.3v2h.3v1.4h.3v.6h.3v.8h.2v.9h.3l.6.6,1.1.5,6.1.3v-.3l.5-.2h.9v1.4h.3v.6h.3v.5h.5l.3.3.6.3.3.3.8.3,26.9.3,7.7.3v-.3l1.8-.6,1.1-.6.6-.5.6-1.8.2-2h4.9V276.9h-4.9v-6.3h-.2v-.9h-.3v-.9l-.6-.5-.6-.3-.3-.3-.5-.3-2.3-.3.8-.8.6-1.2.3-2h-.3v-.8H918v-.6h-.3v-.6l-.3-.3h-.2v-.5l-.3-.3h-.3v-.6l-1.4-1.4-.6-.3-.6-.6-1.7-.8-.9-.3Zm17.8-16.6-.6.3-.6.3-.8.2-1.2.6-.8.3-.6.3-.9.3-1.1.5-.9.3-1.1.6-.9.3-.5.3-.9.3-1.1.5-.9.3-1.1.6-.9.3-.6.3-.8.2-1.2.6-.8.3-1.2.6-.8.3-.6.2-.9.3-1.1.6-.9.3-1.1.6-.9.2-.5.3-.9.3-1.1.6-.9.3-1.1.6-.9.2-1.2.6-.8.3-.6.3-.8.3-1.2.5-.8.3-1.2.6-.8.3-.6.3-.9.3-1.1.5-.9.3-1.1.6-.9.3-.6.3-.8.2-1.2.6-.8.3-1.2.6-.8.3-.6.2-.8.3-1.2.6-.8.3-1.2.6-.9.3-.5.2-.9.3-1.1.6-.9.3-1.1.6-.9.2-.6.3-.8.3v76.4H847.9v.9h-.8v14.8h.8v59.8h-1.4v34.9l18.3-.3.3-70.6H870v12.8h13.4V381.3h44.1V366.7h3.4v1.4h-2v2.3H930v11.2h-1.1v2.2h20.9v8.6l4.3-.3.3-8.8.2-.6.3-.9.6-.5.6-.3h2.3l.5.3,1.2,1.1v.6h.3v9.4h4.5v-5.1h7.5v-.9h-6.6V385h6.6v-.6h-.3v-.6l-.3-.2.3-.3h1.1l.3.3-.3.5-.3.3v.6h6.6v1.4h-6.6v.9h7.5V373h-.6v-1.2h.6v-3.7H945.8v-1.4h2.5v-.9h1.8v.9h19.1v-22H950.1v7.7h-1.8V341.8h-2.5v-.6H930.9v.6h-3.4V277.7l.2-38.3Zm1.4-.6-.6.3,1.2.3v-.6Z"/></clipPath><radialGradient id="radial-gradient-6" cx="913.44" cy="345.51" r="89.07" xlink:href="#radial-gradient"/><clipPath id="clip-path-2"><path id="SVGID-2" data-name="SVGID" class="cls-2" d="M814.7,328.3l-.2.3-.6.3-.3.3-.6,1.2v1.4h.3v1.4h.3l.9.9.5.3,1.7.5v-.3l.9-.2.6-.3,1.1-1.2.3-2.8h-.3v-.6l-.5-.6-.6-.3-.3-.3Zm161.4-8.2-.3.2-.9.9-.2.9v1.7h.2v.5h.3l.3.3v.6h.6l.6.3,1.7.3v-.3l1.1-.6.3-.3.3-.5.3-2.6-1.4-1.4ZM813.3,296.3l-.3.6v30h.3l5.5.3,27.7.3v-.3l.6-.3.3-30-.6-.6Zm133.3-2.9-.3.3-.2,24.6.5.6,33.2.3v-.3h.6V293.7l-.3-.3ZM815,288.9l-.5.3-.9.8-.6,1.2v1.1h.3v1.4h.3v.6h.6l.5.6,1.2.3,1.7.2v-.2l.6-.6.6-.3.2-.3.3-.6.3-2.8-1.4-1.4-.6-.3Zm161.1-2-.3.3-.9.8-.2.6v2h.2v.6h.3l.9.8.6.3,1.7.3v-.3l.6-.3,1.1-1.1.3-2.6-1.4-1.4Zm-42.1-6v38.6h-4.8v20.9h1.7v.8h14.9v-.8h2.5v-8h1.8v10.8l.2-10.8h31.2V281.1l-.5-.2Zm-82.3-8.3-.3.2-.3.3-.3.6-.3.3-.3.6-.6.5-.2.6-.3.3-.3.6-.6.5-.3.9-.3,1.7-.5.6v2h.5l.3.3.6.3.3.2.6.3.2.3.6.3.3.3.6.3.3.3.5.3.3.2.6.3.3.3.6.3.5.6,1.7.5v-.2l1.2-1.2.6-.3.5-.5.9-.3.3-.3.3-.6.2-.3.3-.6.3-.2.3-.6.3-.3.3-.6.3-.3.2-3.4-.2-.3h-.3v-.5l-2-2-1.2-.6-.5-.6-1.2-.6-.8-.3-.6-.2Zm11.4-6.3-.6.3-.8.2-1.2.6-.8.3-1.2.6-.8.3-1.2.5-.8.3-1.2.6-.8.3-1.2.5-.8.3-.6.3-.9.3-1.1.6-.9.3-1.1.5-.9.3-1.1.6-.9.3-1.1.6-.9.2-1.1.6-.9.3-1.1.6-.9.3-.6.2-.8.3-1.2.6-.8.3-1.2.6-.8.2-1.2.6-.8.3-1.2.6-.8.3-1.2.5-.8.3-1.2.6-.8.3-.6.3-.9.2-1.1.6-.9.3-1.1.6-.9.3-1.1.5-.9.3-1.1.6-.9.3-1.1.6-.9.2-.6.3-.8.3-.3.9v51.5h10.9v33.4h15.7V358.4h8.3v-.9h.6V342.7h-.6v-2.3h17.2V266.3Z"/></clipPath><clipPath id="clip-path-3"><path id="SVGID-3" data-name="SVGID" class="cls-3" d="M814.5,417v1.5h22V417Zm-.9-39.4v4.5h9.2l.2.3.6.3.3.3v1.1h.3l-.3,2.9-.3.3-.6.3-.8.3-8.6.2v3.5h1.1l-1.1.3v9.7h1.1v.6h-1.1v1.7h6.3l-6.3.3v3.4h.6v.8h-.6v2.9h.9l.2.3v.6h-1.1v7.1h23.7V404.2l-6.5-.3h9.4V377.6h-18l-.3,1.1v-1.1Z"/></clipPath><clipPath id="clip-path-4"><path id="SVGID-4" data-name="SVGID" class="cls-4" d="M950.9,248.5l-.6.3-.5.3-.6.6-.6.3-1.7,1.7-.3.6-.5.5-.6,1.2-.3,1.4v2.9h.3v1.4h.3v.6h.3v.5h.2l.6.6v.6h.3l1.1,1.1.6.3.9.9,1.1.5,1.4.3,2.6.3v-.3l1.5-.3,1.7-.8,2.8-2.9.9-1.7.3-5.1h-.3v-.6h-.3v-.6h-.3v-.6l-3.1-3.1-1.7-.9Zm4.3-21.1-.6.2-.8.3-1.2.6-.8.3-1.2.6-.8.3-1.2.5-.8.3-1.2.6-.8.3-1.2.5-.8.3-1.2.6-.8.3-1.2.6-.8.2-1.2.6-.8.3-1.2.6-.8.3-1.2.5-.8.3-1.2.6-.8.3-.6.3-.9.2v39.8h51.5v-7.4l1.2-.6.2-2.3h.6v-.6l-.3-.2h-.3V266l-.2-.3h-.3v-.6l-.6-.5h-.3V264l-.3-.3h-.3v-.6l-.2-.3h-.3v-.5l-.6-.6h-.3v-.6l-.3-.3h-.3v-.5l-.2-.3h-.3v-.6l-.6-.6h-.3v-.5l-.3-.3h-.3v-.6l-.2-.3h-.3v-.6l-.6-.5h-.3v-.6l-.3-.3h-.3v-.6l-.3-.2h-.2v-.6l-.6-.6h-.3v-.6l-.3-.2h-.3v-.6l-.3-.3h-.2v-.6l-.6-.6h-.3v-.5l-.3-.3h-.3v-.6l-.3-.3h-.2V248l-.6-.6h-.3v-.6l-.3-.3h-.3V246l-.3-.3h-.2v-.6l-.6-.6h-.3V244l-.3-.3h-.3v-.6l-.3-.3h-.2v-.6l-.6-.5h-.3v-.6l-.3-.3h-.3v-.6l-.3-.2h-.2v-.6l-.6-.6h-.3v-.6l-.3-.3h-.3v-.5l-.3-.3h-.3v-.6l-.5-.6h-.3v-.5l-.3-.3h-.3v-.6l-.3-.3h-.3v-.5l-.5-.6h-.3v-.6l-.3-.3h-.3v-.5l-.3-.3h-.3v-.6l-.5-.6h-.3v-.5l-.3-.3h-.3v-.6l-.3-.3h-.3v-.6l-.5-.5Z"/></clipPath><radialGradient id="radial-gradient-12" cx="957.07" cy="252.54" r="25.97" xlink:href="#radial-gradient"/></defs><title>floorplansB</title><rect class="cls-5" x="822" y="81" width="165" height="99"/><path id="SVGID-5" data-name="SVGID" class="cls-6" d="M928.9,380.7v.6h.8v-.6Zm0-9.4v9.1h.8v-9.1Zm0-.6.8.3v-.3Zm-19.2-13.2-.3.6.3.3.9.3v-.3l.3-.6-.3-.3Zm-5.1,0v1.2h.3l.2.3v-.3h.6v-1.2Zm-17.8-10-.5.3-.3.3-.6.3-.3.5-.3,1.8-5.7.2v14.4h35.5V350.9h-14v-.5h-.3v-1.7l-.9-.9-.5-.3h-2.6l-.6.3-.3.3-.6.3-.2.5-.3,1.8-3.5.2v-2.2l-.8-.9-.6-.3ZM902,336.4l.3.2v-.2Zm-10.9,0,.6.2v-.2Zm22.1-7.5.2.3v-.3Zm-29.8,0v.6l.3-.6Zm-.3-1.4.3.3v-.3Zm0-1.2v.9l.3-.9Zm30.1-1.1.2.3v-.3Zm-6.9-6.6.3.3v-.3Zm-.9-.3.3.3v-.3Zm-4,0,.3.3v-.3Zm-6.6,0,.3.3v-.3Zm-3.1-.8-2.3.3-.3.3.9.8v-.3h.6l-.6.3-.6.6-2.6.3-1.1.5-.6.6-.3.6-.3,2.3-.2.3-.6.2v-.2l-.3-.3h-.6l-.3.3.3.2-.3,1.5v3.1h.3v.6h.3l-.3.6-.3.3.3.2.6.3v-.3l.3-.8h.3v.6h.5l.3.2v2.6h.3v.6h.3v.6h.6l.8.2,2.6.3.9.9.5.3-.8.3v-.3h-.3l-.6.3.3.2v.6l.6-.3h1.7l1.4.3,1.2.3v-.3l.8-.3h1.2l.3.3v-.3l.3-.5-.3-.3h-.9l-.6.3-.8.2v-.2l.8-.3.6-.3.6-.6h4l.6.6.5.3-.5.3v-.3h-.6l-.3.3v.8l.9-.3h1.4l2.8.6v-.3l.6-.3h1.2l.2.3v-.3l.3-.5-.3-.3h-.8l-.6.3-.8.2v-.2l.8-.3.6-.3.6-.6,2.5-.3.3-.3.9-.2.6-.3.2-.6.3-2.6.3-.3.6-.2h.3l.8.8v-.3l.3-.5-.3-.3.3-1.5.3-2.5H914v-1.2l-.3-.3.3-.8h-.8l-.3.3.3.2-.3.6v-.3l-.6-.5h-.6v-2.9h-.3v-.6l-.2-.3-1.2-.5h-2.9v-.6h-.2v-.6l.2-.3.3-.5-2.3-.3h-2.8l-2.3.3-.3.3.6.2.8.3-.5.3-.3.6-3.7.3v-.3l-.9-.9h.3l.3.3v-.3l.6-.5-.3-.3-2-.3ZM909.4,256l-.8.3-3.5,3.4-.8,2.6-.6.5-.3.6v1.2h.3l2.6,2.5-24.3.3-.3.3-.6.3-.3.3-.3.5-.8.9v1.4l-.9-.3h-7.1l-.9.9-.6.3-.5,1.7-.3.6-.6,3.4v21.2h.3v2h.3v1.4h.3v.6h.3v.8h.2v.9h.3l.6.6,1.1.5,6.1.3v-.3l.5-.2h.9v1.4h.3v.6h.3v.5h.5l.3.3.6.3.3.3.8.3,26.9.3,7.7.3v-.3l1.8-.6,1.1-.6.6-.5.6-1.8.2-2h4.9V276.9h-4.9v-6.3h-.2v-.9h-.3v-.9l-.6-.5-.6-.3-.3-.3-.5-.3-2.3-.3.8-.8.6-1.2.3-2h-.3v-.8H918v-.6h-.3v-.6l-.3-.3h-.2v-.5l-.3-.3h-.3v-.6l-1.4-1.4-.6-.3-.6-.6-1.7-.8-.9-.3Zm17.8-16.6-.6.3-.6.3-.8.2-1.2.6-.8.3-.6.3-.9.3-1.1.5-.9.3-1.1.6-.9.3-.5.3-.9.3-1.1.5-.9.3-1.1.6-.9.3-.6.3-.8.2-1.2.6-.8.3-1.2.6-.8.3-.6.2-.9.3-1.1.6-.9.3-1.1.6-.9.2-.5.3-.9.3-1.1.6-.9.3-1.1.6-.9.2-1.2.6-.8.3-.6.3-.8.3-1.2.5-.8.3-1.2.6-.8.3-.6.3-.9.3-1.1.5-.9.3-1.1.6-.9.3-.6.3-.8.2-1.2.6-.8.3-1.2.6-.8.3-.6.2-.8.3-1.2.6-.8.3-1.2.6-.9.3-.5.2-.9.3-1.1.6-.9.3-1.1.6-.9.2-.6.3-.8.3v76.4H847.9v.9h-.8v14.8h.8v59.8h-1.4v34.9l18.3-.3.3-70.6H870v12.8h13.4V381.3h44.1V366.7h3.4v1.4h-2v2.3H930v11.2h-1.1v2.2h20.9v8.6l4.3-.3.3-8.8.2-.6.3-.9.6-.5.6-.3h2.3l.5.3,1.2,1.1v.6h.3v9.4h4.5v-5.1h7.5v-.9h-6.6V385h6.6v-.6h-.3v-.6l-.3-.2.3-.3h1.1l.3.3-.3.5-.3.3v.6h6.6v1.4h-6.6v.9h7.5V373h-.6v-1.2h.6v-3.7H945.8v-1.4h2.5v-.9h1.8v.9h19.1v-22H950.1v7.7h-1.8V341.8h-2.5v-.6H930.9v.6h-3.4V277.7l.2-38.3Zm1.4-.6-.6.3,1.2.3v-.6Z"/><g class="cls-7"><rect class="cls-8" x="846.5" y="238.8" width="133.9" height="213.41"/></g><path id="SVGID-6" data-name="SVGID" class="cls-9" d="M814.7,328.3l-.2.3-.6.3-.3.3-.6,1.2v1.4h.3v1.4h.3l.9.9.5.3,1.7.5v-.3l.9-.2.6-.3,1.1-1.2.3-2.8h-.3v-.6l-.5-.6-.6-.3-.3-.3Zm161.4-8.2-.3.2-.9.9-.2.9v1.7h.2v.5h.3l.3.3v.6h.6l.6.3,1.7.3v-.3l1.1-.6.3-.3.3-.5.3-2.6-1.4-1.4ZM813.3,296.3l-.3.6v30h.3l5.5.3,27.7.3v-.3l.6-.3.3-30-.6-.6Zm133.3-2.9-.3.3-.2,24.6.5.6,33.2.3v-.3h.6V293.7l-.3-.3ZM815,288.9l-.5.3-.9.8-.6,1.2v1.1h.3v1.4h.3v.6h.6l.5.6,1.2.3,1.7.2v-.2l.6-.6.6-.3.2-.3.3-.6.3-2.8-1.4-1.4-.6-.3Zm161.1-2-.3.3-.9.8-.2.6v2h.2v.6h.3l.9.8.6.3,1.7.3v-.3l.6-.3,1.1-1.1.3-2.6-1.4-1.4Zm-42.1-6v38.6h-4.8v20.9h1.7v.8h14.9v-.8h2.5v-8h1.8v10.8l.2-10.8h31.2V281.1l-.5-.2Zm-82.3-8.3-.3.2-.3.3-.3.6-.3.3-.3.6-.6.5-.2.6-.3.3-.3.6-.6.5-.3.9-.3,1.7-.5.6v2h.5l.3.3.6.3.3.2.6.3.2.3.6.3.3.3.6.3.3.3.5.3.3.2.6.3.3.3.6.3.5.6,1.7.5v-.2l1.2-1.2.6-.3.5-.5.9-.3.3-.3.3-.6.2-.3.3-.6.3-.2.3-.6.3-.3.3-.6.3-.3.2-3.4-.2-.3h-.3v-.5l-2-2-1.2-.6-.5-.6-1.2-.6-.8-.3-.6-.2Zm11.4-6.3-.6.3-.8.2-1.2.6-.8.3-1.2.6-.8.3-1.2.5-.8.3-1.2.6-.8.3-1.2.5-.8.3-.6.3-.9.3-1.1.6-.9.3-1.1.5-.9.3-1.1.6-.9.3-1.1.6-.9.2-1.1.6-.9.3-1.1.6-.9.3-.6.2-.8.3-1.2.6-.8.3-1.2.6-.8.2-1.2.6-.8.3-1.2.6-.8.3-1.2.5-.8.3-1.2.6-.8.3-.6.3-.9.2-1.1.6-.9.3-1.1.6-.9.3-1.1.5-.9.3-1.1.6-.9.3-1.1.6-.9.2-.6.3-.8.3-.3.9v51.5h10.9v33.4h15.7V358.4h8.3v-.9h.6V342.7h-.6v-2.3h17.2V266.3Z"/><g class="cls-10"><rect class="cls-11" x="811.6" y="266.3" width="169.9" height="107.56"/></g><path id="SVGID-7" data-name="SVGID" class="cls-12" d="M814.5,417v1.5h22V417Zm-.9-39.4v4.5h9.2l.2.3.6.3.3.3v1.1h.3l-.3,2.9-.3.3-.6.3-.8.3-8.6.2v3.5h1.1l-1.1.3v9.7h1.1v.6h-1.1v1.7h6.3l-6.3.3v3.4h.6v.8h-.6v2.9h.9l.2.3v.6h-1.1v7.1h23.7V404.2l-6.5-.3h9.4V377.6h-18l-.3,1.1v-1.1Z"/><g class="cls-13"><rect class="cls-14" x="813.6" y="377.6" width="26.6" height="41.77"/></g><path id="SVGID-8" data-name="SVGID" class="cls-15" d="M950.9,248.5l-.6.3-.5.3-.6.6-.6.3-1.7,1.7-.3.6-.5.5-.6,1.2-.3,1.4v2.9h.3v1.4h.3v.6h.3v.5h.2l.6.6v.6h.3l1.1,1.1.6.3.9.9,1.1.5,1.4.3,2.6.3v-.3l1.5-.3,1.7-.8,2.8-2.9.9-1.7.3-5.1h-.3v-.6h-.3v-.6h-.3v-.6l-3.1-3.1-1.7-.9Zm4.3-21.1-.6.2-.8.3-1.2.6-.8.3-1.2.6-.8.3-1.2.5-.8.3-1.2.6-.8.3-1.2.5-.8.3-1.2.6-.8.3-1.2.6-.8.2-1.2.6-.8.3-1.2.6-.8.3-1.2.5-.8.3-1.2.6-.8.3-.6.3-.9.2v39.8h51.5v-7.4l1.2-.6.2-2.3h.6v-.6l-.3-.2h-.3V266l-.2-.3h-.3v-.6l-.6-.5h-.3V264l-.3-.3h-.3v-.6l-.2-.3h-.3v-.5l-.6-.6h-.3v-.6l-.3-.3h-.3v-.5l-.2-.3h-.3v-.6l-.6-.6h-.3v-.5l-.3-.3h-.3v-.6l-.2-.3h-.3v-.6l-.6-.5h-.3v-.6l-.3-.3h-.3v-.6l-.3-.2h-.2v-.6l-.6-.6h-.3v-.6l-.3-.2h-.3v-.6l-.3-.3h-.2v-.6l-.6-.6h-.3v-.5l-.3-.3h-.3v-.6l-.3-.3h-.2V248l-.6-.6h-.3v-.6l-.3-.3h-.3V246l-.3-.3h-.2v-.6l-.6-.6h-.3V244l-.3-.3h-.3v-.6l-.3-.3h-.2v-.6l-.6-.5h-.3v-.6l-.3-.3h-.3v-.6l-.3-.2h-.2v-.6l-.6-.6h-.3v-.6l-.3-.3h-.3v-.5l-.3-.3h-.3v-.6l-.5-.6h-.3v-.5l-.3-.3h-.3v-.6l-.3-.3h-.3v-.5l-.5-.6h-.3v-.6l-.3-.3h-.3v-.5l-.3-.3h-.3v-.6l-.5-.6h-.3v-.5l-.3-.3h-.3v-.6l-.3-.3h-.3v-.6l-.5-.5Z"/><g class="cls-16"><rect class="cls-17" x="930.3" y="227.4" width="53.5" height="50.35"/></g><text class="cls-18" transform="translate(859.2 109.2)">TYPE B</text><text class="cls-19" transform="translate(838.9 136.3)">2-Bedroom</text><text class="cls-20" transform="translate(897.7 174.3)">6</text></svg>