<svg id="Layer_13" data-name="Layer 13" xmlns="http://www.w3.org/2000/svg" xmlns:xlink="http://www.w3.org/1999/xlink" viewBox="0 0 1920 944"><defs><style>.cls-1,.cls-6{fill:url(#radial-gradient);}.cls-1,.cls-2,.cls-3,.cls-4{clip-rule:evenodd;}.cls-11,.cls-2,.cls-9{fill:url(#radial-gradient-2);}.cls-12,.cls-14,.cls-3{fill:url(#radial-gradient-3);}.cls-15,.cls-17,.cls-4{fill:url(#radial-gradient-4);}.cls-5{fill:#f8f6f1;}.cls-12,.cls-15,.cls-6,.cls-9{fill-rule:evenodd;}.cls-7{clip-path:url(#clip-path);}.cls-11,.cls-14,.cls-17,.cls-8{opacity:0.1;}.cls-8{fill:url(#radial-gradient-6);}.cls-10{clip-path:url(#clip-path-2);}.cls-13{clip-path:url(#clip-path-3);}.cls-16{clip-path:url(#clip-path-4);}.cls-18,.cls-19{font-size:21px;}.cls-18{fill:#A49C87;letter-spacing:0.05em;}.cls-18,.cls-20{font-family:Campton-Medium, Campton;font-weight:500;}.cls-19{fill:#033348;font-family:Campton-Light, Campton;font-weight:300;letter-spacing:0.02em;}.cls-20{font-size:24px;fill:#ccc09c;}</style><radialGradient id="radial-gradient" cx="913.44" cy="598.83" r="89.16" gradientUnits="userSpaceOnUse"><stop offset="0" stop-color="#fff"/><stop offset="0.86" stop-color="#A49C87"/></radialGradient><radialGradient id="radial-gradient-2" cx="896.56" cy="624.3" r="71.05" xlink:href="#radial-gradient"/><radialGradient id="radial-gradient-3" cx="824.9" cy="547.91" r="17.59" xlink:href="#radial-gradient"/><radialGradient id="radial-gradient-4" cx="956.93" cy="691.67" r="25.76" xlink:href="#radial-gradient"/><clipPath id="clip-path"><path id="SVGID" class="cls-1" d="M928.9,705.4l.3.3v-.3Zm-46.1-70.7-.8.3-.9.3-.8.9-.3.8-.3.3v1.4l-.6-.2-.3-.3h-6.6l-1.1.5-.9.9-.2.9-.6,1.1-.3,2-.3,1.7v21.2h.3v2h.3v1.4h.3v.6h.3v.9h.2v.5h.3l.3.3v.6h.6l.8.3,6.3.3v-.3l.3-.3h.6l.3.3v1.1h.3v.6h.3v.6h.2l.3.2,1.2.6.8.3,23.5.3-2.9,2.9v1.1h.3l.6.6v.5h.3v.9h.3v.9h.2v.8h.3l3.2,3.2,1.7.2,1.1.3v-.3l.9-.2,1.1-.6.3-.3.6-.3,2-2,.3-.6.6-.5.2-.6.3-.3.3-.6.3-.8.3-2h-.3v-.6H918v-.6l-1.1-1.1,1.4-.3,1.7-.6.9-.8.6-1.7.2-6.1h4.9V640.5h-4.9v-2.3h-.2v-.9h-.3v-.8l-.9-.9-1.1-.6-.9-.3Zm19.5-8.8,1.4.3v-.3Zm-10.6,0,1.7.3v-.3Zm10-.3.3.3v-.3Zm-10.9,0,.3.3v-.3Zm22.4-7.2.2.3v-.3ZM883.1,617l.3.3V617Zm0-1.4v1.1l.3-1.1Zm22.3-8,.3.2v-.2Zm-3.7,0,.6.2v-.2Zm-7.4,0,.5.2v-.2Zm-4.9-.6-.3.3.9.8v-.3l.8-.2h.9l-1.7.5-.3.6-.3.3-3.4.3-.3.5-.6.3-.3.9-.3,2.3-.2.3-.6.3v-.6l-.3-.3h-.6l-.3.3.3.3-.3,1.7v2.8h.3v.6h.3l-.3.9-.3.3.3.2.6.3v-.3l.3-1.1h-.3v-.9h.3v.9h.3v.9h.5l.3.2v2h.3v1.2h.3l.6.6.6.3,3.1.2.6.6-.3.6v-.3h-.3l-.6.6.3.3,2.3.2,1.4.3.3.3v-.3l.9-.3h2l.3.3v-.3l.3-.8-.3-.3H896l-.3.3v-.3l.9-.9h3.7l.6.6-.9.9v.5h2.3l1.4.3.3.3v-.3l.9-.3h2l.2.3v-.3l.3-.8-.3-.3h-.2l-.6.3v-.3l.8-.9,2.6-.2.9-.3.6-.3.2-.6.3-2.9.3-.2.6-.3.3-.3h.3l-.3.3.5.5v.6l.3-.3.3-.5-.3-.3.3-1.5.3-2.5H914v-1.5l-.3-.2.3-.9h-.8l-.3.3v.6h.3l-.3.2v-.2l-.6-.6h-.6v-2.9l-1.1-1.1h-3.5v-.6l-.2-.3-.6-.3-.3-.3h.6l.5.3v-.3l.3-.8h-.5l-.9.3V607h-4.3l-.8.3V607H900l-.3.3.9.8v-.3h.8l-.8.3-.3.9-3.7.3V609l-1.2-1.2h.6l.6.3v-.3l.3-.5-.3-.3H896l-.9.3V607h-4l-1.1.3V607Zm20.3-21.5-.3.3.3.3v.6l.9-.3.3-.9Zm-5.1,0v1.2h1.1v-1.2ZM879.1,579v14.5h5.7v.6h.3v1.2h.3v.5h.3l1.1.6,1.2.3.6.3v-.3l1.1-.6.3-.3.6-.3.2-2h3.5v.6h.3v1.2h.5l.9.8,1.1.6.9.3v-.3l1.1-.6.6-.6h.6v-2h14.3V579Zm49.8-14.9v9.7h.8v-9.7Zm43.5-6.9v.9h-6.6v1.4h6.6l-.6.6v.5h.3l1.1.3v-.3l.3-.8-.6-.3h6.6v-1.4h-6.6v-.9ZM847.6,492l-1.1.3v34.6h1.4V587h-.8v14.8h.8v.9h17.5v76.1h.8l1.2.6.8.3,1.2.5.8.3,1.2.6.8.3,1.2.5.9.3,1.1.6.9.3,1.1.6.9.2,1.1.6.9.3,1.1.6.9.3,1.1.5.9.3.5.3.9.3v-.3h1.4l-.3.9.9.2.6.3.8.3,1.2.6.8.3.6.3.9.3,1.1.5.9.3.5.3.9.3,1.1.6.9.2.6.3.8.3,1.2.6.8.3.6.3.9.2,1.1.6.9.3.5.3.9.3.6.3.8.2V696h1.2l-.3.8.8.3.6.3.9.3,1.1.5.9.3.5.3.9.3,1.1.6.9.3.6.2.8.3,1.2.6.8.3.6.3.9.3,1.1.5.9.3.5.3.9.3,1.1.6.9.3,1.1.5v-38h-.2V602.7h3.4l14.9.3v-.3h2.5V591.8h1.8v7.7h19.1v-22H950.1v1.2h-1.8v-1.2h-2.5v-1.4h34.6v-3.7h-.6v-.9h.6V556.9H964.9v-4.8h-4.5l-.3,9.1-1.7,1.7-2.3.3v-.3l-.9-.8h-.3v-.6h-.3v-1.1h-.2v-8.3h-4.6v8.3H928.9v3.1H930l-.3,10.3-.8.3v2h2v1.4h-3.4V562.9H883.4V550.6H870v12.3h-5.2V550.6h-.6V492Z"/></clipPath><radialGradient id="radial-gradient-6" cx="913.44" cy="598.83" r="89.16" xlink:href="#radial-gradient"/><clipPath id="clip-path-2"><path id="SVGID-2" data-name="SVGID" class="cls-2" d="M854.8,656.8l-.3.3-.6.2-.2.3-.6.3-.3.3-.6.3-.3.3-.5.3-.3.2-.6.3-.3.3-.6.3-.2.3-.6.3-.3.3-.6.2-.3.3-.5.3v1.2h.3v1.1h.2v.6h.3v1.4h.3v.9h.3l.6.5v.6h.3l.2.3v.6h.3l.3.3v.5h.3l.3.3v.6h.3l.3.3,1.1.3,1.7.2v-.2l1.5-.3.8-.3.6-.3.6-.6,1.7-.8.8-.9.3-.6.9-.8.3-.6.2-3.4-.2-.3h-.3v-.6l-.6-.6h-.3v-.5l-.3-.3h-.3v-.6l-1.1-1.1-1.7-.9-1.2-1.1Zm121.9-5.2-.6.3-.6.3-.6.6-.2.8v1.7h.2v.9h.3l.9.9.6.2,1.7.3v-.3l.6-.2.8-.9.3-.6.3-2.3h-.3v-.5l-.6-.6-1.1-.6ZM815,648.8l-.3.2-.2.3-.6.3-.6.6-.3.8v1.5h.3v1.1h.3l.3.3v.6h.3l.3.3.5.2,1.7.6v-.3l.9-.3.6-.2.8-.9.3-.6.3-2.8-1.4-1.5-.6-.2Zm131.3-23.5-.2,24.6.5.6,33.2.3v-.3l.3-.3.3-24.9Zm29.8-6.9-.3.3-.9.9-.2.8v1.7h.2v.9h.3l.3.3,1.2.6,1.7.3v-.3l.8-.3.6-.6.3-.6.3-2.5-1.4-1.5ZM813,617v30.3h.3v.6l33.2-.3.6-.3.3-30-.3-.3Zm1.7-7.4-.2.2-.9.9-.6,1.2V613h.3v1.4h.3l.9.9.5.3,1.7.5v-.2l.9-.3.6-.3,1.1-1.2.3-2.8-1.7-1.7Zm135.4-8.3v10.8h-1.8v-8h-2.5V603H930.9v1.1h-1.7V625H934l.3.3v38h47.2V612.1H950.3V601.3ZM822.5,570.7v33.4H811.6v51.2h.3l-.3.6.9.3.5.3.9.3,1.1.5.9.3,1.1.6.9.3,1.1.6.9.2.6.3.8.3,1.2.6.8.3,1.2.5.8.3.6.3.9.3v-.6h.5l.6.3-.3.9.9.3.6.2.8.3.6.3.8.3.6.3.9.3,1.1.5.9.3.5.3.9.3.6.3.8.3.6.3.9.2,1.1.6.9.3.5.3.9.3.6.3.8.3.6.2.9.3v-.3h.5l.6.3-.3.6.9.3.5.3.9.3,1.1.5.9.3,1.2.6.8.3,1.2.5.8.3,1.2.6.8.3,1.2.6.8.2,1.2.6.8.3,1.2.6.8.3,1.2.5V604.1H846.5v-2.3h.6V587h-.6v-.9h-8.3V570.7Z"/></clipPath><clipPath id="clip-path-3"><path id="SVGID-3" data-name="SVGID" class="cls-3" d="M812.5,528v1.5h22V528Zm-.9-1.1V534h.6l.5.3v.6h-1.1v2.9h.6v1.1h-.6v5.4h1.1l-1.1.3v10h1.1l-1.1.3v3.5H821l.6.2.3.3v1.2h.3l-.3,2.8-.3.3-1.1.6-8.9.3v4.8h8.3v-1.1h.3v1.1h18V542.6h-2.9V526.9Z"/></clipPath><clipPath id="clip-path-4"><path id="SVGID-4" data-name="SVGID" class="cls-4" d="M950.9,679.1l-.6.3-.5.3-.3.2-1.2.6-.2.6-1.2,1.1-.3.6-.5.6-.6,1.1-.3,1.4v2.9h.3V690h.3v.5h.3v.6h.2l.3.3v.6h.3v.5h.3l1.1,1.2.6.3.9.8,1.1.3,1.4.3,3.5.3v-.3l1.7-.6.6-.3,2.8-2.8.6-1.2.3-.8.3-4.9h-.3v-.6h-.3v-.5h-.3v-.6l-.6-.6h-.2v-.6l-1.8-1.7-2.2-1.1Zm-20.6-12.3v38.6h.3l-.3.6.9.3.6.2.8.3.6.3.8.3,1.2.6.8.3.6.2.9.3,1.1.6.9.3.5.3.9.3,1.2.5.8.3.6.3.8.3,1.2.6.8.3.6.2.9.3,1.1.6.9.3.5.3.9.3,1.1.5.9.3.6.3.8.3.6.3.9.3v-.3l.3-.3.2-.6.3-.3.3-.5.6-.6.3-.6.3-.3.2-.5.3-.3.3-.6.6-.6.3-.6.3-.2.2-.6.3-.3.3-.6.6-.5.3-.6.3-.3.2-.6.6-.5.3-.6.3-.3.3-.6.3-.3.3-.5.5-.6.3-.6.3-.3.3-.5.3-.3.3-.6.5-.6.3-.5.3-.3.3-.6.3-.3.3-.6.5-.5.3-.6.3-.3.3-.6.6-.5.2-.6.3-.3.3-.6.3-.2.3-.6.6-.6.2-.6.3-.2.3-.6.3-.3.3-.6.6-.5.2-.6.3-.3.3-.6.3-.3.3-.5.6-.6.3-.6.2-.3.3-.5.6-.6.3-.6.3-.3.3-.5.2-.3.3-.6.6-.6.3-.5.3-.3.3-.6.2-.3.3-.6.6-.5.3-.6.3-.3.3-.6.2-.3.3-.5-.3-.3h-1.7v-10Z"/></clipPath></defs><title>floorplansG</title><rect class="cls-5" x="820" y="747" width="165" height="99"/><path id="SVGID-5" data-name="SVGID" class="cls-6" d="M928.9,705.4l.3.3v-.3Zm-46.1-70.7-.8.3-.9.3-.8.9-.3.8-.3.3v1.4l-.6-.2-.3-.3h-6.6l-1.1.5-.9.9-.2.9-.6,1.1-.3,2-.3,1.7v21.2h.3v2h.3v1.4h.3v.6h.3v.9h.2v.5h.3l.3.3v.6h.6l.8.3,6.3.3v-.3l.3-.3h.6l.3.3v1.1h.3v.6h.3v.6h.2l.3.2,1.2.6.8.3,23.5.3-2.9,2.9v1.1h.3l.6.6v.5h.3v.9h.3v.9h.2v.8h.3l3.2,3.2,1.7.2,1.1.3v-.3l.9-.2,1.1-.6.3-.3.6-.3,2-2,.3-.6.6-.5.2-.6.3-.3.3-.6.3-.8.3-2h-.3v-.6H918v-.6l-1.1-1.1,1.4-.3,1.7-.6.9-.8.6-1.7.2-6.1h4.9V640.5h-4.9v-2.3h-.2v-.9h-.3v-.8l-.9-.9-1.1-.6-.9-.3Zm19.5-8.8,1.4.3v-.3Zm-10.6,0,1.7.3v-.3Zm10-.3.3.3v-.3Zm-10.9,0,.3.3v-.3Zm22.4-7.2.2.3v-.3ZM883.1,617l.3.3V617Zm0-1.4v1.1l.3-1.1Zm22.3-8,.3.2v-.2Zm-3.7,0,.6.2v-.2Zm-7.4,0,.5.2v-.2Zm-4.9-.6-.3.3.9.8v-.3l.8-.2h.9l-1.7.5-.3.6-.3.3-3.4.3-.3.5-.6.3-.3.9-.3,2.3-.2.3-.6.3v-.6l-.3-.3h-.6l-.3.3.3.3-.3,1.7v2.8h.3v.6h.3l-.3.9-.3.3.3.2.6.3v-.3l.3-1.1h-.3v-.9h.3v.9h.3v.9h.5l.3.2v2h.3v1.2h.3l.6.6.6.3,3.1.2.6.6-.3.6v-.3h-.3l-.6.6.3.3,2.3.2,1.4.3.3.3v-.3l.9-.3h2l.3.3v-.3l.3-.8-.3-.3H896l-.3.3v-.3l.9-.9h3.7l.6.6-.9.9v.5h2.3l1.4.3.3.3v-.3l.9-.3h2l.2.3v-.3l.3-.8-.3-.3h-.2l-.6.3v-.3l.8-.9,2.6-.2.9-.3.6-.3.2-.6.3-2.9.3-.2.6-.3.3-.3h.3l-.3.3.5.5v.6l.3-.3.3-.5-.3-.3.3-1.5.3-2.5H914v-1.5l-.3-.2.3-.9h-.8l-.3.3v.6h.3l-.3.2v-.2l-.6-.6h-.6v-2.9l-1.1-1.1h-3.5v-.6l-.2-.3-.6-.3-.3-.3h.6l.5.3v-.3l.3-.8h-.5l-.9.3V607h-4.3l-.8.3V607H900l-.3.3.9.8v-.3h.8l-.8.3-.3.9-3.7.3V609l-1.2-1.2h.6l.6.3v-.3l.3-.5-.3-.3H896l-.9.3V607h-4l-1.1.3V607Zm20.3-21.5-.3.3.3.3v.6l.9-.3.3-.9Zm-5.1,0v1.2h1.1v-1.2ZM879.1,579v14.5h5.7v.6h.3v1.2h.3v.5h.3l1.1.6,1.2.3.6.3v-.3l1.1-.6.3-.3.6-.3.2-2h3.5v.6h.3v1.2h.5l.9.8,1.1.6.9.3v-.3l1.1-.6.6-.6h.6v-2h14.3V579Zm49.8-14.9v9.7h.8v-9.7Zm43.5-6.9v.9h-6.6v1.4h6.6l-.6.6v.5h.3l1.1.3v-.3l.3-.8-.6-.3h6.6v-1.4h-6.6v-.9ZM847.6,492l-1.1.3v34.6h1.4V587h-.8v14.8h.8v.9h17.5v76.1h.8l1.2.6.8.3,1.2.5.8.3,1.2.6.8.3,1.2.5.9.3,1.1.6.9.3,1.1.6.9.2,1.1.6.9.3,1.1.6.9.3,1.1.5.9.3.5.3.9.3v-.3h1.4l-.3.9.9.2.6.3.8.3,1.2.6.8.3.6.3.9.3,1.1.5.9.3.5.3.9.3,1.1.6.9.2.6.3.8.3,1.2.6.8.3.6.3.9.2,1.1.6.9.3.5.3.9.3.6.3.8.2V696h1.2l-.3.8.8.3.6.3.9.3,1.1.5.9.3.5.3.9.3,1.1.6.9.3.6.2.8.3,1.2.6.8.3.6.3.9.3,1.1.5.9.3.5.3.9.3,1.1.6.9.3,1.1.5v-38h-.2V602.7h3.4l14.9.3v-.3h2.5V591.8h1.8v7.7h19.1v-22H950.1v1.2h-1.8v-1.2h-2.5v-1.4h34.6v-3.7h-.6v-.9h.6V556.9H964.9v-4.8h-4.5l-.3,9.1-1.7,1.7-2.3.3v-.3l-.9-.8h-.3v-.6h-.3v-1.1h-.2v-8.3h-4.6v8.3H928.9v3.1H930l-.3,10.3-.8.3v2h2v1.4h-3.4V562.9H883.4V550.6H870v12.3h-5.2V550.6h-.6V492Z"/><g class="cls-7"><rect class="cls-8" x="846.5" y="492" width="133.9" height="213.7"/></g><path id="SVGID-6" data-name="SVGID" class="cls-9" d="M854.8,656.8l-.3.3-.6.2-.2.3-.6.3-.3.3-.6.3-.3.3-.5.3-.3.2-.6.3-.3.3-.6.3-.2.3-.6.3-.3.3-.6.2-.3.3-.5.3v1.2h.3v1.1h.2v.6h.3v1.4h.3v.9h.3l.6.5v.6h.3l.2.3v.6h.3l.3.3v.5h.3l.3.3v.6h.3l.3.3,1.1.3,1.7.2v-.2l1.5-.3.8-.3.6-.3.6-.6,1.7-.8.8-.9.3-.6.9-.8.3-.6.2-3.4-.2-.3h-.3v-.6l-.6-.6h-.3v-.5l-.3-.3h-.3v-.6l-1.1-1.1-1.7-.9-1.2-1.1Zm121.9-5.2-.6.3-.6.3-.6.6-.2.8v1.7h.2v.9h.3l.9.9.6.2,1.7.3v-.3l.6-.2.8-.9.3-.6.3-2.3h-.3v-.5l-.6-.6-1.1-.6ZM815,648.8l-.3.2-.2.3-.6.3-.6.6-.3.8v1.5h.3v1.1h.3l.3.3v.6h.3l.3.3.5.2,1.7.6v-.3l.9-.3.6-.2.8-.9.3-.6.3-2.8-1.4-1.5-.6-.2Zm131.3-23.5-.2,24.6.5.6,33.2.3v-.3l.3-.3.3-24.9Zm29.8-6.9-.3.3-.9.9-.2.8v1.7h.2v.9h.3l.3.3,1.2.6,1.7.3v-.3l.8-.3.6-.6.3-.6.3-2.5-1.4-1.5ZM813,617v30.3h.3v.6l33.2-.3.6-.3.3-30-.3-.3Zm1.7-7.4-.2.2-.9.9-.6,1.2V613h.3v1.4h.3l.9.9.5.3,1.7.5v-.2l.9-.3.6-.3,1.1-1.2.3-2.8-1.7-1.7Zm135.4-8.3v10.8h-1.8v-8h-2.5V603H930.9v1.1h-1.7V625H934l.3.3v38h47.2V612.1H950.3V601.3ZM822.5,570.7v33.4H811.6v51.2h.3l-.3.6.9.3.5.3.9.3,1.1.5.9.3,1.1.6.9.3,1.1.6.9.2.6.3.8.3,1.2.6.8.3,1.2.5.8.3.6.3.9.3v-.6h.5l.6.3-.3.9.9.3.6.2.8.3.6.3.8.3.6.3.9.3,1.1.5.9.3.5.3.9.3.6.3.8.3.6.3.9.2,1.1.6.9.3.5.3.9.3.6.3.8.3.6.2.9.3v-.3h.5l.6.3-.3.6.9.3.5.3.9.3,1.1.5.9.3,1.2.6.8.3,1.2.5.8.3,1.2.6.8.3,1.2.6.8.2,1.2.6.8.3,1.2.6.8.3,1.2.5V604.1H846.5v-2.3h.6V587h-.6v-.9h-8.3V570.7Z"/><g class="cls-10"><rect class="cls-11" x="811.6" y="570.7" width="169.9" height="107.28"/></g><path id="SVGID-7" data-name="SVGID" class="cls-12" d="M812.5,528v1.5h22V528Zm-.9-1.1V534h.6l.5.3v.6h-1.1v2.9h.6v1.1h-.6v5.4h1.1l-1.1.3v10h1.1l-1.1.3v3.5H821l.6.2.3.3v1.2h.3l-.3,2.8-.3.3-1.1.6-8.9.3v4.8h8.3v-1.1h.3v1.1h18V542.6h-2.9V526.9Z"/><g class="cls-13"><rect class="cls-14" x="811.6" y="526.9" width="26.6" height="42.05"/></g><path id="SVGID-8" data-name="SVGID" class="cls-15" d="M950.9,679.1l-.6.3-.5.3-.3.2-1.2.6-.2.6-1.2,1.1-.3.6-.5.6-.6,1.1-.3,1.4v2.9h.3V690h.3v.5h.3v.6h.2l.3.3v.6h.3v.5h.3l1.1,1.2.6.3.9.8,1.1.3,1.4.3,3.5.3v-.3l1.7-.6.6-.3,2.8-2.8.6-1.2.3-.8.3-4.9h-.3v-.6h-.3v-.5h-.3v-.6l-.6-.6h-.2v-.6l-1.8-1.7-2.2-1.1Zm-20.6-12.3v38.6h.3l-.3.6.9.3.6.2.8.3.6.3.8.3,1.2.6.8.3.6.2.9.3,1.1.6.9.3.5.3.9.3,1.2.5.8.3.6.3.8.3,1.2.6.8.3.6.2.9.3,1.1.6.9.3.5.3.9.3,1.1.5.9.3.6.3.8.3.6.3.9.3v-.3l.3-.3.2-.6.3-.3.3-.5.6-.6.3-.6.3-.3.2-.5.3-.3.3-.6.6-.6.3-.6.3-.2.2-.6.3-.3.3-.6.6-.5.3-.6.3-.3.2-.6.6-.5.3-.6.3-.3.3-.6.3-.3.3-.5.5-.6.3-.6.3-.3.3-.5.3-.3.3-.6.5-.6.3-.5.3-.3.3-.6.3-.3.3-.6.5-.5.3-.6.3-.3.3-.6.6-.5.2-.6.3-.3.3-.6.3-.2.3-.6.6-.6.2-.6.3-.2.3-.6.3-.3.3-.6.6-.5.2-.6.3-.3.3-.6.3-.3.3-.5.6-.6.3-.6.2-.3.3-.5.6-.6.3-.6.3-.3.3-.5.2-.3.3-.6.6-.6.3-.5.3-.3.3-.6.2-.3.3-.6.6-.5.3-.6.3-.3.3-.6.2-.3.3-.5-.3-.3h-1.7v-10Z"/><g class="cls-16"><rect class="cls-17" x="930.3" y="666.8" width="53.2" height="49.78"/></g><text class="cls-18" transform="translate(862.2 803.2)">TYPE B</text><text class="cls-19" transform="translate(841.9 830.3)">2-Bedroom</text><text class="cls-20" transform="translate(900.4 767.6)">3</text></svg>