<svg id="a" xmlns="http://www.w3.org/2000/svg" xmlns:xlink="http://www.w3.org/1999/xlink" viewBox="0 0 1920 944"><defs><style>.cls-1,.cls-5,.cls-7{fill:url(#radial-gradient);}.cls-1,.cls-2,.cls-3{clip-rule:evenodd;}.cls-10,.cls-2,.cls-8{fill:url(#radial-gradient-2);}.cls-11,.cls-3{fill:url(#radial-gradient-3);}.cls-4{fill:#f8f6f1;}.cls-11,.cls-5,.cls-8{fill-rule:evenodd;}.cls-6{clip-path:url(#clip-path);}.cls-10,.cls-13,.cls-7{opacity:0.5;}.cls-9{clip-path:url(#clip-path-2);}.cls-12{clip-path:url(#clip-path-3);}.cls-13{fill:url(#radial-gradient-9);}.cls-14{fill:url(#radial-gradient-10);}.cls-15,.cls-16{font-size:21px;}.cls-15{fill:#A49C87;letter-spacing:0.05em;}.cls-15,.cls-17{font-family:Campton-Medium, Campton;font-weight:500;}.cls-16{fill:#033348;font-family:Campton-Light, Campton;font-weight:300;letter-spacing:0.02em;}.cls-17{font-size:24px;fill:#ccc09c;}</style><radialGradient id="radial-gradient" cx="733.36" cy="374.98" r="72.83" gradientUnits="userSpaceOnUse"><stop offset="0" stop-color="#fff"/><stop offset="0.86" stop-color="#A49C87"/></radialGradient><radialGradient id="radial-gradient-2" cx="726.35" cy="355.39" r="88.39" xlink:href="#radial-gradient"/><radialGradient id="radial-gradient-3" cx="776.55" cy="270.56" r="29.32" xlink:href="#radial-gradient"/><clipPath id="clip-path"><path id="SVGID" class="cls-1" d="M707.9,442.5l-.6.3-.5.3-.6.5-.3.9v1.7h.3v.9h.3l.3.3v.5h.8l1.2.3.8.3v-.3l.6-.3,1.1-1.1.3-2.9-.8-.8-1.2-.6Zm-33.2,0-.8.3-.6.3-.3.5-.6,1.8.3.2v.6h.3v1.2h.6l.3.2.5.3.3.3,1.4.3v-.3l.9-.3,1.1-1.1.3-2.9-.8-.8-.6-.3-.9-.3Zm4.6-28.3v33.7h.3l.3.3,24.6.3v-.3l.2-.3.3-33.4-.3-.3ZM715,401.3v.9H662.4v1.1h.3v1.4h.3v1.5h.3v1.1h.3v1.4h.2v1.5h.3v1.4h.3v1.1h.3v1.5h.3v1.4h.3V417h.8v1.2h-.5l.2.3v1.1h.3V421h.3v1.2h.3v1.4h.3v1.2h.3v1.4h.3v1.4h.2v1.2h.3v1.4h.3v1.1h.3v1.5h.3v1.1h.3v1.4h.3v1.5h.8l-.3,1.4v1.4h.3v1.5h.3v1.4h.3v1.4h.3v1.5h.3v1.4h.3v1.4h.2v1.4h44.4V419.9h6.3V402.2h-7.5v-.9Zm83.3-56.9-.3.3-.6.2-.2.6-.3.3-.3.6v2h.3v.8h.3l.8.9.6.3,1.7.6v-.3l.9-.3.5-.3.9-.9.3-.5.3-2.6h-.3v-.6l-.6-.6-.6-.2-.3-.3Zm-28.9-32.1-.6.3v30.1h.3l.6.5,32,.3v-.3l1.2-.3.3-30.3-.3-.3Zm29.2-7.4-.6.3-1.1,1.1-.3.9v2h.3v.6h.3l.2.2v.6h.6l.3.3,1.1.3,1.8.3v-.3l.5-.6.6-.3.3-.3.3-.5.3-2.9-1.5-1.4-.5-.3Zm-48.7-4.6v38.4h-8l-.2,1.1v14.9h.2v1.1h38.4v42.4h16.3V356.1h7.7V300.3Z"/></clipPath><clipPath id="clip-path-2"><path id="SVGID-2" data-name="SVGID" class="cls-2" d="M763.4,400.7v27.8h1.1V400.7Zm-1.1-.8v29.4l7.1-.2.3-.9h.6v1.1h7.1v-9.1h.3v19.7h28v-4l-9.1-.3-.6-.5h-.3v-.9h-.3v-2l.3-1.4.6-.6h9.4v-4h-8.3V399.9H777.7l-.3,9.1v-9.1Zm-71.6-56.1-.5.3-.6.6-.6.2-.3,1.2-20.9.3v14.3h43.8V346.4h-7.1v-.9l-1.5-1.4-.8-.3h-2l-.6.3-.9.8-.2,1.2-3.8.3v-1.2l-1.1-1.1-.9-.3Zm-18.6-10.9.9.3v-.3Zm-3.1,0,.6.3v-.3Zm4-.3.6.3v-.3Zm6.9-7.7.2.3v-.3Zm-18.1,0v.6l.3-.6Zm-.2-1.4.2.3v-.3Zm18.3-2v.6l.2-.6Zm-18.1,0v.6l.3-.6Zm.3-6.3.3.3v-.3Zm17.8-.9.2.3v-.3Zm-18.1-.3v.9l.3-.9Zm-.2-1.1.2.3v-.3Zm18.3-2v.6l.2-.6Zm-18.1,0v.6l.3-.6Zm79.6-5.1v26.8h6.5V305.8ZM669,302.9l3.1.3v-.3Zm0-.6-1.7.3-.3.3.6.3.8.3v-.3h.3l-.3.3-.6.2-.5.6-2,.3-.9.3-.8.9-.3.5-.3,2.9-.6.6-.3.5v-.5l.3-.3-.3-.3h-.8l-.3.3.6.3-.3.8-.3.6v3.1h.3v.6h.3l-.3.6-.3.3.8.8v-.3l.6-.5h.6l.3.3-.3,4-.6.5-.3.6v-.9l.3-.2-.3-.3h-.8l-.3.3.6.2-.3.9-.3.6v3.1h.3v.6h.3l-.3.6-.3.2.3.3v.6l.5-.3.3-1.1h.3v.8h.9v3.2h.3v.6h.2l.3.2,1.2.6,2,.3.8.9.6.2-.9.3v-.3h-.2l-.6.3.3.3v.6l.5-.3H669l.6.3,2.5.3v-.3l.9-.3h1.1l.3.3v-.3l.3-.6-.3-.3-.5-.2.5-.6,2.9-.6.6-.6.2-.5.3-3.2.3-.3.6-.3h.3l.8.9v-.3l.3-.6-.3-.2.3-1.5.3-2.5h-.3v-1.2l-.3-.3.3-.8h-.8l-.3.3.3.2-.3.6v-.3l-.6-.5h-.6v-3.8l.3-.2.6-.3h.3l.8.8v-.3l.3-.5-.3-.3.3-1.5.3-2.5h-.3v-1.2l-.3-.3.3-1.1h-.6l-.5.6.3.3-.3.5V310l-.6-.5h-.6V306h-.3v-.5l-.5-.6-.9-.3-2.3-.3-1.1-1.1h.6l.5.3v-.3l.3-.9h-.6l-.8.3v-.3Zm5.1-18.3-.5.3-1.2.6-1.4,1.4-.3.9-.3,1.4-.3.8v1.2h.3v.6h.3v.8h.3v.9h.3l1.1,1.1v.6h.6l.6.3.8.3,2.3.5v-.2l.9-.3,1.1-.3.6-.3.3-.3.5-.3.3-.3.6-1.1.6-.6.3-1.4.2-1.2h-.2v-1.7h-.3v-.8h-.3v-.6l-1.2-1.1-.5-.3-.3-.3-.6-.3-.3-.3Zm40.9-4-.5.3-.9.3-.6.3-.2.2-.6.3-.6,1.8-.3,4.8.6.6v.6h.3v.5H697.3l-.3.3-.5.3-.6.6-.3.5-.3.3v.9h-2l-.6.3-.8.8-.3.9-.6,1.1-.3,2-.3,1.8v19.7h.3v3.7h.3v.9h.3v1.1h.3v.6h.3v.8h.3l.2.3,1.2.6.3.3,1.1.3v.8h.3v.6h.3v.6h.3v.6h.3l.3.2.5.3.3.3.9.3,35.4.3v-.3l.9-.3,1.1-.6.6-.5,1.8-.2.3-36.9-1.5-1v-.6l-1.4-1.4-.6-.3-10.6-.3.3-.5.3-6.3h-.3V282l-1.2-1.1-.8-.3-.6-.3-.8-.3Zm25.8-21.2-.9.3-4.3,1.5-.5.2-6,2-.6.3-6,2-.6.3-1.4.3-3.4,1.1-.6.3-4.3,1.5-.6.2-4.3,1.5-.5.3-4.3,1.4-.6.3-1.4.3-5.2,1.7-.6.3-5.1,1.7-.6.3-6,2,.3.3-1.4.2-.9.3-2.3.6-2.3,1.1-.8.3-2.3,1.2-.9.3-.5.5-.6.3-.3.3-.6.3-.3.3-.5.3-.3.3-.6.2-.3.3-.6.3-.2.3-.6.3-2,2-.6.3-.8.8-.6.3-.6.6-.6.3.3.3-.5.5-.6.3-2.6,2.6-.3.6-.3.3-.3.5-.2.3-.3.6-.3.3-.3.5-.6.6-.3.6-.8.8-.9,1.8-.3.2-1.1,2.3-.3.3-.3.9-.3.6-.2.8-.6,1.2-1.2,3.4.3.3-.3,1.1-.5.3-.3.3-.9,5.1-.3,1.2-.3,3.1-.2,2.9.2.3v3.4h.3v2.9h.3v2.3h.3v2.2h.9v1.2h-.6l.3.3v1.1h.3v1.2h.2v1.4h.3v1.1h.3v1.5h.3v1.1h.3v1.4h.3v1.2h.3v1.1h.3v1.5h.2v1.1h.3v1.4h.3v1.2h.3v1.4h.6V357h-.6l.3.2v1.2h.3v1.4h.3V361h.2v1.4h.3v1.4h.3V365h.3v1.4h.3v1.4h.3V369h.3v1.4h.2v1.4h.3V373h.3v1.4h.3v1.2h.9v1.1h46.3v12.6h13.7V376.7h6.3v23.7h.6v2.3h-1.4v14.9h1.4v2.3h-.6v.9h.3l-.3,30.3v.8h22.1v-1.7h1.7v1.7h17.7V431.1H776v8.8l.3-9.1H747.4v5.4h-1.7v-6.9h-5.2v-46h1.4v.6h16.3l-10.8.2V391h.8v-6h1.5v6l.2-.6h1.2l-.3,1.2-.6.3v-.3l-.3-.3h-.2v6h-1.5v-6h-.8v6.9h17.1v-.6h1.2v.6h3.7V381.3l-1.1-.3h1.1v-9.7h-1.1v-.6h1.1V359h-4.3l-.3,8.5-.3,1.2-.2.3-.6.3-.6.5-2.3.3v-.3l-.6-.5h-.5v-.6l-.3-.3h-.3V359h-4.3v8.3H742.2V359h-.3v9.1h-1.4V354.7h1.2V339.8h-1.2v-2.9h7.7V300.3h-6.8V258.8Z"/></clipPath><clipPath id="clip-path-3"><path id="SVGID-3" data-name="SVGID" class="cls-3" d="M767.1,267.4l-1.4.3-2.9,1.4-1.4,1.5-.6,1.1-.3,1.2-.3.8-.2.6v2h.2v2.3h.3v.5h.3v.6h.3v.6h.3v.6h.3l.6.5v.6h.5l.6.6,2.3,1.1,1.4.3,2.6.3V284l1.1-.3.9-.3,1.7-.8,1.4-1.5.3-.5.6-.6.3-.6.3-1.1.3-1.4.2-2.3h-.2v-1.2h-.3V272H776v-.6l-2.6-2.6-1.7-.8-.9-.3-1.1-.3ZM780,244.2l-.9.3L768.8,248l-.5.2L757.1,252l-.6.3-12,4v40.6h59.2v-10l2-.3.9-.3.6-.3.8-.3h.6v-1.4h-.3v-.6l-.3-.3h-.3v-.5l-.2-.3h-.3V282l-.3-.3h-.3v-.6l-.6-.5h-.3V280l-.3-.3h-.2v-.6l-.3-.2h-.3v-.6l-.3-.3H804v-.6l-.6-.5h-.2v-.6l-.3-.3h-.3v-.6l-.3-.3H802v-.5l-.3-.3h-.3v-.6l-.5-.6h-.3v-.5l-.3-.3H800v-.6l-.3-.3h-.3v-.6l-.2-.2h-.3V270l-.6-.6H798v-.6l-.3-.2h-.3V268l-.2-.3h-.3v-.6l-.3-.3h-.3v-.5l-.6-.6h-.3v-.6l-.3-.3h-.2v-.5l-.3-.3h-.3v-.6l-.3-.3h-.3v-.5l-.6-.6h-.2v-.6l-.3-.3h-.3v-.5l-.3-.3h-.3v-.6l-.3-.3h-.3v-.6l-.5-.5h-.3v-.6l-.3-.3h-.3v-.6l-.3-.3h-.3V256l-.2-.3h-.3v-.6l-.6-.6h-.3V254l-.3-.3h-.3v-.6l-.2-.3h-.3v-.5l-.3-.3H786v-.6l-.6-.6h-.3v-.5l-.2-.3h-.3v-.6l-.3-.3H784v-.6l-.3-.3h-.3v-.5l-.6-.6h-.2v-.6l-.3-.3H782v-.5l-.3-.3h-.3v-.6l-.6-.6Z"/></clipPath><radialGradient id="radial-gradient-9" cx="776.55" cy="270.56" r="29.32" xlink:href="#radial-gradient"/><radialGradient id="radial-gradient-10" cx="759.39" cy="346.37" r="0.45" xlink:href="#radial-gradient"/></defs><title>floorplansA</title><rect class="cls-4" x="669" y="81" width="165" height="99"/><path id="SVGID-4" data-name="SVGID" class="cls-5" d="M707.9,442.5l-.6.3-.5.3-.6.5-.3.9v1.7h.3v.9h.3l.3.3v.5h.8l1.2.3.8.3v-.3l.6-.3,1.1-1.1.3-2.9-.8-.8-1.2-.6Zm-33.2,0-.8.3-.6.3-.3.5-.6,1.8.3.2v.6h.3v1.2h.6l.3.2.5.3.3.3,1.4.3v-.3l.9-.3,1.1-1.1.3-2.9-.8-.8-.6-.3-.9-.3Zm4.6-28.3v33.7h.3l.3.3,24.6.3v-.3l.2-.3.3-33.4-.3-.3ZM715,401.3v.9H662.4v1.1h.3v1.4h.3v1.5h.3v1.1h.3v1.4h.2v1.5h.3v1.4h.3v1.1h.3v1.5h.3v1.4h.3V417h.8v1.2h-.5l.2.3v1.1h.3V421h.3v1.2h.3v1.4h.3v1.2h.3v1.4h.3v1.4h.2v1.2h.3v1.4h.3v1.1h.3v1.5h.3v1.1h.3v1.4h.3v1.5h.8l-.3,1.4v1.4h.3v1.5h.3v1.4h.3v1.4h.3v1.5h.3v1.4h.3v1.4h.2v1.4h44.4V419.9h6.3V402.2h-7.5v-.9Zm83.3-56.9-.3.3-.6.2-.2.6-.3.3-.3.6v2h.3v.8h.3l.8.9.6.3,1.7.6v-.3l.9-.3.5-.3.9-.9.3-.5.3-2.6h-.3v-.6l-.6-.6-.6-.2-.3-.3Zm-28.9-32.1-.6.3v30.1h.3l.6.5,32,.3v-.3l1.2-.3.3-30.3-.3-.3Zm29.2-7.4-.6.3-1.1,1.1-.3.9v2h.3v.6h.3l.2.2v.6h.6l.3.3,1.1.3,1.8.3v-.3l.5-.6.6-.3.3-.3.3-.5.3-2.9-1.5-1.4-.5-.3Zm-48.7-4.6v38.4h-8l-.2,1.1v14.9h.2v1.1h38.4v42.4h16.3V356.1h7.7V300.3Z"/><g class="cls-6"><rect class="cls-7" x="662.4" y="300.3" width="141.9" height="149.33"/></g><path id="SVGID-5" data-name="SVGID" class="cls-8" d="M763.4,400.7v27.8h1.1V400.7Zm-1.1-.8v29.4l7.1-.2.3-.9h.6v1.1h7.1v-9.1h.3v19.7h28v-4l-9.1-.3-.6-.5h-.3v-.9h-.3v-2l.3-1.4.6-.6h9.4v-4h-8.3V399.9H777.7l-.3,9.1v-9.1Zm-71.6-56.1-.5.3-.6.6-.6.2-.3,1.2-20.9.3v14.3h43.8V346.4h-7.1v-.9l-1.5-1.4-.8-.3h-2l-.6.3-.9.8-.2,1.2-3.8.3v-1.2l-1.1-1.1-.9-.3Zm-18.6-10.9.9.3v-.3Zm-3.1,0,.6.3v-.3Zm4-.3.6.3v-.3Zm6.9-7.7.2.3v-.3Zm-18.1,0v.6l.3-.6Zm-.2-1.4.2.3v-.3Zm18.3-2v.6l.2-.6Zm-18.1,0v.6l.3-.6Zm.3-6.3.3.3v-.3Zm17.8-.9.2.3v-.3Zm-18.1-.3v.9l.3-.9Zm-.2-1.1.2.3v-.3Zm18.3-2v.6l.2-.6Zm-18.1,0v.6l.3-.6Zm79.6-5.1v26.8h6.5V305.8ZM669,302.9l3.1.3v-.3Zm0-.6-1.7.3-.3.3.6.3.8.3v-.3h.3l-.3.3-.6.2-.5.6-2,.3-.9.3-.8.9-.3.5-.3,2.9-.6.6-.3.5v-.5l.3-.3-.3-.3h-.8l-.3.3.6.3-.3.8-.3.6v3.1h.3v.6h.3l-.3.6-.3.3.8.8v-.3l.6-.5h.6l.3.3-.3,4-.6.5-.3.6v-.9l.3-.2-.3-.3h-.8l-.3.3.6.2-.3.9-.3.6v3.1h.3v.6h.3l-.3.6-.3.2.3.3v.6l.5-.3.3-1.1h.3v.8h.9v3.2h.3v.6h.2l.3.2,1.2.6,2,.3.8.9.6.2-.9.3v-.3h-.2l-.6.3.3.3v.6l.5-.3H669l.6.3,2.5.3v-.3l.9-.3h1.1l.3.3v-.3l.3-.6-.3-.3-.5-.2.5-.6,2.9-.6.6-.6.2-.5.3-3.2.3-.3.6-.3h.3l.8.9v-.3l.3-.6-.3-.2.3-1.5.3-2.5h-.3v-1.2l-.3-.3.3-.8h-.8l-.3.3.3.2-.3.6v-.3l-.6-.5h-.6v-3.8l.3-.2.6-.3h.3l.8.8v-.3l.3-.5-.3-.3.3-1.5.3-2.5h-.3v-1.2l-.3-.3.3-1.1h-.6l-.5.6.3.3-.3.5V310l-.6-.5h-.6V306h-.3v-.5l-.5-.6-.9-.3-2.3-.3-1.1-1.1h.6l.5.3v-.3l.3-.9h-.6l-.8.3v-.3Zm5.1-18.3-.5.3-1.2.6-1.4,1.4-.3.9-.3,1.4-.3.8v1.2h.3v.6h.3v.8h.3v.9h.3l1.1,1.1v.6h.6l.6.3.8.3,2.3.5v-.2l.9-.3,1.1-.3.6-.3.3-.3.5-.3.3-.3.6-1.1.6-.6.3-1.4.2-1.2h-.2v-1.7h-.3v-.8h-.3v-.6l-1.2-1.1-.5-.3-.3-.3-.6-.3-.3-.3Zm40.9-4-.5.3-.9.3-.6.3-.2.2-.6.3-.6,1.8-.3,4.8.6.6v.6h.3v.5H697.3l-.3.3-.5.3-.6.6-.3.5-.3.3v.9h-2l-.6.3-.8.8-.3.9-.6,1.1-.3,2-.3,1.8v19.7h.3v3.7h.3v.9h.3v1.1h.3v.6h.3v.8h.3l.2.3,1.2.6.3.3,1.1.3v.8h.3v.6h.3v.6h.3v.6h.3l.3.2.5.3.3.3.9.3,35.4.3v-.3l.9-.3,1.1-.6.6-.5,1.8-.2.3-36.9-1.5-1v-.6l-1.4-1.4-.6-.3-10.6-.3.3-.5.3-6.3h-.3V282l-1.2-1.1-.8-.3-.6-.3-.8-.3Zm25.8-21.2-.9.3-4.3,1.5-.5.2-6,2-.6.3-6,2-.6.3-1.4.3-3.4,1.1-.6.3-4.3,1.5-.6.2-4.3,1.5-.5.3-4.3,1.4-.6.3-1.4.3-5.2,1.7-.6.3-5.1,1.7-.6.3-6,2,.3.3-1.4.2-.9.3-2.3.6-2.3,1.1-.8.3-2.3,1.2-.9.3-.5.5-.6.3-.3.3-.6.3-.3.3-.5.3-.3.3-.6.2-.3.3-.6.3-.2.3-.6.3-2,2-.6.3-.8.8-.6.3-.6.6-.6.3.3.3-.5.5-.6.3-2.6,2.6-.3.6-.3.3-.3.5-.2.3-.3.6-.3.3-.3.5-.6.6-.3.6-.8.8-.9,1.8-.3.2-1.1,2.3-.3.3-.3.9-.3.6-.2.8-.6,1.2-1.2,3.4.3.3-.3,1.1-.5.3-.3.3-.9,5.1-.3,1.2-.3,3.1-.2,2.9.2.3v3.4h.3v2.9h.3v2.3h.3v2.2h.9v1.2h-.6l.3.3v1.1h.3v1.2h.2v1.4h.3v1.1h.3v1.5h.3v1.1h.3v1.4h.3v1.2h.3v1.1h.3v1.5h.2v1.1h.3v1.4h.3v1.2h.3v1.4h.6V357h-.6l.3.2v1.2h.3v1.4h.3V361h.2v1.4h.3v1.4h.3V365h.3v1.4h.3v1.4h.3V369h.3v1.4h.2v1.4h.3V373h.3v1.4h.3v1.2h.9v1.1h46.3v12.6h13.7V376.7h6.3v23.7h.6v2.3h-1.4v14.9h1.4v2.3h-.6v.9h.3l-.3,30.3v.8h22.1v-1.7h1.7v1.7h17.7V431.1H776v8.8l.3-9.1H747.4v5.4h-1.7v-6.9h-5.2v-46h1.4v.6h16.3l-10.8.2V391h.8v-6h1.5v6l.2-.6h1.2l-.3,1.2-.6.3v-.3l-.3-.3h-.2v6h-1.5v-6h-.8v6.9h17.1v-.6h1.2v.6h3.7V381.3l-1.1-.3h1.1v-9.7h-1.1v-.6h1.1V359h-4.3l-.3,8.5-.3,1.2-.2.3-.6.3-.6.5-2.3.3v-.3l-.6-.5h-.5v-.6l-.3-.3h-.3V359h-4.3v8.3H742.2V359h-.3v9.1h-1.4V354.7h1.2V339.8h-1.2v-2.9h7.7V300.3h-6.8V258.8Z"/><g class="cls-9"><rect class="cls-10" x="647" y="258.8" width="158.8" height="193.1"/></g><path id="SVGID-6" data-name="SVGID" class="cls-11" d="M767.1,267.4l-1.4.3-2.9,1.4-1.4,1.5-.6,1.1-.3,1.2-.3.8-.2.6v2h.2v2.3h.3v.5h.3v.6h.3v.6h.3v.6h.3l.6.5v.6h.5l.6.6,2.3,1.1,1.4.3,2.6.3V284l1.1-.3.9-.3,1.7-.8,1.4-1.5.3-.5.6-.6.3-.6.3-1.1.3-1.4.2-2.3h-.2v-1.2h-.3V272H776v-.6l-2.6-2.6-1.7-.8-.9-.3-1.1-.3ZM780,244.2l-.9.3L768.8,248l-.5.2L757.1,252l-.6.3-12,4v40.6h59.2v-10l2-.3.9-.3.6-.3.8-.3h.6v-1.4h-.3v-.6l-.3-.3h-.3v-.5l-.2-.3h-.3V282l-.3-.3h-.3v-.6l-.6-.5h-.3V280l-.3-.3h-.2v-.6l-.3-.2h-.3v-.6l-.3-.3H804v-.6l-.6-.5h-.2v-.6l-.3-.3h-.3v-.6l-.3-.3H802v-.5l-.3-.3h-.3v-.6l-.5-.6h-.3v-.5l-.3-.3H800v-.6l-.3-.3h-.3v-.6l-.2-.2h-.3V270l-.6-.6H798v-.6l-.3-.2h-.3V268l-.2-.3h-.3v-.6l-.3-.3h-.3v-.5l-.6-.6h-.3v-.6l-.3-.3h-.2v-.5l-.3-.3h-.3v-.6l-.3-.3h-.3v-.5l-.6-.6h-.2v-.6l-.3-.3h-.3v-.5l-.3-.3h-.3v-.6l-.3-.3h-.3v-.6l-.5-.5h-.3v-.6l-.3-.3h-.3v-.6l-.3-.3h-.3V256l-.2-.3h-.3v-.6l-.6-.6h-.3V254l-.3-.3h-.3v-.6l-.2-.3h-.3v-.5l-.3-.3H786v-.6l-.6-.6h-.3v-.5l-.2-.3h-.3v-.6l-.3-.3H784v-.6l-.3-.3h-.3v-.5l-.6-.6h-.2v-.6l-.3-.3H782v-.5l-.3-.3h-.3v-.6l-.6-.6Z"/><g class="cls-12"><rect class="cls-13" x="744.5" y="244.2" width="64.1" height="52.64"/></g><line class="cls-14" x1="759.7" y1="345.8" x2="759.1" y2="346.9"/><text class="cls-15" transform="translate(711.6 105.2)">TYPE A</text><text class="cls-16" transform="translate(691.9 132.3)">2-Bedroom</text><text class="cls-17" transform="translate(746.4 174.3)">5</text></svg>