<svg id="Layer_10" data-name="Layer 10" xmlns="http://www.w3.org/2000/svg" xmlns:xlink="http://www.w3.org/1999/xlink" viewBox="0 0 1920 944"><defs><style>.cls-1,.cls-9{fill:url(#radial-gradient);}.cls-1,.cls-2,.cls-3,.cls-4,.cls-5,.cls-6,.cls-7{clip-rule:evenodd;}.cls-12,.cls-14,.cls-2{fill:url(#radial-gradient-2);}.cls-15,.cls-3{fill:url(#radial-gradient-3);}.cls-18,.cls-20,.cls-4{fill:url(#radial-gradient-4);}.cls-21,.cls-5{fill:url(#radial-gradient-5);}.cls-24,.cls-6{fill:url(#radial-gradient-6);}.cls-27,.cls-7{fill:url(#radial-gradient-7);}.cls-8{fill:#f8f6f1;}.cls-12,.cls-15,.cls-18,.cls-21,.cls-24,.cls-27,.cls-9{fill-rule:evenodd;}.cls-10{clip-path:url(#clip-path);}.cls-11,.cls-14,.cls-17,.cls-20,.cls-23,.cls-26,.cls-29{opacity:0.1;}.cls-11{fill:url(#radial-gradient-9);}.cls-13{clip-path:url(#clip-path-2);}.cls-16{clip-path:url(#clip-path-3);}.cls-17{fill:url(#radial-gradient-13);}.cls-19{clip-path:url(#clip-path-4);}.cls-22{clip-path:url(#clip-path-5);}.cls-23{fill:url(#radial-gradient-17);}.cls-25{clip-path:url(#clip-path-6);}.cls-26{fill:url(#radial-gradient-19);}.cls-28{clip-path:url(#clip-path-7);}.cls-29{fill:url(#radial-gradient-21);}.cls-30{fill:url(#radial-gradient-22);}.cls-31{font-size:24px;fill:#ccc09c;}.cls-31,.cls-32{font-family:Campton-Medium, Campton;font-weight:500;}.cls-32,.cls-33{font-size:21px;}.cls-32{fill:#A49C87;letter-spacing:0.05em;}.cls-33{fill:#033348;font-family:Campton-Light, Campton;font-weight:300;letter-spacing:0.02em;}</style><radialGradient id="radial-gradient" cx="1192.65" cy="303.6" r="17.96" gradientUnits="userSpaceOnUse"><stop offset="0" stop-color="#fff"/><stop offset="0.86" stop-color="#A49C87"/></radialGradient><radialGradient id="radial-gradient-2" cx="1192.65" cy="274.42" r="17.96" xlink:href="#radial-gradient"/><radialGradient id="radial-gradient-3" cx="1123.85" cy="444.64" r="25.37" xlink:href="#radial-gradient"/><radialGradient id="radial-gradient-4" cx="1210.96" cy="368.54" r="89.05" xlink:href="#radial-gradient"/><radialGradient id="radial-gradient-5" cx="1188.93" cy="364.68" r="93.45" xlink:href="#radial-gradient"/><radialGradient id="radial-gradient-6" cx="1136.01" cy="356.81" r="13.44" xlink:href="#radial-gradient"/><radialGradient id="radial-gradient-7" cx="1306.37" cy="296.59" r="33.91" xlink:href="#radial-gradient"/><clipPath id="clip-path"><polygon id="SVGID" class="cls-1" points="1185.4 291.7 1185.4 295.2 1177.9 295.2 1177.9 296 1184.5 296 1184.5 297.5 1177.9 297.5 1178.5 298 1178.2 298.6 1177.9 298.9 1177.3 299.2 1177.3 298.9 1177.1 298.9 1177.1 298.3 1176.8 298 1177.3 297.5 1170.8 297.5 1170.8 296 1177.3 296 1177.3 295.2 1170.2 295.2 1170.2 310.6 1170.8 310.6 1170.8 311.8 1170.2 311.8 1170.2 315.5 1215.1 315.5 1215.1 314 1214 314 1214 313.5 1215.1 313.5 1215.1 303.7 1214 303.5 1215.1 303.5 1215.1 300 1200.5 300 1200.5 291.7 1196.2 291.7 1195.9 300 1195.7 301.2 1194.8 302 1194.2 302.3 1193.4 302.6 1192.8 302.9 1192.8 302.6 1191.9 302.3 1191.4 302 1190.5 301.2 1190.2 301.2 1190.2 300 1189.9 300 1189.9 291.7 1185.4 291.7"/></clipPath><radialGradient id="radial-gradient-9" cx="1192.65" cy="303.6" r="17.96" xlink:href="#radial-gradient"/><clipPath id="clip-path-2"><polygon id="SVGID-2" data-name="SVGID" class="cls-2" points="1170.2 262.6 1170.2 278 1184.5 278 1184.5 286.3 1189.1 286.3 1189.1 277.1 1189.4 276.6 1189.6 275.7 1190.2 275.4 1190.5 275.1 1193.7 275.1 1194.8 276.3 1194.8 276.9 1195.1 276.9 1195.1 286.3 1199.7 286.3 1199.7 273.7 1199.9 273.7 1199.9 283.1 1207.4 283.1 1207.4 280.6 1207.1 280.3 1206.8 280.3 1206.8 279.1 1208 279.1 1208.2 279.4 1208 280 1207.7 280.3 1207.7 283.1 1215.1 283.1 1215.1 267.4 1214.5 267.4 1214.5 266.6 1215.1 266.6 1215.1 262.6 1184.2 262.6 1184.2 263.7 1181.4 263.4 1183.9 263.4 1183.9 262.6 1174.2 262.6 1173.9 263.4 1173.9 262.6 1170.2 262.6"/></clipPath><clipPath id="clip-path-3"><path id="SVGID-3" data-name="SVGID" class="cls-3" d="M1127.9,463.9l.2.3v-.3Zm-2.9-.2.6.2v-.2Zm16.3-.3.3.3v-.3Zm-17.2,0,.6.3v-.3Zm12.1-.3.2.3v-.3Zm-5.5,0,.3.3v-.3Zm-7.7,0,.6.3v-.3Zm16.6-.3.3.3v-.3Zm-11.5,0,.3.3v-.3Zm-1.4,0,.9.3v-.3Zm14.6-.6-.9.3,1.2.3v-.3l.6-.3Zm-17.7,0,.3.3v-.3Zm-2.3,0,.3.3v-.3Zm20.9-.3.5.3v-.3Zm-19.2,0,.3.3v-.3Zm20-.2.3.2v-.2Zm-20.6,0,.6.2v-.2Zm20.9-.3.3.3v-.3Zm.3-.3.3.3v-.3Zm1.7-.3.3.3v-.3Zm-23.7,0v.6h.5l.3.3v-.6l-.3-.3Zm24-.6.3.3v-.3Zm-25.8-.5.3.2v-.2Zm4.3-1.5v.6h.6v-.6Zm21.8-1.4v2.6l.3-2.6Zm-1.5-.6v1.2h.3l-.3,2.3-.2.5-.3.3v.6l.8-.9.3-3.7-.3-.3Zm-23.4,0-.3.9v2.8h.3l.3.3v.6l.3-1.4h-.3v-1.2l-.3-.3.3-1.1.3-.3-.3-.3Zm-.9-.3.3.3v-.3Zm25.2-.2.3.2v-.2Zm-2-.6.3.3.8.8v-.5l-.5-.6Zm-21.2,0-.5.3-.3.5.5.6v-.6l.3-.2.3-.6Zm22.6-.3.3.3v-.3Zm-22.3,0,.3.3v-.3Zm-1.4,0,.3.3v-.3Zm23.4-.3.3.3v-.3Zm-21.4,0,.6.3v-.3Zm-1.7,0,.3.3v-.3Zm22.9-.3.2.3v-.3Zm-2.9,0,.9.3.2.3.9.3v-.3l-.3-.3-.6-.3Zm-19.7,0,.2.3v-.3Zm18.8-.3.9.3v-.3Zm-16.3,0-.5.3.8.3v-.3l1.7-.3Zm13.2-.2,1.7.2v-.2Zm-4.9,0,.6.2v-.2Zm9.8-.3.5.3v-.3Zm-.9-.3.6.3v-.3Zm-.9-.3.3.3v-.3Zm-15.4,0,.6.3v-.3Zm-28.9-30.9v22.9h16.6l-16.6.3v22.3h8.3v-1.2h-6.9v-1.4h14.3v1.4H1105v.9h.3l7.7.3V456.5h1.4v9.7h18.3v-1.7l-5.4-.3-2.3-.3-.9-.2-1.1-.3-.6-.3.3-.3h-.6l-.3.3v-.3l-.5-.3-.9-.8h-.3v-.9h-.3v-.6h-.2v-.8l-.3-.3h.3l.2.3v-1.5h-.2v-.5h.2l.3.3v-.6h-.3v-1.2l.3-.2.6-.3-.3-.3.3-.3.3-.6.6-.3.2-.2.6-.3h.3l.6.3v-.3l-.3-.3h.9l.5.3v-.3l-.3-.3.9-.3h15.7l1.2.3.8.3.6.3-.3.3.6.2v-.2h.3v.5l.3-.3h.2l1.5,1.5v.8h.3v.6h.3l-.3,3.1-.9,1.8-.9.8-.5.3-.3.3v-.3h-.3l-.3.6v-.3h-.6l.3.3-.8.3-1.2.2-2.3.3v-.3h-2l1.5.3-4.9.3v1.7h18.6v-2.3l-1.1-.2.5-.3h.6v-9.7l-1.1-.3h1.1V434.2h-7.2v-2.3h-30v2.3h-1.7V423.3h-4.9l-.3,8.6-.2.9-.6.3-.9.2-1.7.3v-.3l-1.4-.2-.3-.3h-.3v-.9h-.3v-8.6h-5.4v-1.4Z"/></clipPath><radialGradient id="radial-gradient-13" cx="1123.85" cy="444.64" r="25.37" xlink:href="#radial-gradient"/><clipPath id="clip-path-4"><path id="SVGID-4" data-name="SVGID" class="cls-4" d="M1142.7,419.9l2,.3v-.3Zm-6.5-23.2v.9h.5v-.9Zm-1.5,0v.9h.6v-.9Zm-1.4,0v.9h.6v-.9Zm-1.4,0v.9h.5v-.9Zm-1.5,0v.9h.6v-.9Zm-1.4,0v.9h.6v-.9Zm-1.4,0v.9h.5v-.9Zm-1.5,0v.9h.6v-.9Zm-1.4,0v.9h.6v-.9Zm-1.4,0v.9h.6v-.9Zm-1.5,0v.9h.6v-.9Zm-1.4,0v.9h.6v-.9Zm-1.4,0v.9h.6v-.9Zm-1.4,0v.9h.5v-.9Zm-1.5,0v.9h.6v-.9Zm-1.4,0v.9h.6v-.9Zm-1.4,0v.9h.5v-.9Zm-1.5,0v.9h.6v-.9Zm-1.4,0v.9h.6v-.9Zm-1.4,0v.9h.5v-.9Zm-1.5,0v.9h.6v-.9Zm108.8-12.9.2.3v-.3Zm-.3-1.7v1.2l.3-1.2Zm0-1.4v.6l.3-.6Zm18.3-.9v2.9l.3-2.9Zm-.3-.5.3.3v-.3Zm-114.7-.3-.3.3-.6.3-.8.8-.6,1.2-.3.2-.3,1.5-.3,1.1v1.5h-8.6v8.5h28.1v-8.5h-9.2v-1.8h-.3v-2h-.2v-.5h-.3V381l-1.7-1.7-.9-.3Zm96.7-9.5v.9l.3-.9Zm18.3-.8v2.8l.3-2.8Zm-44.7-4.9V365h1.2v-1.2Zm26.4-4V361l.3-1.2Zm-26.4-1.1v1.1h.3l.3.3v-.3h.6v-1.1Zm26.4-.3v.8l.3-.8Zm2.3-6.3-.3.3-.3.8v2.9h-.6l-.6.6v-.6l-.2-.3h-.6l-.3.3.3.3-.6,2.8.3.3V361h.3l-.3,1.7v.6l.9-.3.2-.9h.3v.6h.6l.3.3v4.3h-.6l-.6.5v-.5l-.2-.3h-.6l-.3.3.3.2-.6,2.9.3.3v1.4h.3l-.3,1.4v.6l.9-.3.2-.5h.3v.5h.9v4.3h-.6l-.6.6v-.3l-.2-.3h-.6l-.3.3.3.3-.6,2.9.3.2v1.5h.3l-.3,1.4v.6l.9-.3.2-.6h.3l.6.3.3.3v3.1h.3v.6h.5l.3.3,12.6.3V389l.6-.3.3-.3.3-.5.2-2.6.6-.6.3-.6.3-.3h.3l-.3.6-.3.3.9.9v-.3l.2-.6-.2-.3.2-1.4.3-3.2h-.3v-.5l-.2-.3.2-.9h-.5l-.6.3.3.3-.3.3v-.3l-.3-.3h-.6v-4.3l.9-.8.3-.6h.3l-.3.8v.6h.3l.3.3v-.3l.2-.6-.2-.2.2-1.5.3-3.1h-.3v-.6l-.2-.3.2-.8h-.5l-.6.3.3.2v.6h.3l-.3.3v-.3l-.9-.8h-.3V363l1.2-1.2h.3l-.3.6v.6h.3v.5l.5-1.1-.2-.3.2-1.4.3-3.2h-.3V357l-.2-.3.2-.9h-.5l-.6.3v.6h.3l.3.3v.5h.3l-.3,2.9v-2.9h-.3V357l-.9-.9h-.3v-2.6h-.2v-.8l-.6-.6Zm-35.2-7.2v49h15.1v-9.8l1.2-.3,1.1-1.1.3-2.6h-.3v-.5l-.6-.6h-.2v-.6h-1.5V373l1.2-.3,1.1-1.2.3-2.5h-.3v-.6l-.6-.6h-.2v-.5h-1.5V344.9Zm115.8-2.8-.8.3-3.5,3.4v.6H1250l-.6.3-.8.2-.3.6-.9.9-.2,1.1v40.9h.2v.9h.3l.3.3v.5h.3l.3.3.6.3.2.3.9.3,3.7.3v2h.3l.3.3v.5h.3v.6h.3l.2.3,1.8.6.5.3,3.5.5,31.7.3v-.3l2.3-.3,1.2-.2,1.7-.6.5-.3,1.2-1.2.3-2.5,1.1-.3.9-.3.5-.3,1.2-1.1.3-.6.3-.9.3-35.4,1.1-1.2.3-.5,1.7-1.8.3-2.3h-.3v-.8h-.3v-.6l-.3-.3h-.3v-.5l-.5-.6h-.3v-.6l-2.6-2.6-.6-.2-1.1-.3-.3-.3Zm-52.6-6.9v6.9h27.2v-6.9Zm-80.1-18.3v.6h-.6v14.9h.6v49.7h-12.6v13.5h12.6v.8h-14.3V368.1h-1.4v-.8h-13.2v.8h-31.2v28.6h.6v.9h-.6l-10,.3v17.7l57.2-.3.3-1.4h.6l11.4.3v-.3h.9l15.7.3v-.3h3.2v.8h14.8v-.8h53.2v-3.7l.3-.9h31.8v6.6l4.8-.3,2.3-.6,1.5-.3,3.4-.8,4-2,.3-.3.6-.3.2-.3.6-.3.3-.2.6-.3.3-.3.5-.3,4.9-4.9.3-.5.3-.3.3-.6.5-.6.3-.5.3-.3,1.7-3.5,1.7-5.1.3-1.4.3-1.8.3-1.4.3-1.7.3-1.4.3-1.8.2-1.4.6-3.4.3-1.4.3-1.8.3-1.4.3-1.7.2-1.4.6-3.5.3-1.4.3-1.7.3-1.4.3-1.8.2-1.4.6-3.4.3-1.5.3-1.7.3-1.4.3-1.7.2-1.5.6-3.4.3-1.4.3-1.7.3-1.5.3-1.7.2-1.4.3-1.7.3-1.5H1215.1v-2.2h.6V317.5h-.6v-.6Z"/></clipPath><clipPath id="clip-path-5"><path id="SVGID-5" data-name="SVGID" class="cls-5" d="M1237.4,459.9l-.3.3-.8.9-.3.8-.3.6v1.2h.3v.8h.3v.9h.3l.3.3.5.3,1.7.5.3.3v-.3l1.2-.5.8-.3.6-.6.3-.9.3-2h-.3v-.8l-1.2-1.2-.5-.3Zm-39.2,0-.3.3-.5.3-.6,1.2-.3.2v2.6h.3l.3.3v.6h.3v.6h.8l.6.2,1.7.3v-.3l.9-.2.3-.3.5-.3.3-.3.3-.6.3-2.3h-.3v-.8l-1.1-1.2-1.2-.3Zm-15.4-1.4v9.2l.3-9.2Zm-29.5,0v9.2l.3-9.2Zm50.9-26-.2.3v33.4h.2l.3.3,29.8.3v-.3l.3-.3.2-33.4-.2-.3Zm-50.9-9.5v9.2l.3-9.2Zm32.1-8.3v.9h-.9v18.9h-1.4v-.9h-.3v-1.4l.3-9.2h-.6v11.2h-28.9v22.3h29.2l.3.3v-.3h1.4v11.2h68.7v-.6l.2-47.2h-.2v-4.3h-53v-.9Zm-77.3-94.6-.3.2-.3.3-.2.9-.6,1.1.3.3v.9h.3v.8h.2l.6.6.9.3,1.4.3v-.3l.9-.3.5-.3.6-.6.3-2.8-1.4-1.4Zm110.7-16.6-.3.2-.5.3-.3.9-.3.3-.3.8.3.3v.9h.3v.6h.3v.5h.5l.3.3.6.3,1.4.3v-.3l.9-.3,1.1-1.1.3-2.6-1.4-1.4Zm-111.5-10.1-.3.3-.3.3v24.6h.3l.3.3,33.1.3v-.3l.3-.3.3-24.9-.3-.3Zm.8-6.5-.3.3-.3.2-.5,1.2-.3.8.3.3v.9h.3v.6h.2v.5h.3l.3.3.9.3,1.4.3v-.3l.9-.3.8-.8.3-.6.3-2.3-1.4-1.4Zm109.6-10-.6.2V302h.3l.3.3,33.2.3v-.3l.3-.3.2-25.1Zm2.3-6.9-1.2.3-.3.3-.5.2-.6,1.2-.3.8.3.3v.6h.3v.9h.3l.8.8.6.3,1.4.3v-.3l.9-.3,1.1-1.1.3-2.6-1.4-1.4-.9-.3Zm-97-3.7-.3.3-.6.2-.3.3-.5.3-.9.9-.6.3-1.1,1.1-.3.9-.6,1.1-.2.3-.3.6-.3.2v1.8h.3v.5h.3v.9h.2l3.2,3.1v.6h1.7l1.2,1.2,1.7.2v-.2l6.3-6.3.2-1.5-.5-.5h-.3v-.9h-.3v-.9h-.3V270l-3.4-3.4-.9-.3Zm93.5-4.6v55.8h-.8v14.9h.8v.8h17.2V322.3h35.2v10.9h1.1V322.3h1.8V290h-5.2V261.7Zm-102.4,0v23.7h-8v47.5h58.7v-.5h.8V317.5h-.8v-.6H1157v-36h11.2v34.6l.3-34.9H1157v-1.5h11.5V261.7Z"/></clipPath><radialGradient id="radial-gradient-17" cx="1188.93" cy="364.68" r="93.45" xlink:href="#radial-gradient"/><clipPath id="clip-path-6"><polygon id="SVGID-6" data-name="SVGID" class="cls-6" points="1120.1 346.4 1120.1 366.4 1137.3 366.4 1137.3 367.3 1150.5 367.3 1150.5 366.4 1151.9 366.4 1151.9 346.4 1120.1 346.4"/></clipPath><radialGradient id="radial-gradient-19" cx="1136.01" cy="356.81" r="13.44" xlink:href="#radial-gradient"/><clipPath id="clip-path-7"><path id="SVGID-7" data-name="SVGID" class="cls-7" d="M1299.8,286.6l-.9.3-1.4.3-.6.5-1.7.9-1.1,1.1-.3.6-.6.6-.3.8-.3.6-.2.9-.3.5-.3,1.2-.3,1.7.3.3v1.4h.3v1.4h.3v.6h.2v.6h.3v.6h.3v.8h.3l.6.6v.6h.5l.6.5.6.3.6.6.5.3.3.3,1.7.8,1.5.3,2.8.3v-.3l1.5-.3.8-.3,1.2-.5.5-.6.6-.3.6-.6.5-.3,1.2-1.1.6-1.1.2-.9.6-1.1.3-5.5h-.3v-.8h-.3v-.6h-.3v-.9h-.2v-.5h-.3v-.6l-1.5-1.4-.5-.3-.6-.6-.6-.3-.5-.6-.6-.2-1.4-.3-.6-.3Zm-25.2-24.9.3.3v27.2h-1.4v42.3l52.9-.3.6-2.9.3-1.7.2-1.4.3-1.7.6-2.9.3-1.7.3-1.4.3-1.7.2-1.5.3-1.7.6-2.8.3-1.8.3-1.4.3-1.7.2-1.4.3-1.8.6-2.8.3-1.7.3-1.5.3-1.7.5-2.8.3-1.8.3-1.4.3-1.7.3-1.4.3-1.8.5-2.8.3-1.7.3-1.5.3-1.7.3-1.4.3-1.7.5-2.9.3-1.7.3-1.4.3-1.7.6-2.9Z"/></clipPath><radialGradient id="radial-gradient-21" cx="1306.37" cy="296.59" r="33.91" xlink:href="#radial-gradient"/><radialGradient id="radial-gradient-22" cx="1269.18" cy="444.5" r="19.9" xlink:href="#radial-gradient"/></defs><title>floorplansD</title><rect class="cls-8" x="1132" y="81" width="165" height="99"/><polygon id="SVGID-8" data-name="SVGID" class="cls-9" points="1185.4 291.7 1185.4 295.2 1177.9 295.2 1177.9 296 1184.5 296 1184.5 297.5 1177.9 297.5 1178.5 298 1178.2 298.6 1177.9 298.9 1177.3 299.2 1177.3 298.9 1177.1 298.9 1177.1 298.3 1176.8 298 1177.3 297.5 1170.8 297.5 1170.8 296 1177.3 296 1177.3 295.2 1170.2 295.2 1170.2 310.6 1170.8 310.6 1170.8 311.8 1170.2 311.8 1170.2 315.5 1215.1 315.5 1215.1 314 1214 314 1214 313.5 1215.1 313.5 1215.1 303.7 1214 303.5 1215.1 303.5 1215.1 300 1200.5 300 1200.5 291.7 1196.2 291.7 1195.9 300 1195.7 301.2 1194.8 302 1194.2 302.3 1193.4 302.6 1192.8 302.9 1192.8 302.6 1191.9 302.3 1191.4 302 1190.5 301.2 1190.2 301.2 1190.2 300 1189.9 300 1189.9 291.7 1185.4 291.7"/><g class="cls-10"><rect class="cls-11" x="1170.2" y="291.7" width="44.9" height="23.74"/></g><polygon id="SVGID-9" data-name="SVGID" class="cls-12" points="1170.2 262.6 1170.2 278 1184.5 278 1184.5 286.3 1189.1 286.3 1189.1 277.1 1189.4 276.6 1189.6 275.7 1190.2 275.4 1190.5 275.1 1193.7 275.1 1194.8 276.3 1194.8 276.9 1195.1 276.9 1195.1 286.3 1199.7 286.3 1199.7 273.7 1199.9 273.7 1199.9 283.1 1207.4 283.1 1207.4 280.6 1207.1 280.3 1206.8 280.3 1206.8 279.1 1208 279.1 1208.2 279.4 1208 280 1207.7 280.3 1207.7 283.1 1215.1 283.1 1215.1 267.4 1214.5 267.4 1214.5 266.6 1215.1 266.6 1215.1 262.6 1184.2 262.6 1184.2 263.7 1181.4 263.4 1183.9 263.4 1183.9 262.6 1174.2 262.6 1173.9 263.4 1173.9 262.6 1170.2 262.6"/><g class="cls-13"><rect class="cls-14" x="1170.2" y="262.6" width="44.9" height="23.74"/></g><path id="SVGID-10" data-name="SVGID" class="cls-15" d="M1127.9,463.9l.2.3v-.3Zm-2.9-.2.6.2v-.2Zm16.3-.3.3.3v-.3Zm-17.2,0,.6.3v-.3Zm12.1-.3.2.3v-.3Zm-5.5,0,.3.3v-.3Zm-7.7,0,.6.3v-.3Zm16.6-.3.3.3v-.3Zm-11.5,0,.3.3v-.3Zm-1.4,0,.9.3v-.3Zm14.6-.6-.9.3,1.2.3v-.3l.6-.3Zm-17.7,0,.3.3v-.3Zm-2.3,0,.3.3v-.3Zm20.9-.3.5.3v-.3Zm-19.2,0,.3.3v-.3Zm20-.2.3.2v-.2Zm-20.6,0,.6.2v-.2Zm20.9-.3.3.3v-.3Zm.3-.3.3.3v-.3Zm1.7-.3.3.3v-.3Zm-23.7,0v.6h.5l.3.3v-.6l-.3-.3Zm24-.6.3.3v-.3Zm-25.8-.5.3.2v-.2Zm4.3-1.5v.6h.6v-.6Zm21.8-1.4v2.6l.3-2.6Zm-1.5-.6v1.2h.3l-.3,2.3-.2.5-.3.3v.6l.8-.9.3-3.7-.3-.3Zm-23.4,0-.3.9v2.8h.3l.3.3v.6l.3-1.4h-.3v-1.2l-.3-.3.3-1.1.3-.3-.3-.3Zm-.9-.3.3.3v-.3Zm25.2-.2.3.2v-.2Zm-2-.6.3.3.8.8v-.5l-.5-.6Zm-21.2,0-.5.3-.3.5.5.6v-.6l.3-.2.3-.6Zm22.6-.3.3.3v-.3Zm-22.3,0,.3.3v-.3Zm-1.4,0,.3.3v-.3Zm23.4-.3.3.3v-.3Zm-21.4,0,.6.3v-.3Zm-1.7,0,.3.3v-.3Zm22.9-.3.2.3v-.3Zm-2.9,0,.9.3.2.3.9.3v-.3l-.3-.3-.6-.3Zm-19.7,0,.2.3v-.3Zm18.8-.3.9.3v-.3Zm-16.3,0-.5.3.8.3v-.3l1.7-.3Zm13.2-.2,1.7.2v-.2Zm-4.9,0,.6.2v-.2Zm9.8-.3.5.3v-.3Zm-.9-.3.6.3v-.3Zm-.9-.3.3.3v-.3Zm-15.4,0,.6.3v-.3Zm-28.9-30.9v22.9h16.6l-16.6.3v22.3h8.3v-1.2h-6.9v-1.4h14.3v1.4H1105v.9h.3l7.7.3V456.5h1.4v9.7h18.3v-1.7l-5.4-.3-2.3-.3-.9-.2-1.1-.3-.6-.3.3-.3h-.6l-.3.3v-.3l-.5-.3-.9-.8h-.3v-.9h-.3v-.6h-.2v-.8l-.3-.3h.3l.2.3v-1.5h-.2v-.5h.2l.3.3v-.6h-.3v-1.2l.3-.2.6-.3-.3-.3.3-.3.3-.6.6-.3.2-.2.6-.3h.3l.6.3v-.3l-.3-.3h.9l.5.3v-.3l-.3-.3.9-.3h15.7l1.2.3.8.3.6.3-.3.3.6.2v-.2h.3v.5l.3-.3h.2l1.5,1.5v.8h.3v.6h.3l-.3,3.1-.9,1.8-.9.8-.5.3-.3.3v-.3h-.3l-.3.6v-.3h-.6l.3.3-.8.3-1.2.2-2.3.3v-.3h-2l1.5.3-4.9.3v1.7h18.6v-2.3l-1.1-.2.5-.3h.6v-9.7l-1.1-.3h1.1V434.2h-7.2v-2.3h-30v2.3h-1.7V423.3h-4.9l-.3,8.6-.2.9-.6.3-.9.2-1.7.3v-.3l-1.4-.2-.3-.3h-.3v-.9h-.3v-8.6h-5.4v-1.4Z"/><g class="cls-16"><rect class="cls-17" x="1096.1" y="421.9" width="55.5" height="45.49"/></g><path id="SVGID-11" data-name="SVGID" class="cls-18" d="M1142.7,419.9l2,.3v-.3Zm-6.5-23.2v.9h.5v-.9Zm-1.5,0v.9h.6v-.9Zm-1.4,0v.9h.6v-.9Zm-1.4,0v.9h.5v-.9Zm-1.5,0v.9h.6v-.9Zm-1.4,0v.9h.6v-.9Zm-1.4,0v.9h.5v-.9Zm-1.5,0v.9h.6v-.9Zm-1.4,0v.9h.6v-.9Zm-1.4,0v.9h.6v-.9Zm-1.5,0v.9h.6v-.9Zm-1.4,0v.9h.6v-.9Zm-1.4,0v.9h.6v-.9Zm-1.4,0v.9h.5v-.9Zm-1.5,0v.9h.6v-.9Zm-1.4,0v.9h.6v-.9Zm-1.4,0v.9h.5v-.9Zm-1.5,0v.9h.6v-.9Zm-1.4,0v.9h.6v-.9Zm-1.4,0v.9h.5v-.9Zm-1.5,0v.9h.6v-.9Zm108.8-12.9.2.3v-.3Zm-.3-1.7v1.2l.3-1.2Zm0-1.4v.6l.3-.6Zm18.3-.9v2.9l.3-2.9Zm-.3-.5.3.3v-.3Zm-114.7-.3-.3.3-.6.3-.8.8-.6,1.2-.3.2-.3,1.5-.3,1.1v1.5h-8.6v8.5h28.1v-8.5h-9.2v-1.8h-.3v-2h-.2v-.5h-.3V381l-1.7-1.7-.9-.3Zm96.7-9.5v.9l.3-.9Zm18.3-.8v2.8l.3-2.8Zm-44.7-4.9V365h1.2v-1.2Zm26.4-4V361l.3-1.2Zm-26.4-1.1v1.1h.3l.3.3v-.3h.6v-1.1Zm26.4-.3v.8l.3-.8Zm2.3-6.3-.3.3-.3.8v2.9h-.6l-.6.6v-.6l-.2-.3h-.6l-.3.3.3.3-.6,2.8.3.3V361h.3l-.3,1.7v.6l.9-.3.2-.9h.3v.6h.6l.3.3v4.3h-.6l-.6.5v-.5l-.2-.3h-.6l-.3.3.3.2-.6,2.9.3.3v1.4h.3l-.3,1.4v.6l.9-.3.2-.5h.3v.5h.9v4.3h-.6l-.6.6v-.3l-.2-.3h-.6l-.3.3.3.3-.6,2.9.3.2v1.5h.3l-.3,1.4v.6l.9-.3.2-.6h.3l.6.3.3.3v3.1h.3v.6h.5l.3.3,12.6.3V389l.6-.3.3-.3.3-.5.2-2.6.6-.6.3-.6.3-.3h.3l-.3.6-.3.3.9.9v-.3l.2-.6-.2-.3.2-1.4.3-3.2h-.3v-.5l-.2-.3.2-.9h-.5l-.6.3.3.3-.3.3v-.3l-.3-.3h-.6v-4.3l.9-.8.3-.6h.3l-.3.8v.6h.3l.3.3v-.3l.2-.6-.2-.2.2-1.5.3-3.1h-.3v-.6l-.2-.3.2-.8h-.5l-.6.3.3.2v.6h.3l-.3.3v-.3l-.9-.8h-.3V363l1.2-1.2h.3l-.3.6v.6h.3v.5l.5-1.1-.2-.3.2-1.4.3-3.2h-.3V357l-.2-.3.2-.9h-.5l-.6.3v.6h.3l.3.3v.5h.3l-.3,2.9v-2.9h-.3V357l-.9-.9h-.3v-2.6h-.2v-.8l-.6-.6Zm-35.2-7.2v49h15.1v-9.8l1.2-.3,1.1-1.1.3-2.6h-.3v-.5l-.6-.6h-.2v-.6h-1.5V373l1.2-.3,1.1-1.2.3-2.5h-.3v-.6l-.6-.6h-.2v-.5h-1.5V344.9Zm115.8-2.8-.8.3-3.5,3.4v.6H1250l-.6.3-.8.2-.3.6-.9.9-.2,1.1v40.9h.2v.9h.3l.3.3v.5h.3l.3.3.6.3.2.3.9.3,3.7.3v2h.3l.3.3v.5h.3v.6h.3l.2.3,1.8.6.5.3,3.5.5,31.7.3v-.3l2.3-.3,1.2-.2,1.7-.6.5-.3,1.2-1.2.3-2.5,1.1-.3.9-.3.5-.3,1.2-1.1.3-.6.3-.9.3-35.4,1.1-1.2.3-.5,1.7-1.8.3-2.3h-.3v-.8h-.3v-.6l-.3-.3h-.3v-.5l-.5-.6h-.3v-.6l-2.6-2.6-.6-.2-1.1-.3-.3-.3Zm-52.6-6.9v6.9h27.2v-6.9Zm-80.1-18.3v.6h-.6v14.9h.6v49.7h-12.6v13.5h12.6v.8h-14.3V368.1h-1.4v-.8h-13.2v.8h-31.2v28.6h.6v.9h-.6l-10,.3v17.7l57.2-.3.3-1.4h.6l11.4.3v-.3h.9l15.7.3v-.3h3.2v.8h14.8v-.8h53.2v-3.7l.3-.9h31.8v6.6l4.8-.3,2.3-.6,1.5-.3,3.4-.8,4-2,.3-.3.6-.3.2-.3.6-.3.3-.2.6-.3.3-.3.5-.3,4.9-4.9.3-.5.3-.3.3-.6.5-.6.3-.5.3-.3,1.7-3.5,1.7-5.1.3-1.4.3-1.8.3-1.4.3-1.7.3-1.4.3-1.8.2-1.4.6-3.4.3-1.4.3-1.8.3-1.4.3-1.7.2-1.4.6-3.5.3-1.4.3-1.7.3-1.4.3-1.8.2-1.4.6-3.4.3-1.5.3-1.7.3-1.4.3-1.7.2-1.5.6-3.4.3-1.4.3-1.7.3-1.5.3-1.7.2-1.4.3-1.7.3-1.5H1215.1v-2.2h.6V317.5h-.6v-.6Z"/><g class="cls-19"><rect class="cls-20" x="1096.1" y="316.9" width="229.7" height="103.27"/></g><path id="SVGID-12" data-name="SVGID" class="cls-21" d="M1237.4,459.9l-.3.3-.8.9-.3.8-.3.6v1.2h.3v.8h.3v.9h.3l.3.3.5.3,1.7.5.3.3v-.3l1.2-.5.8-.3.6-.6.3-.9.3-2h-.3v-.8l-1.2-1.2-.5-.3Zm-39.2,0-.3.3-.5.3-.6,1.2-.3.2v2.6h.3l.3.3v.6h.3v.6h.8l.6.2,1.7.3v-.3l.9-.2.3-.3.5-.3.3-.3.3-.6.3-2.3h-.3v-.8l-1.1-1.2-1.2-.3Zm-15.4-1.4v9.2l.3-9.2Zm-29.5,0v9.2l.3-9.2Zm50.9-26-.2.3v33.4h.2l.3.3,29.8.3v-.3l.3-.3.2-33.4-.2-.3Zm-50.9-9.5v9.2l.3-9.2Zm32.1-8.3v.9h-.9v18.9h-1.4v-.9h-.3v-1.4l.3-9.2h-.6v11.2h-28.9v22.3h29.2l.3.3v-.3h1.4v11.2h68.7v-.6l.2-47.2h-.2v-4.3h-53v-.9Zm-77.3-94.6-.3.2-.3.3-.2.9-.6,1.1.3.3v.9h.3v.8h.2l.6.6.9.3,1.4.3v-.3l.9-.3.5-.3.6-.6.3-2.8-1.4-1.4Zm110.7-16.6-.3.2-.5.3-.3.9-.3.3-.3.8.3.3v.9h.3v.6h.3v.5h.5l.3.3.6.3,1.4.3v-.3l.9-.3,1.1-1.1.3-2.6-1.4-1.4Zm-111.5-10.1-.3.3-.3.3v24.6h.3l.3.3,33.1.3v-.3l.3-.3.3-24.9-.3-.3Zm.8-6.5-.3.3-.3.2-.5,1.2-.3.8.3.3v.9h.3v.6h.2v.5h.3l.3.3.9.3,1.4.3v-.3l.9-.3.8-.8.3-.6.3-2.3-1.4-1.4Zm109.6-10-.6.2V302h.3l.3.3,33.2.3v-.3l.3-.3.2-25.1Zm2.3-6.9-1.2.3-.3.3-.5.2-.6,1.2-.3.8.3.3v.6h.3v.9h.3l.8.8.6.3,1.4.3v-.3l.9-.3,1.1-1.1.3-2.6-1.4-1.4-.9-.3Zm-97-3.7-.3.3-.6.2-.3.3-.5.3-.9.9-.6.3-1.1,1.1-.3.9-.6,1.1-.2.3-.3.6-.3.2v1.8h.3v.5h.3v.9h.2l3.2,3.1v.6h1.7l1.2,1.2,1.7.2v-.2l6.3-6.3.2-1.5-.5-.5h-.3v-.9h-.3v-.9h-.3V270l-3.4-3.4-.9-.3Zm93.5-4.6v55.8h-.8v14.9h.8v.8h17.2V322.3h35.2v10.9h1.1V322.3h1.8V290h-5.2V261.7Zm-102.4,0v23.7h-8v47.5h58.7v-.5h.8V317.5h-.8v-.6H1157v-36h11.2v34.6l.3-34.9H1157v-1.5h11.5V261.7Z"/><g class="cls-22"><rect class="cls-23" x="1106.1" y="261.7" width="165.6" height="205.98"/></g><polygon id="SVGID-13" data-name="SVGID" class="cls-24" points="1120.1 346.4 1120.1 366.4 1137.3 366.4 1137.3 367.3 1150.5 367.3 1150.5 366.4 1151.9 366.4 1151.9 346.4 1120.1 346.4"/><g class="cls-25"><rect class="cls-26" x="1120.1" y="346.4" width="31.8" height="20.88"/></g><path id="SVGID-14" data-name="SVGID" class="cls-27" d="M1299.8,286.6l-.9.3-1.4.3-.6.5-1.7.9-1.1,1.1-.3.6-.6.6-.3.8-.3.6-.2.9-.3.5-.3,1.2-.3,1.7.3.3v1.4h.3v1.4h.3v.6h.2v.6h.3v.6h.3v.8h.3l.6.6v.6h.5l.6.5.6.3.6.6.5.3.3.3,1.7.8,1.5.3,2.8.3v-.3l1.5-.3.8-.3,1.2-.5.5-.6.6-.3.6-.6.5-.3,1.2-1.1.6-1.1.2-.9.6-1.1.3-5.5h-.3v-.8h-.3v-.6h-.3v-.9h-.2v-.5h-.3v-.6l-1.5-1.4-.5-.3-.6-.6-.6-.3-.5-.6-.6-.2-1.4-.3-.6-.3Zm-25.2-24.9.3.3v27.2h-1.4v42.3l52.9-.3.6-2.9.3-1.7.2-1.4.3-1.7.6-2.9.3-1.7.3-1.4.3-1.7.2-1.5.3-1.7.6-2.8.3-1.8.3-1.4.3-1.7.2-1.4.3-1.8.6-2.8.3-1.7.3-1.5.3-1.7.5-2.8.3-1.8.3-1.4.3-1.7.3-1.4.3-1.8.5-2.8.3-1.7.3-1.5.3-1.7.3-1.4.3-1.7.5-2.9.3-1.7.3-1.4.3-1.7.6-2.9Z"/><g class="cls-28"><rect class="cls-29" x="1273.5" y="261.7" width="65.8" height="69.8"/></g><rect class="cls-30" x="1256.6" y="419.3" width="25.2" height="50.35"/><text class="cls-31" transform="translate(1210.2 173.3)">8</text><text class="cls-32" transform="translate(1166.7 114.2)">TYPE D</text><text class="cls-33" transform="translate(1146.9 141.3)">2-Bedroom</text></svg>