<svg id="Layer_9" data-name="Layer 9" xmlns="http://www.w3.org/2000/svg" xmlns:xlink="http://www.w3.org/1999/xlink" viewBox="0 0 1920 944"><defs><style>.cls-1,.cls-5{fill:url(#radial-gradient);}.cls-1,.cls-2,.cls-3{clip-rule:evenodd;}.cls-10,.cls-2,.cls-8{fill:url(#radial-gradient-2);}.cls-11,.cls-13,.cls-3{fill:url(#radial-gradient-3);}.cls-4{fill:#f8f6f1;}.cls-11,.cls-5,.cls-8{fill-rule:evenodd;}.cls-6{clip-path:url(#clip-path);}.cls-10,.cls-13,.cls-7{opacity:0.1;}.cls-7{fill:url(#radial-gradient-5);}.cls-9{clip-path:url(#clip-path-2);}.cls-12{clip-path:url(#clip-path-3);}.cls-14,.cls-15{font-size:21px;}.cls-14{fill:#A49C87;letter-spacing:0.05em;}.cls-14,.cls-16{font-family:Campton-Medium, Campton;font-weight:500;}.cls-15{fill:#033348;font-family:Campton-Light, Campton;font-weight:300;letter-spacing:0.02em;}.cls-16{font-size:24px;fill:#ccc09c;}</style><radialGradient id="radial-gradient" cx="1076.65" cy="305.32" r="29.06" gradientUnits="userSpaceOnUse"><stop offset="0" stop-color="#fff"/><stop offset="0.86" stop-color="#A49C87"/></radialGradient><radialGradient id="radial-gradient-2" cx="1047.33" cy="316.05" r="67.32" xlink:href="#radial-gradient"/><radialGradient id="radial-gradient-3" cx="1082.08" cy="245.96" r="26.35" xlink:href="#radial-gradient"/><clipPath id="clip-path"><path id="SVGID" class="cls-1" d="M1097.5,316.5l-.5.3-1.2,1.1-.3.9v2h.3v.5h.3l.3.3v.6h.6l.5.6,2,.3v-.3l.9-.3.6-.3.5-.6.3-.5.3-2.9-1.7-1.7Zm-29.1-31.8-.6.3v30h.3l.3.3,33.4.3v-.3l.3-30.6Zm29.1-7.7-.5.3-.6.6-.3.5-.3.3-.3.6v2h.3v.8h.3l.9.9.5.3,1.7.6v-.3l.9-.3.6-.3.8-.9.3-.5.3-2.6h-.3v-.6l-1.1-1.1-.6-.3Zm-45.7-3.7v47.5h-.9v14.8h.9v1.8h17.4V326.2h1.4v11.2l31.8-.3h-31.5V326.2h31.5V273.3Z"/></clipPath><radialGradient id="radial-gradient-5" cx="1076.65" cy="305.32" r="29.06" xlink:href="#radial-gradient"/><clipPath id="clip-path-2"><path id="SVGID-2" data-name="SVGID" class="cls-2" d="M1094.7,357.1l-6.6.3v1.1h6.6v.9h.5v-.9h6.6v-1.1l-6.6-.3Zm-88.4-.6-.3.3.3.3v.6h.3l.2.3v-.3l.3-.3.3-.6-.3-.3Zm88.1-.8-.3.3.6.5.8.3v-1.1Zm-71.5-21.8.3.3v-.3Zm-1.5,0,1.2.3v-.3Zm-10.5,0,1.4.3v-.3Zm9.7-.3.3.3v-.3Zm-6.6,0,.3.3v-.3Zm-4,0,.3.3v-.3Zm22.3-7.1.3.3v-.3Zm-30-1.2v.9l.3-.9Zm0-1.7v1.2l.3-1.2Zm6.3-8.6-.3.3.3.3,1.4.3v-.3h3.4l-3.4.3-.9.3-.3.6-.2.3-3.5.2-.8.9-.3.9-.3,2.2-.3.3-.6.3v-.6l-.2-.2h-.6l-.3.2.3.3-.3,1.7-.3,1.5.3.3v1.1h.3l-.3,1.7v.6l.9-.3.2-.9h.3v.6h.6l.3.3v2h.3v1.2h.3v.5h.5l.6.3,2.9.3.8.9-.3.2v-.2h-.3l-.5.5v.6h2.3l2.8.3v-.3h1.7l.6.3v-.3l.3-.6-.6-.5h-.3l-.2.2v-.2l.8-.9h3.7l.6.6-.3.5v-.2h-.3l-.5.5.2.3,2,.3,1.5.3.3.3v-.3l1.1-.3h2l.3.3v-.3l.3-.9-.3-.2h-.6l-.3.2v-.2l.9-.9,2.9-.3.5-.3.9-.8.3-2.9.3-.3.5-.3.3-.3h.3l-.3.3.6.6v.6l.3-.3.3-.6-.3-.3.3-4.8h-.3v-.6l-.3-.3h.6v-.6l-.3-.2h-.6l-.3.2v.6h.3v.9h.3l-.3.8v-.8h-.3v-.9l-.6-.6h-.5v-2.8l-.3-.3h-.6v-.6l-.3-.3-3.4-.2-1.1-1.2h.5v.6l.6-.6.3-.6-.3-.3h-.6l-.8.3V315h-4l-1.2.3V315h-.6l-.2.3.8.9v-.3l.9-.3h3.4l-3.4.3-.9.3-.3.6-.3.3-3.4.2v-.2l-.8-.9-.6-.3h.8l.3.3v-.3l.3-.9h-.6l-.8.3V315h-4l-1.2.3V315Zm11.7-59.7-1.4.2-.3.3-.6.3-1.1,1.2-.3.8v5.2h-12l-.9.8-.6.3-.3.9-.2.5-4.6.3-.9.3-1.1,1.2-.3.8-.6,1.2-.6,3.4v21.2h.3v2.3h.3v1.4h.3V299h.3l.3.3v.6h.3l.8.8.9.3,4.3.3.3.3v.6h.2v.8h.3v.9h.6l.3.3,1.7.8,35.5.3V305l.8-.3.6-.2.3-.3.6-.3.3-.3.5-1.7.3-4h4.6V270.7h-4.6v-4.6h-.3v-.5h-.3v-.9l-.5-.6-.6-.3-.3-.2-.6-.3h-12v-4.9h-.3v-.9l-2-2-1.1-.2Zm30-16.9-.5.3-1.8.8-.8.3-2.9,1.4-.8.3-2.3,1.2-.9.3-2.8,1.4-.9.3-2.3,1.1-.8.3-2.9,1.4-.9.3-2.3,1.2-.8.2-2.9,1.5-.8.3-2.3,1.1-.9.3-2.8,1.4-.9.3-2.3,1.2-.8.2L1010,257l-.9.3-2.3,1.1-.8.3-2.9,1.4-.8.3-2.3,1.2-.9.2-2.8,1.5-.9.3-2.3,1.1-.8.3v84.9l19.1-.2.3-1.8.3-.5.9-.9h3.1l.6.3.8.9v2.2h3.2v-2l1.4-1.4h3.2l.5.3.9.9v2.2h6.3v14.4H992.3V382l.2-1.7h26.9v12.8h13.5V380.3h.8v6h27.8v6.8h11.7v.6h16.3v-.6h1.2V369.4H1050v-14h1.8v2.3h20v8.6l4.6-.3.2-9.8,1.2-1.1.6-.3h2.3l.5.3,1.5,1.4v9.8h4.5v-6.6h15.2v-16h-.6v-1.2h.6v-3.7h-36l-.3.9v-.9h-10l-.3.9v-.9h-4v1.7H1050v-4.9h.9V320.8h-.9v-51h.9V238.4Z"/></clipPath><clipPath id="clip-path-3"><path id="SVGID-3" data-name="SVGID" class="cls-3" d="M1074.4,242.7l-.6.3-.6.2-.6.6-.5.3-.6.6-.6.3-.3.2-.2.6-.3.3-.3.6-.3.3-.6,1.1-.3,1.4v2.9h.3v1.4h.3v.6h.3v.6h.3v.5h.3v.6h.3l.5.6.6.3.6.5.5.3.6.6,1.2.3.8.3.6.3,2.6.2v-.2l1.1-.6,1.4-.3.6-.3,2.9-2.8.3-.6.2-1.2.3-.5.3-4h-.3v-.9h-.3v-.6h-.2V247h-.3v-.6l-.3-.3h-.3v-.6l-1.1-1.1-.6-.3-.6-.6-1.1-.5-.9-.3Zm10.8-20.6-.5.3-1.8.8-.8.3-2.9,1.4-.8.3-2.9,1.4-.9.3-2.8,1.5-.9.3-2.3,1.1-.8.3-2.9,1.4-.8.3-2.9,1.4-.9.3-2.8,1.4-.9.3-2.3,1.2-.8.3v33.1h50.6V257.5h6.6V257l-.3-.3h-.3v-.6l-.3-.3h-.3v-.5l-.5-.6h-.3v-.6l-.3-.3h-.3v-.5l-.3-.3h-.3v-.6l-.5-.6h-.3v-.5l-.3-.3h-.3v-.6l-.3-.3h-.3v-.6l-.5-.5h-.3v-.6l-.3-.3h-.3v-.6l-.3-.3h-.3v-.5l-.5-.6h-.3v-.6l-.3-.3h-.3v-.5l-.3-.3h-.3v-.6l-.5-.6h-.3v-.5l-.3-.3h-.3v-.6l-.3-.3h-.3V241l-.5-.6h-.3v-.6l-.3-.3h-.3V239l-.6-.6h-.3v-.6l-.2-.3h-.3v-.6l-.3-.2h-.3v-.6l-.6-.6h-.3v-.6l-.2-.2h-.3v-.6l-.3-.3h-.3v-.6l-.6-.5h-.3v-.6l-.2-.3h-.3v-.6l-.3-.3h-.3v-.5l-.6-.6h-.3v-.6l-.2-.3h-.3v-.5l-.3-.3h-.3v-.6l-.6-.6h-.3v-.5l-.2-.3h-.3v-.6l-.3-.3h-.3v-.6l-.6-.5h-.3v-.6l-.3-.3h-.2v-.6l-.6-.5Z"/></clipPath></defs><title>floorplansC</title><rect class="cls-4" x="962" y="81" width="165" height="99"/><path id="SVGID-4" data-name="SVGID" class="cls-5" d="M1097.5,316.5l-.5.3-1.2,1.1-.3.9v2h.3v.5h.3l.3.3v.6h.6l.5.6,2,.3v-.3l.9-.3.6-.3.5-.6.3-.5.3-2.9-1.7-1.7Zm-29.1-31.8-.6.3v30h.3l.3.3,33.4.3v-.3l.3-30.6Zm29.1-7.7-.5.3-.6.6-.3.5-.3.3-.3.6v2h.3v.8h.3l.9.9.5.3,1.7.6v-.3l.9-.3.6-.3.8-.9.3-.5.3-2.6h-.3v-.6l-1.1-1.1-.6-.3Zm-45.7-3.7v47.5h-.9v14.8h.9v1.8h17.4V326.2h1.4v11.2l31.8-.3h-31.5V326.2h31.5V273.3Z"/><g class="cls-6"><rect class="cls-7" x="1050.9" y="273.3" width="51.5" height="64.08"/></g><path id="SVGID-5" data-name="SVGID" class="cls-8" d="M1094.7,357.1l-6.6.3v1.1h6.6v.9h.5v-.9h6.6v-1.1l-6.6-.3Zm-88.4-.6-.3.3.3.3v.6h.3l.2.3v-.3l.3-.3.3-.6-.3-.3Zm88.1-.8-.3.3.6.5.8.3v-1.1Zm-71.5-21.8.3.3v-.3Zm-1.5,0,1.2.3v-.3Zm-10.5,0,1.4.3v-.3Zm9.7-.3.3.3v-.3Zm-6.6,0,.3.3v-.3Zm-4,0,.3.3v-.3Zm22.3-7.1.3.3v-.3Zm-30-1.2v.9l.3-.9Zm0-1.7v1.2l.3-1.2Zm6.3-8.6-.3.3.3.3,1.4.3v-.3h3.4l-3.4.3-.9.3-.3.6-.2.3-3.5.2-.8.9-.3.9-.3,2.2-.3.3-.6.3v-.6l-.2-.2h-.6l-.3.2.3.3-.3,1.7-.3,1.5.3.3v1.1h.3l-.3,1.7v.6l.9-.3.2-.9h.3v.6h.6l.3.3v2h.3v1.2h.3v.5h.5l.6.3,2.9.3.8.9-.3.2v-.2h-.3l-.5.5v.6h2.3l2.8.3v-.3h1.7l.6.3v-.3l.3-.6-.6-.5h-.3l-.2.2v-.2l.8-.9h3.7l.6.6-.3.5v-.2h-.3l-.5.5.2.3,2,.3,1.5.3.3.3v-.3l1.1-.3h2l.3.3v-.3l.3-.9-.3-.2h-.6l-.3.2v-.2l.9-.9,2.9-.3.5-.3.9-.8.3-2.9.3-.3.5-.3.3-.3h.3l-.3.3.6.6v.6l.3-.3.3-.6-.3-.3.3-4.8h-.3v-.6l-.3-.3h.6v-.6l-.3-.2h-.6l-.3.2v.6h.3v.9h.3l-.3.8v-.8h-.3v-.9l-.6-.6h-.5v-2.8l-.3-.3h-.6v-.6l-.3-.3-3.4-.2-1.1-1.2h.5v.6l.6-.6.3-.6-.3-.3h-.6l-.8.3V315h-4l-1.2.3V315h-.6l-.2.3.8.9v-.3l.9-.3h3.4l-3.4.3-.9.3-.3.6-.3.3-3.4.2v-.2l-.8-.9-.6-.3h.8l.3.3v-.3l.3-.9h-.6l-.8.3V315h-4l-1.2.3V315Zm11.7-59.7-1.4.2-.3.3-.6.3-1.1,1.2-.3.8v5.2h-12l-.9.8-.6.3-.3.9-.2.5-4.6.3-.9.3-1.1,1.2-.3.8-.6,1.2-.6,3.4v21.2h.3v2.3h.3v1.4h.3V299h.3l.3.3v.6h.3l.8.8.9.3,4.3.3.3.3v.6h.2v.8h.3v.9h.6l.3.3,1.7.8,35.5.3V305l.8-.3.6-.2.3-.3.6-.3.3-.3.5-1.7.3-4h4.6V270.7h-4.6v-4.6h-.3v-.5h-.3v-.9l-.5-.6-.6-.3-.3-.2-.6-.3h-12v-4.9h-.3v-.9l-2-2-1.1-.2Zm30-16.9-.5.3-1.8.8-.8.3-2.9,1.4-.8.3-2.3,1.2-.9.3-2.8,1.4-.9.3-2.3,1.1-.8.3-2.9,1.4-.9.3-2.3,1.2-.8.2-2.9,1.5-.8.3-2.3,1.1-.9.3-2.8,1.4-.9.3-2.3,1.2-.8.2L1010,257l-.9.3-2.3,1.1-.8.3-2.9,1.4-.8.3-2.3,1.2-.9.2-2.8,1.5-.9.3-2.3,1.1-.8.3v84.9l19.1-.2.3-1.8.3-.5.9-.9h3.1l.6.3.8.9v2.2h3.2v-2l1.4-1.4h3.2l.5.3.9.9v2.2h6.3v14.4H992.3V382l.2-1.7h26.9v12.8h13.5V380.3h.8v6h27.8v6.8h11.7v.6h16.3v-.6h1.2V369.4H1050v-14h1.8v2.3h20v8.6l4.6-.3.2-9.8,1.2-1.1.6-.3h2.3l.5.3,1.5,1.4v9.8h4.5v-6.6h15.2v-16h-.6v-1.2h.6v-3.7h-36l-.3.9v-.9h-10l-.3.9v-.9h-4v1.7H1050v-4.9h.9V320.8h-.9v-51h.9V238.4Z"/><g class="cls-9"><rect class="cls-10" x="992.3" y="238.4" width="110.1" height="155.34"/></g><path id="SVGID-6" data-name="SVGID" class="cls-11" d="M1074.4,242.7l-.6.3-.6.2-.6.6-.5.3-.6.6-.6.3-.3.2-.2.6-.3.3-.3.6-.3.3-.6,1.1-.3,1.4v2.9h.3v1.4h.3v.6h.3v.6h.3v.5h.3v.6h.3l.5.6.6.3.6.5.5.3.6.6,1.2.3.8.3.6.3,2.6.2v-.2l1.1-.6,1.4-.3.6-.3,2.9-2.8.3-.6.2-1.2.3-.5.3-4h-.3v-.9h-.3v-.6h-.2V247h-.3v-.6l-.3-.3h-.3v-.6l-1.1-1.1-.6-.3-.6-.6-1.1-.5-.9-.3Zm10.8-20.6-.5.3-1.8.8-.8.3-2.9,1.4-.8.3-2.9,1.4-.9.3-2.8,1.5-.9.3-2.3,1.1-.8.3-2.9,1.4-.8.3-2.9,1.4-.9.3-2.8,1.4-.9.3-2.3,1.2-.8.3v33.1h50.6V257.5h6.6V257l-.3-.3h-.3v-.6l-.3-.3h-.3v-.5l-.5-.6h-.3v-.6l-.3-.3h-.3v-.5l-.3-.3h-.3v-.6l-.5-.6h-.3v-.5l-.3-.3h-.3v-.6l-.3-.3h-.3v-.6l-.5-.5h-.3v-.6l-.3-.3h-.3v-.6l-.3-.3h-.3v-.5l-.5-.6h-.3v-.6l-.3-.3h-.3v-.5l-.3-.3h-.3v-.6l-.5-.6h-.3v-.5l-.3-.3h-.3v-.6l-.3-.3h-.3V241l-.5-.6h-.3v-.6l-.3-.3h-.3V239l-.6-.6h-.3v-.6l-.2-.3h-.3v-.6l-.3-.2h-.3v-.6l-.6-.6h-.3v-.6l-.2-.2h-.3v-.6l-.3-.3h-.3v-.6l-.6-.5h-.3v-.6l-.2-.3h-.3v-.6l-.3-.3h-.3v-.5l-.6-.6h-.3v-.6l-.2-.3h-.3v-.5l-.3-.3h-.3v-.6l-.6-.6h-.3v-.5l-.2-.3h-.3v-.6l-.3-.3h-.3v-.6l-.6-.5h-.3v-.6l-.3-.3h-.2v-.6l-.6-.5Z"/><g class="cls-12"><rect class="cls-13" x="1053.5" y="222.1" width="57.2" height="47.77"/></g><text class="cls-14" transform="translate(1008.1 111.2)">TYPE C</text><text class="cls-15" transform="translate(988.9 138.3)">2-Bedroom</text><text class="cls-16" transform="translate(1038.5 174.3)">7</text></svg>