<svg id="Layer_14" data-name="Layer 14" xmlns="http://www.w3.org/2000/svg" xmlns:xlink="http://www.w3.org/1999/xlink" viewBox="0 0 1920 944"><defs><style>.cls-1,.cls-5,.cls-7{fill:url(#radial-gradient);}.cls-1,.cls-2,.cls-3{clip-rule:evenodd;}.cls-2,.cls-8{fill:url(#radial-gradient-2);}.cls-11,.cls-13,.cls-3{fill:url(#radial-gradient-3);}.cls-4{fill:#f8f6f1;}.cls-11,.cls-5,.cls-8{fill-rule:evenodd;}.cls-6{clip-path:url(#clip-path);}.cls-10,.cls-13,.cls-7{opacity:0.1;}.cls-9{clip-path:url(#clip-path-2);}.cls-10{fill:url(#radial-gradient-7);}.cls-12{clip-path:url(#clip-path-3);}.cls-14,.cls-15{font-size:21px;}.cls-14{fill:#A49C87;letter-spacing:0.05em;}.cls-14,.cls-16{font-family:Campton-Medium, Campton;font-weight:500;}.cls-15{fill:#033348;font-family:Campton-Light, Campton;font-weight:300;letter-spacing:0.02em;}.cls-16{font-size:24px;fill:#ccc09c;}</style><radialGradient id="radial-gradient" cx="732.36" cy="566.65" r="72.69" gradientUnits="userSpaceOnUse"><stop offset="0" stop-color="#fff"/><stop offset="0.86" stop-color="#A49C87"/></radialGradient><radialGradient id="radial-gradient-2" cx="726.06" cy="586.1" r="88.24" xlink:href="#radial-gradient"/><radialGradient id="radial-gradient-3" cx="775.41" cy="670.93" r="29.18" xlink:href="#radial-gradient"/><clipPath id="clip-path"><path id="SVGID" class="cls-1" d="M797.9,630.2l-.3.2-.6.3-.3.6-.3.3-.2.6v2h.2v.8h.3l.9.9.6.3,1.7.5v-.2l.8-.3.6-.3.9-.9.2-.5.3-2.6h-.3v-.6l-.5-.6-.6-.3-.3-.2ZM769,598.1l-.3.3-.3,29.8.6.5,33.2.3v-.3h.5V598.1Zm29.2-7.4-.6.3-1.2,1.1-.2.9v1.7h.2v.8h.3l1.5,1.5,2.5.3V597l.9-.9.6-.3.2-.5.3-2.9-1.4-1.4-.6-.3Zm-18.4-47.2v42.3h-38V587h-.6v14.8h.6V603h7.7v38.3H803V585.5h-6.8v-42Zm-72.9-50.4-.3.3-.8.9-.3.8v1.7h.3v.9h.2l.6.6.9.3,1.7.3v-.3l1.1-.6.6-.6.3-2.8-1.4-1.5Zm-28,0v33.8h.2l.3.3,24.3.3v-.3l.6-.3.3-33.8Zm-5.5,0-.3.3-.5.6-.3,1.1-.3.6.3.3v.8h.3v.9h.3l.5.6.9.3,1.4.3v-.3l.9-.3.5-.3.3-.6.3-.3.3-2.3h-.3v-.5l-1.1-1.2Zm-1.7-1.1-.3,1.1-.5,2.9-.3,1.1-.9,4.3-.3,1.2-.8,4.3-.3,1.1-.9,4.3-.3,1.1-.8,4.3-.3,1.2-.9,4.3-.3,1.1-.8,4.3-.3,1.1-.9,4.3-.2,1.2L662,538l-.3,1.2,52.9.3v.8l.3-.8h7.4V521.7h-6.2V492Z"/></clipPath><clipPath id="clip-path-2"><path id="SVGID-2" data-name="SVGID" class="cls-2" d="M673.4,645.9l-.8.3-1.2.6-.3.5-1.1,1.2-.3.8-.3,1.2-.3.5.3.3v1.5h.3v1.7h.3l1.4,1.4v.6h.6l.6.3.8.3,2.3.5v-.3l1.2-.2.8-.3.6-.3,1.4-1.5.3-.5.3-.3.3-.6.3-1.1.2-1.7h-.2v-1.2h-.3V649l-.3-.2H680v-.6l-1.7-1.7-.6-.3-.8-.3Zm-4.6-7.7.3.3v-.3Zm-7.1-7.2.3.3V631Zm17.7-.8.3.2v-.2Zm-18,0v.5l.3-.5Zm-.3-1.5.3.3v-.3Zm.3-2v.9l.3-.9Zm18-.3.3.3v-.3Zm-17.7-6.3v.6l.3-.6Zm17.7-.5.3.3v-.3Zm-18-.3v.8l.3-.8Zm-.3-1.2.3.3v-.3Zm.3-2v.6l.3-.6Zm18-.2.3.2v-.2Zm17.5-6.1-.3.3-.6.3-.5.6-.3.6-.3.3-.3,1.7-1.7.3-.9.8-.6.3-.5,1.7-.3.6-.6,3.4v21.2h.3v2.3h.3v.5h.3v.9h.3V647h.2l.6.6v.6h.3l.3.3.9.3,1.4.2.3.3v.6h.3v.6h.2l.3.3.6.2.3.3.8.3,14.1.3-.3.3-.3.6-.3.2v4.3h.3v.9h.3v.9h.3v.5h.5l.9.9,1.4.3,1.7.3,1.5.2.3.3v-.3l1.4-.2,1.1-.3,1.5-.3.5-.3,1.5-1.4.2-6.3h-.2v-.6l9.4-.3.9-.3.5-.3,1.2-1.1.3-.6.2-37.2h-.2v-.5l-1.5-1.5-.5-.3Zm44-.8v26.9h6.6V609Zm-72.3-.9,3.1.3v-.3Zm-1.8-.5-.2.2.8.9v-.3h.9l-.9.3-.3.6-.3.3-2.5.2-.9.9-.3.6-.3,2.8-.8.9-.3.6V615l.3-.6-.3-.3h-.9l-.2.6.5.3-.5,1.1v3.2h.2v.6h.3l-.3.8-.2.3.8.9v-.3l.6-.6h.6l.2.3-.2,3.7-.6.6-.3.6v-.6l.3-.3-.3-.3h-.9l-.2.3.5.3-.3.8-.2.6v3.2h.2v.5h.3l-.3.6-.2.3.8.8v-.2l.6-.6h.6l.2.3V635h.3v.6h.3l.3.3,1.1.6,2,.2.9.9.6.3-.9.3v-.3h-.3l-.5.3.2.3v.5l.6-.3h1.7l1.5.3,1.1.3V639l.9-.3h1.1l.3.3v-.3l.3-.5-.3-.3h-.9l-.5.3-.9.3v-.3l.9-.3.5-.3.6-.6,1.7-.3.9-.2,1.1-.6.3-.3.3-3.4.3-.3.6-.3h.2l.9.8v-.2l.3-.6-.3-.3.3-1.4.3-2.3h-.3v-1.4l-.3-.3.3-.9h-.9l-.3.3.3.3-.3.6v-.3l-.5-.6H678v-3.7l1.1-1.2h.3l-.3.3v.6h.3l.6.6v-.3l.3-.6-.3-.3.3-1.4.3-2.6h-.3v-1.4l-.3-.3.3-.9h-.9l-.3.3v.6h.3l-.3.3V615l-.5-.6H678V611l-1.1-1.2-2.9-.2-1.1-1.2h.5l.6.3v-.3l.3-.8h-.6l-.8.2v-.2h-4.3l-.9.2v-.2Zm18.4-20.4-.3.6.3.3v.6l.8-.3.3-.9-.3-.3Zm-5.2,0v1.5h1.1v-1.5ZM667.4,581v14.3h21.2v.8h.3v.6h.3l1.1.6,1.1.2.6.3v-.3l1.2-.5.8-.9.3-.8h4v1.1h.3l.9.9,1.4.2.6.3v-.3l1.1-.5.6-.6.5-.3.3-.8h7.2V581ZM763,513.2v27.7h1.4V513.2Zm14.3-11.5-.3,19.8v-9.2h-3.7v.6h-.9v-.6h-2.6v1.1h-.5v-1.1h-7.5v29.5H777v-9.2h.3v9.2l3.7-.3h16V515.4h8.3v-4l-9.1-.2-.6-.6h-.3v-.9H795v-2l.3-1.4.6-.6h9.4v-4Zm-53.5-12V524h-1.5v14.9h1.5v2h-.6v24h-6.3V552.1H703.2v12.8H656.3l-.3,1.2-.6,2.8-.3,1.2-.6,2.8-.2,1.2-.6,2.8-.3,1.2-.6,2.9-.3,1.1L652,585l-.3,1.1-.6,2.9-.3,1.1-.5,2.9-.3,1.1-.6,2.9-.3,1.1-.6,2.9-.3,1.1-.5,2.9-.3,1.1-.3,3.2-.3,2.8v6.6h.3v3.2h.3v1.4h.3V625h.3v1.2h.2v1.1h.3v1.1h.3v1.5h.3v.5h.3v.6h.3v.6h.3v.8h.3v.9h.2v.9h.3v.5h.3v.6h.3v.9h.3v.5h.3v.6h.3v.9h.2l.3.3v.5h.3v.6h.3l.3.3v.6h.3v.5h.3l.2.3v.6h.3v.6h.3l.3.2v.6h.3l.3.3v.6h.3l.2.3v.5h.3l1.5,1.5v.5h.2l1.2,1.2v.6h.6l2.8,2.8.6.3,1.7,1.7,1.2.6.2.3.6.3.3.2.6.3.3.3.5.3.3.3.6.3.3.3.6.3.5.5,2.3,1.2.3.3.9.2,2.8,1.5,2.6.8.6.3,9.4,3.2.6.2,9.4,3.2.6.3,9.4,3.1.6.3,9.4,3.2.6.2,9.5,3.2.5.3,9.5,3.1.5.3V641.3h6.9V604.7h-7.7v-2.9h1.1V587h-1.1V573.2h1.7v.9h12.6v8.6l4-.3.3-9.5.3-.2.2-.6.6-.6.6-.3h2.3l.6.3,1.1,1.2v.5h.3v9.5H769v-12l-1.2-.3H769v-9.8l-.9-.2h.9V543.5h-3.7v.6h-1.2v-.6H746.9v6.8h.9v-6h1.4v6l.3-.5h1.2l-.3,1.1-.3.3v-.3l-.6-.3h-.3v6h-1.4v-6h-.9v6.9h10.9l-16.3.3v.6h-1.4V512.3h5.1v-6.9h1.7v5.5h28.9v-9.2h-.2v8.9H764.7V489.7H746.9v1.7h-1.7v-1.7Z"/></clipPath><radialGradient id="radial-gradient-7" cx="726.06" cy="586.1" r="88.24" xlink:href="#radial-gradient"/><clipPath id="clip-path-3"><path id="SVGID-3" data-name="SVGID" class="cls-3" d="M765.3,657.3l-.6.3-1.7.9-2,2-1.2,2.3-.3,1.1v3.2h.3v1.1h.3v.6h.3v.6h.3v.5h.3v.6h.3l.5.6v.5h.6l.6.3.3.3.5.3.3.3,1.2.6,1.4.2,2.6.3v-.3l1.1-.2.9-.3,1.7-.9,2-2,.3-.6.5-1.7.3-.6.3-3.7h-.3v-.5h-.3v-1.2h-.2v-.6l-.6-.5h-.3v-.6l-.9-.9-.5-.2-.9-.9-1.1-.6-.9-.3Zm-21.8-12.6v40.1h.9l4.3,1.4.5.3,4.3,1.4.6.3,5.1,1.8.6.2,4.3,1.5.6.3,4.3,1.4.5.3,1.2.3,8.6,2.8,1.1.3v-.3l.3-.3.3-.5.3-.3.3-.6.2-.3.3-.6.6-.5.3-.6.3-.3.3-.6.3-.2.2-.6.3-.3.3-.6.6-.5.3-.6.3-.3.2-.6.3-.3.3-.5.3-.3.3-.6.6-.6.2-.5.3-.3.3-.6.3-.3.3-.6.3-.2.3-.6.5-.6.3-.6.3-.2.3-.6.3-.3.3-.6.2-.3.3-.5.6-.6.3-.6.3-.3.3-.5.2-.3.3-.6.6-.6.3-.5.3-.3.3-.6.3-.3.2-.6.3-.2.3-.6.6-.6.3-.6.3-.2.2-.6.3-.3.3-.6.3-.3.3-.5.6-.6.2-.6.3-.3.3-.5.3-.3.3-.6.3-.3.3-.6.5-.5.3-.6.3-.3.3-.6.3-.2.3-.6.2-.3.3-.6.6-.5.3-.6.3-.3.3-.6.3-.3.2-.5.3-.3.3-2.6h-.8v-.6h-3.8V644.7Z"/></clipPath></defs><title>floorplansH</title><rect class="cls-4" x="665" y="750" width="165" height="99"/><path id="SVGID-4" data-name="SVGID" class="cls-5" d="M797.9,630.2l-.3.2-.6.3-.3.6-.3.3-.2.6v2h.2v.8h.3l.9.9.6.3,1.7.5v-.2l.8-.3.6-.3.9-.9.2-.5.3-2.6h-.3v-.6l-.5-.6-.6-.3-.3-.2ZM769,598.1l-.3.3-.3,29.8.6.5,33.2.3v-.3h.5V598.1Zm29.2-7.4-.6.3-1.2,1.1-.2.9v1.7h.2v.8h.3l1.5,1.5,2.5.3V597l.9-.9.6-.3.2-.5.3-2.9-1.4-1.4-.6-.3Zm-18.4-47.2v42.3h-38V587h-.6v14.8h.6V603h7.7v38.3H803V585.5h-6.8v-42Zm-72.9-50.4-.3.3-.8.9-.3.8v1.7h.3v.9h.2l.6.6.9.3,1.7.3v-.3l1.1-.6.6-.6.3-2.8-1.4-1.5Zm-28,0v33.8h.2l.3.3,24.3.3v-.3l.6-.3.3-33.8Zm-5.5,0-.3.3-.5.6-.3,1.1-.3.6.3.3v.8h.3v.9h.3l.5.6.9.3,1.4.3v-.3l.9-.3.5-.3.3-.6.3-.3.3-2.3h-.3v-.5l-1.1-1.2Zm-1.7-1.1-.3,1.1-.5,2.9-.3,1.1-.9,4.3-.3,1.2-.8,4.3-.3,1.1-.9,4.3-.3,1.1-.8,4.3-.3,1.2-.9,4.3-.3,1.1-.8,4.3-.3,1.1-.9,4.3-.2,1.2L662,538l-.3,1.2,52.9.3v.8l.3-.8h7.4V521.7h-6.2V492Z"/><g class="cls-6"><rect class="cls-7" x="661.7" y="492" width="141.3" height="149.33"/></g><path id="SVGID-5" data-name="SVGID" class="cls-8" d="M673.4,645.9l-.8.3-1.2.6-.3.5-1.1,1.2-.3.8-.3,1.2-.3.5.3.3v1.5h.3v1.7h.3l1.4,1.4v.6h.6l.6.3.8.3,2.3.5v-.3l1.2-.2.8-.3.6-.3,1.4-1.5.3-.5.3-.3.3-.6.3-1.1.2-1.7h-.2v-1.2h-.3V649l-.3-.2H680v-.6l-1.7-1.7-.6-.3-.8-.3Zm-4.6-7.7.3.3v-.3Zm-7.1-7.2.3.3V631Zm17.7-.8.3.2v-.2Zm-18,0v.5l.3-.5Zm-.3-1.5.3.3v-.3Zm.3-2v.9l.3-.9Zm18-.3.3.3v-.3Zm-17.7-6.3v.6l.3-.6Zm17.7-.5.3.3v-.3Zm-18-.3v.8l.3-.8Zm-.3-1.2.3.3v-.3Zm.3-2v.6l.3-.6Zm18-.2.3.2v-.2Zm17.5-6.1-.3.3-.6.3-.5.6-.3.6-.3.3-.3,1.7-1.7.3-.9.8-.6.3-.5,1.7-.3.6-.6,3.4v21.2h.3v2.3h.3v.5h.3v.9h.3V647h.2l.6.6v.6h.3l.3.3.9.3,1.4.2.3.3v.6h.3v.6h.2l.3.3.6.2.3.3.8.3,14.1.3-.3.3-.3.6-.3.2v4.3h.3v.9h.3v.9h.3v.5h.5l.9.9,1.4.3,1.7.3,1.5.2.3.3v-.3l1.4-.2,1.1-.3,1.5-.3.5-.3,1.5-1.4.2-6.3h-.2v-.6l9.4-.3.9-.3.5-.3,1.2-1.1.3-.6.2-37.2h-.2v-.5l-1.5-1.5-.5-.3Zm44-.8v26.9h6.6V609Zm-72.3-.9,3.1.3v-.3Zm-1.8-.5-.2.2.8.9v-.3h.9l-.9.3-.3.6-.3.3-2.5.2-.9.9-.3.6-.3,2.8-.8.9-.3.6V615l.3-.6-.3-.3h-.9l-.2.6.5.3-.5,1.1v3.2h.2v.6h.3l-.3.8-.2.3.8.9v-.3l.6-.6h.6l.2.3-.2,3.7-.6.6-.3.6v-.6l.3-.3-.3-.3h-.9l-.2.3.5.3-.3.8-.2.6v3.2h.2v.5h.3l-.3.6-.2.3.8.8v-.2l.6-.6h.6l.2.3V635h.3v.6h.3l.3.3,1.1.6,2,.2.9.9.6.3-.9.3v-.3h-.3l-.5.3.2.3v.5l.6-.3h1.7l1.5.3,1.1.3V639l.9-.3h1.1l.3.3v-.3l.3-.5-.3-.3h-.9l-.5.3-.9.3v-.3l.9-.3.5-.3.6-.6,1.7-.3.9-.2,1.1-.6.3-.3.3-3.4.3-.3.6-.3h.2l.9.8v-.2l.3-.6-.3-.3.3-1.4.3-2.3h-.3v-1.4l-.3-.3.3-.9h-.9l-.3.3.3.3-.3.6v-.3l-.5-.6H678v-3.7l1.1-1.2h.3l-.3.3v.6h.3l.6.6v-.3l.3-.6-.3-.3.3-1.4.3-2.6h-.3v-1.4l-.3-.3.3-.9h-.9l-.3.3v.6h.3l-.3.3V615l-.5-.6H678V611l-1.1-1.2-2.9-.2-1.1-1.2h.5l.6.3v-.3l.3-.8h-.6l-.8.2v-.2h-4.3l-.9.2v-.2Zm18.4-20.4-.3.6.3.3v.6l.8-.3.3-.9-.3-.3Zm-5.2,0v1.5h1.1v-1.5ZM667.4,581v14.3h21.2v.8h.3v.6h.3l1.1.6,1.1.2.6.3v-.3l1.2-.5.8-.9.3-.8h4v1.1h.3l.9.9,1.4.2.6.3v-.3l1.1-.5.6-.6.5-.3.3-.8h7.2V581ZM763,513.2v27.7h1.4V513.2Zm14.3-11.5-.3,19.8v-9.2h-3.7v.6h-.9v-.6h-2.6v1.1h-.5v-1.1h-7.5v29.5H777v-9.2h.3v9.2l3.7-.3h16V515.4h8.3v-4l-9.1-.2-.6-.6h-.3v-.9H795v-2l.3-1.4.6-.6h9.4v-4Zm-53.5-12V524h-1.5v14.9h1.5v2h-.6v24h-6.3V552.1H703.2v12.8H656.3l-.3,1.2-.6,2.8-.3,1.2-.6,2.8-.2,1.2-.6,2.8-.3,1.2-.6,2.9-.3,1.1L652,585l-.3,1.1-.6,2.9-.3,1.1-.5,2.9-.3,1.1-.6,2.9-.3,1.1-.6,2.9-.3,1.1-.5,2.9-.3,1.1-.3,3.2-.3,2.8v6.6h.3v3.2h.3v1.4h.3V625h.3v1.2h.2v1.1h.3v1.1h.3v1.5h.3v.5h.3v.6h.3v.6h.3v.8h.3v.9h.2v.9h.3v.5h.3v.6h.3v.9h.3v.5h.3v.6h.3v.9h.2l.3.3v.5h.3v.6h.3l.3.3v.6h.3v.5h.3l.2.3v.6h.3v.6h.3l.3.2v.6h.3l.3.3v.6h.3l.2.3v.5h.3l1.5,1.5v.5h.2l1.2,1.2v.6h.6l2.8,2.8.6.3,1.7,1.7,1.2.6.2.3.6.3.3.2.6.3.3.3.5.3.3.3.6.3.3.3.6.3.5.5,2.3,1.2.3.3.9.2,2.8,1.5,2.6.8.6.3,9.4,3.2.6.2,9.4,3.2.6.3,9.4,3.1.6.3,9.4,3.2.6.2,9.5,3.2.5.3,9.5,3.1.5.3V641.3h6.9V604.7h-7.7v-2.9h1.1V587h-1.1V573.2h1.7v.9h12.6v8.6l4-.3.3-9.5.3-.2.2-.6.6-.6.6-.3h2.3l.6.3,1.1,1.2v.5h.3v9.5H769v-12l-1.2-.3H769v-9.8l-.9-.2h.9V543.5h-3.7v.6h-1.2v-.6H746.9v6.8h.9v-6h1.4v6l.3-.5h1.2l-.3,1.1-.3.3v-.3l-.6-.3h-.3v6h-1.4v-6h-.9v6.9h10.9l-16.3.3v.6h-1.4V512.3h5.1v-6.9h1.7v5.5h28.9v-9.2h-.2v8.9H764.7V489.7H746.9v1.7h-1.7v-1.7Z"/><g class="cls-9"><rect class="cls-10" x="646.8" y="489.7" width="158.5" height="192.82"/></g><path id="SVGID-6" data-name="SVGID" class="cls-11" d="M765.3,657.3l-.6.3-1.7.9-2,2-1.2,2.3-.3,1.1v3.2h.3v1.1h.3v.6h.3v.6h.3v.5h.3v.6h.3l.5.6v.5h.6l.6.3.3.3.5.3.3.3,1.2.6,1.4.2,2.6.3v-.3l1.1-.2.9-.3,1.7-.9,2-2,.3-.6.5-1.7.3-.6.3-3.7h-.3v-.5h-.3v-1.2h-.2v-.6l-.6-.5h-.3v-.6l-.9-.9-.5-.2-.9-.9-1.1-.6-.9-.3Zm-21.8-12.6v40.1h.9l4.3,1.4.5.3,4.3,1.4.6.3,5.1,1.8.6.2,4.3,1.5.6.3,4.3,1.4.5.3,1.2.3,8.6,2.8,1.1.3v-.3l.3-.3.3-.5.3-.3.3-.6.2-.3.3-.6.6-.5.3-.6.3-.3.3-.6.3-.2.2-.6.3-.3.3-.6.6-.5.3-.6.3-.3.2-.6.3-.3.3-.5.3-.3.3-.6.6-.6.2-.5.3-.3.3-.6.3-.3.3-.6.3-.2.3-.6.5-.6.3-.6.3-.2.3-.6.3-.3.3-.6.2-.3.3-.5.6-.6.3-.6.3-.3.3-.5.2-.3.3-.6.6-.6.3-.5.3-.3.3-.6.3-.3.2-.6.3-.2.3-.6.6-.6.3-.6.3-.2.2-.6.3-.3.3-.6.3-.3.3-.5.6-.6.2-.6.3-.3.3-.5.3-.3.3-.6.3-.3.3-.6.5-.5.3-.6.3-.3.3-.6.3-.2.3-.6.2-.3.3-.6.6-.5.3-.6.3-.3.3-.6.3-.3.2-.5.3-.3.3-2.6h-.8v-.6h-3.8V644.7Z"/><g class="cls-12"><rect class="cls-13" x="743.5" y="644.7" width="63.8" height="52.35"/></g><text class="cls-14" transform="translate(710.6 799.2)">TYPE A</text><text class="cls-15" transform="translate(694.9 826.3)">2-Bedroom</text><text class="cls-16" transform="translate(743.8 767.6)">4</text></svg>