<svg id="Layer_12" data-name="Layer 12" xmlns="http://www.w3.org/2000/svg" xmlns:xlink="http://www.w3.org/1999/xlink" viewBox="0 0 1920 944"><defs><style>.cls-1,.cls-5{fill:url(#radial-gradient);}.cls-1,.cls-2,.cls-3{clip-rule:evenodd;}.cls-2,.cls-8{fill:url(#radial-gradient-2);}.cls-11,.cls-13,.cls-3{fill:url(#radial-gradient-3);}.cls-4{fill:#f8f6f1;}.cls-11,.cls-5,.cls-8{fill-rule:evenodd;}.cls-6{clip-path:url(#clip-path);}.cls-10,.cls-13,.cls-7{opacity:0.1;}.cls-7{fill:url(#radial-gradient-5);}.cls-9{clip-path:url(#clip-path-2);}.cls-10{fill:url(#radial-gradient-7);}.cls-12{clip-path:url(#clip-path-3);}.cls-14,.cls-15{font-size:21px;}.cls-14{fill:#A49C87;letter-spacing:0.05em;}.cls-14,.cls-16{font-family:Campton-Medium, Campton;font-weight:500;}.cls-15{fill:#033348;font-family:Campton-Light, Campton;font-weight:300;letter-spacing:0.02em;}.cls-16{font-size:24px;fill:#ccc09c;}</style><radialGradient id="radial-gradient" cx="1117.56" cy="641.46" r="51.56" gradientUnits="userSpaceOnUse"><stop offset="0" stop-color="#fff"/><stop offset="0.86" stop-color="#A49C87"/></radialGradient><radialGradient id="radial-gradient-2" cx="1080.08" cy="628.3" r="83.19" xlink:href="#radial-gradient"/><radialGradient id="radial-gradient-3" cx="1087.09" cy="697.96" r="27.25" xlink:href="#radial-gradient"/><clipPath id="clip-path"><path id="SVGID" class="cls-1" d="M1172.8,672.5l-.9.3-.8.8-.3,1.2-.3.8.3.3v.6h.3v.9h.2v.5h.3l.3.3.6.3.3.3,2.3.3v-.3l.2-.3.6-.3.3-.3.6-.3.3-.5.2-2.9-1.4-1.4-.6-.3Zm-112.7-14.3-.6.3-.6.3-.3.5-.3.3-.2.6v1.7h.2v.9h.3l.9.8.6.3,1.7.3v-.3l.5-.3,1.2-1.1.3-2.6-1.5-1.4-.5-.3Zm83.2-17.5-.3.3v29.8h.3l.3.3v.5l33.2-.2.3-.3.2-30.4Zm29.5-7.7-.9.3-.6.6-.2.8-.3.6-.3.9.3.3v.8h.3v.9h.2v.5h.3l.3.3,2.6.9v-.3l.6-.3.8-.3.9-.8.3-.6.2-2.6h-.2v-.5l-1.2-1.2-.8-.3Zm-114.7-1.1v24.9h.2v.5l33.2-.2.6-.3.3-24.6-.3-.3Zm1.4-6.9-.3.3-.9.9-.2.8v1.7h.2v.9h.3l.6.3.3.3.6.2,1.7.3v-.3l1.1-.5.6-.6.3-2.9-1.5-1.4Zm59.2-5.4v34h.9v-34ZM1091,619v.6h-34.1v50.6h50.9V619.6h-2V619Zm48.6-18v23.2l.3-23.2Zm-27.5,0v.8h-.8v14.9h.8v1.4h9.2v63.8h56.9V625.6H1167V601h-16.3v24.6h-12.5V601Z"/></clipPath><radialGradient id="radial-gradient-5" cx="1117.56" cy="641.46" r="51.56" xlink:href="#radial-gradient"/><clipPath id="clip-path-2"><path id="SVGID-2" data-name="SVGID" class="cls-2" d="M1002.8,635.9l-1.1.3-.9.8-.5.3-.3.3-.3.9-.3.5v.9H996l-1.2,1.1-.3.9L994,643l-.3,2-.3,1.8v21.1h.3v2h.3v1.5h.3v.5h.2v.9h.3v.6h.3v.5h.6l.3.3.5.3.3.3,2.9.3v.8h.3l1.7,1.7,1.1.3,28.1.3-2,2-.3.6-.3.3-.3.8.6.6v.6h.3v.6h.3l.5.5v.9h.3v.8h.3l3.2,3.2.5.3,1.2.3.8.3v-.3l.3-.3.9-.3,1.1-.6.3-.3.6-.3.3-.2.5-.3,1.2-1.2.3-.5.5-.6.9-1.7.3-.9.3-2h-.3v-.6l-1.7-1.7,5.4-.3.9-.3.5-.2.6-.6.3-.6.6-.6.2-5.4h4.3V643H1050v-4.5h-.2v-.6l-1.5-1.4-.5-.3-.9-.3Zm22.4-11.2.5.3v-.3Zm-3.2,0,.3.3v-.3Zm-7.7,0,.8.3v-.3Zm-2.9,0,.6.3v-.3Zm-7.7-6.6.3.3v-.3Zm-.3-.8v.6l.3-.6Zm-.3-1.4.3.2v-.2Zm30.4-2v2.5l.2-2.5Zm-30.1,0v.8l.3-.8Zm12.3-6.9.3.3V607Zm5.7-.3.3.3v-.3Zm-6.5,0,.2.3v-.3Zm-4,0,.2.3v-.3Zm.8-.9-2,.3-.3.3.3.3.9.3-.6.3-.3.5-2.3.3-1.1.3-.6.3-.6.6-.3.5-.2,2.3-.6.6-.3.6v-.6l.3-.3-.3-.3h-.9l-.2.3.5.3-.3.9-.2.5v3.2h.2v.6h.3l-.3.5-.2.3.2.3.9.3V619h1.1v2.6h.3v.5h.3l.3.3,1.1.6,2.6.3.9.9.6.2-.6.3v-.3h-.6l-.3.3v.6h2.3l1.4.3,1.2.3v-.3l.8-.3h1.2l.3.3v-.3l.3-.6-.3-.3h-.9l-.3.3v-.3l.9-.8h4l.6.6.5.2-.5.3v-.3h-.6l-.3.3v.6h2.3l2.9.6v-.3l.5-.3h1.2l.3.3v-.3l.2-.6-.2-.3h-.9l-.3.3v-.3l.9-.8,2.5-.3,1.8-.9.5-1.1.3-2,.9-.9.3-.5h.3l-.3.5-.3.3.8.9v-.3l.3-.6-.3-.3.3-1.4.3-3.1h-.3v-.6l-.3-.3.3-.9h-.5l-.6.3.3.3v.6h.3l-.3.3v-.3l-.9-.9h-.3v-2.3h-.3v-.5h-.3V609l-.2-.3-1.2-.6-2.6-.3-.8-.8-1.2-.3h1.2l.6.3v-.3l.2-.6-2.2-.3h-2.9l-2,.3-.3.3.3.3.8.3-.8.8-3.7.3v-.5h-.3V607l.3-.3.3-.6-2.3-.3Zm121.9-13.7v.6h.6v-.6Zm-132.5-6.6v1.2h1.2v-1.2Zm-4.8,0-.3.3.3.3v.6l.8-.3.3-.9ZM1127,550.6v6.9h1.1v-6.3h1.5v13.4h-1.5v-6.5H1127v7.4h9.7l-9.7.3v.6h-5.4l-.3,1.1v-1.1H1119v4.3h9.7l.9.8-.3,3.7-.6.6-.8.3-8.9.3v22.9h14.6v-.9l-7.5-.3-.5-.3-.9-.3-1.1-.5-1.5-1.5h-.3v-1.1h-.2v-.9h-.3v-1.4l-.3-.3.6-1.7.2-.6.3-.8,1.8-1.7.8-.3.6-.3,1.4-.3h14.6l2.6.9,1.7,1.7v.6h.3v1.1h.3v.9h.3l-.3,2-.6,1.7-.6,1.1-1.1,1.2-.9.2-1.1.6-2.3.3-5.7.3v.6h34.3V572.7h-4.9l-.3.8v-.8h-9.7l-.3.8v-.8h-5.1V550.6Zm-58.9-.3-.9.3v12h-1.7v-1.4h-20.9V550.6h-.3v35.8l14-.3h-13.7v-6.6h13.7V579h7.2v-1.5h1.7v3.2h-.6v12.8h.3V595l-8.6-.3h-13.7v-6.6l13.7-.3h-14V595h-1.4V562.9h-7.7V550.6h-13.5v12.3H992.3V579h35.4v14.5h-7.4l-.3,2-.9.9-1.1.6-1.7.3V597l-.6-.3-.8-.9h-.3v-1.1h-.3v-1.2h-4.6l-.3,2.3-.6.3-.2.3-1.2.6-1.4.3V597l-.9-.3-.8-.9h-.3v-1.1h-.3v-1.2H992.3l-.3,83.3v.6h.8l2.3,1.1.9.3,2.3,1.1.8.3,2.3,1.2.9.3,2.8,1.4.9.3,2.3,1.1.8.3,2.3,1.1.9.3,2.8,1.5.9.2,2.3,1.2.8.3,2.3,1.1.9.3,2.9,1.4.8.3,2.3,1.2.9.3,2.2,1.1.9.3,2.9,1.4.8.3,2.3,1.1.9.3,2.3,1.2.8.3,2.9,1.4.8.3,2.3,1.1.9.3,2.3,1.2.8.2,2.9,1.5.3.3V618.1H1091v.9h14.8v-.9h4.6v-1.4h.9V601.8h-.9V601h-4.6v-1.7h1.2V581h8.3v-4.3l-2.6-.3-6.3-.3-.6-.3h-.8v-.6l-.6-.5h-.3v-2.6l.6-.6.3-.6.5-.2.3-.3h9.5v-4.6h-5.5v-7.4h-.8v6.5h-1.5v-6.5h-.5l-.6.5v-.3l-.6-.5.3-.9h.9l.5.6v-6.6h1.5v6.6h.8v-7.2h-15.4l-1.2.3v-.3h-3.7v36.6h1.2l-1.2.3v10h1.2l-1.2.3v1.5h1.5V601h-3.2V550.6l-3.4-.3Z"/></clipPath><radialGradient id="radial-gradient-7" cx="1080.08" cy="628.3" r="83.19" xlink:href="#radial-gradient"/><clipPath id="clip-path-3"><path id="SVGID-3" data-name="SVGID" class="cls-3" d="M1078.7,684.2l-.6.3-1.7.9-.9.8-.3.6-.6.6-.2.5-.6.6-.6,1.2-.3,2.5V694h.3v1.1h.3v.6h.3v.8h.3l.5.6v.6h.3l.9.8.6.3,1.1,1.2,1.2.2,1.4.3,2.6.3v-.3l1.4-.3,2.3-1.1,2.3-2.3.5-1.1.3-.9.3-4.8h-.3v-.6h-.3v-.6h-.2v-.6l-.6-.5h-.3v-.6l-1.7-1.7-1.7-.9-.9-.3Zm-21.5-10.6v33.5h.9l2.8,1.4.9.3,2.8,1.5.9.2,2.9,1.5.8.3,3.4,1.7.9.3,2.9,1.4.8.3,2.9,1.4.8.3,3.5,1.7.8.3,4.6,2.3.9.3V722l.3-.3.2-.6.3-.3.3-.5.3-.3.3-.6.6-.6.2-.5.3-.3.3-.6.3-.3.3-.5.6-.6.2-.6.3-.3.3-.5.3-.3.3-.6.6-.6.2-.5.3-.3.3-.6.3-.3.3-.6.6-.5.2-.6.3-.3.3-.6.3-.3.3-.5.6-.6.3-.6.2-.3.3-.5.3-.3.3-.6.6-.6.3-.5.2-.3.3-.6.3-.3.3-.5.6-.6.3-.6.2-.3.3-.6.3-.2.3-.6.6-.6.3-.6.2-.2.3-.6.3-.3.3-.6.6-.5.3-.6.2-.3.3-.6.3-.3.3-.5.6-.6.3-.6.3-.3.2-.5.3-.3.3-.6.6-.6.3-.5.3-.3.2-.6.3-.3.3-.6.6-.5.3-.6.3-.3.2-.6.3-.2.3-.6.6-.6h-4.9V673.6Z"/></clipPath></defs><title>floorplansF</title><rect class="cls-4" x="962" y="750" width="165" height="99"/><path id="SVGID-4" data-name="SVGID" class="cls-5" d="M1172.8,672.5l-.9.3-.8.8-.3,1.2-.3.8.3.3v.6h.3v.9h.2v.5h.3l.3.3.6.3.3.3,2.3.3v-.3l.2-.3.6-.3.3-.3.6-.3.3-.5.2-2.9-1.4-1.4-.6-.3Zm-112.7-14.3-.6.3-.6.3-.3.5-.3.3-.2.6v1.7h.2v.9h.3l.9.8.6.3,1.7.3v-.3l.5-.3,1.2-1.1.3-2.6-1.5-1.4-.5-.3Zm83.2-17.5-.3.3v29.8h.3l.3.3v.5l33.2-.2.3-.3.2-30.4Zm29.5-7.7-.9.3-.6.6-.2.8-.3.6-.3.9.3.3v.8h.3v.9h.2v.5h.3l.3.3,2.6.9v-.3l.6-.3.8-.3.9-.8.3-.6.2-2.6h-.2v-.5l-1.2-1.2-.8-.3Zm-114.7-1.1v24.9h.2v.5l33.2-.2.6-.3.3-24.6-.3-.3Zm1.4-6.9-.3.3-.9.9-.2.8v1.7h.2v.9h.3l.6.3.3.3.6.2,1.7.3v-.3l1.1-.5.6-.6.3-2.9-1.5-1.4Zm59.2-5.4v34h.9v-34ZM1091,619v.6h-34.1v50.6h50.9V619.6h-2V619Zm48.6-18v23.2l.3-23.2Zm-27.5,0v.8h-.8v14.9h.8v1.4h9.2v63.8h56.9V625.6H1167V601h-16.3v24.6h-12.5V601Z"/><g class="cls-6"><rect class="cls-7" x="1056.9" y="601" width="121.3" height="80.96"/></g><path id="SVGID-5" data-name="SVGID" class="cls-8" d="M1002.8,635.9l-1.1.3-.9.8-.5.3-.3.3-.3.9-.3.5v.9H996l-1.2,1.1-.3.9L994,643l-.3,2-.3,1.8v21.1h.3v2h.3v1.5h.3v.5h.2v.9h.3v.6h.3v.5h.6l.3.3.5.3.3.3,2.9.3v.8h.3l1.7,1.7,1.1.3,28.1.3-2,2-.3.6-.3.3-.3.8.6.6v.6h.3v.6h.3l.5.5v.9h.3v.8h.3l3.2,3.2.5.3,1.2.3.8.3v-.3l.3-.3.9-.3,1.1-.6.3-.3.6-.3.3-.2.5-.3,1.2-1.2.3-.5.5-.6.9-1.7.3-.9.3-2h-.3v-.6l-1.7-1.7,5.4-.3.9-.3.5-.2.6-.6.3-.6.6-.6.2-5.4h4.3V643H1050v-4.5h-.2v-.6l-1.5-1.4-.5-.3-.9-.3Zm22.4-11.2.5.3v-.3Zm-3.2,0,.3.3v-.3Zm-7.7,0,.8.3v-.3Zm-2.9,0,.6.3v-.3Zm-7.7-6.6.3.3v-.3Zm-.3-.8v.6l.3-.6Zm-.3-1.4.3.2v-.2Zm30.4-2v2.5l.2-2.5Zm-30.1,0v.8l.3-.8Zm12.3-6.9.3.3V607Zm5.7-.3.3.3v-.3Zm-6.5,0,.2.3v-.3Zm-4,0,.2.3v-.3Zm.8-.9-2,.3-.3.3.3.3.9.3-.6.3-.3.5-2.3.3-1.1.3-.6.3-.6.6-.3.5-.2,2.3-.6.6-.3.6v-.6l.3-.3-.3-.3h-.9l-.2.3.5.3-.3.9-.2.5v3.2h.2v.6h.3l-.3.5-.2.3.2.3.9.3V619h1.1v2.6h.3v.5h.3l.3.3,1.1.6,2.6.3.9.9.6.2-.6.3v-.3h-.6l-.3.3v.6h2.3l1.4.3,1.2.3v-.3l.8-.3h1.2l.3.3v-.3l.3-.6-.3-.3h-.9l-.3.3v-.3l.9-.8h4l.6.6.5.2-.5.3v-.3h-.6l-.3.3v.6h2.3l2.9.6v-.3l.5-.3h1.2l.3.3v-.3l.2-.6-.2-.3h-.9l-.3.3v-.3l.9-.8,2.5-.3,1.8-.9.5-1.1.3-2,.9-.9.3-.5h.3l-.3.5-.3.3.8.9v-.3l.3-.6-.3-.3.3-1.4.3-3.1h-.3v-.6l-.3-.3.3-.9h-.5l-.6.3.3.3v.6h.3l-.3.3v-.3l-.9-.9h-.3v-2.3h-.3v-.5h-.3V609l-.2-.3-1.2-.6-2.6-.3-.8-.8-1.2-.3h1.2l.6.3v-.3l.2-.6-2.2-.3h-2.9l-2,.3-.3.3.3.3.8.3-.8.8-3.7.3v-.5h-.3V607l.3-.3.3-.6-2.3-.3Zm121.9-13.7v.6h.6v-.6Zm-132.5-6.6v1.2h1.2v-1.2Zm-4.8,0-.3.3.3.3v.6l.8-.3.3-.9ZM1127,550.6v6.9h1.1v-6.3h1.5v13.4h-1.5v-6.5H1127v7.4h9.7l-9.7.3v.6h-5.4l-.3,1.1v-1.1H1119v4.3h9.7l.9.8-.3,3.7-.6.6-.8.3-8.9.3v22.9h14.6v-.9l-7.5-.3-.5-.3-.9-.3-1.1-.5-1.5-1.5h-.3v-1.1h-.2v-.9h-.3v-1.4l-.3-.3.6-1.7.2-.6.3-.8,1.8-1.7.8-.3.6-.3,1.4-.3h14.6l2.6.9,1.7,1.7v.6h.3v1.1h.3v.9h.3l-.3,2-.6,1.7-.6,1.1-1.1,1.2-.9.2-1.1.6-2.3.3-5.7.3v.6h34.3V572.7h-4.9l-.3.8v-.8h-9.7l-.3.8v-.8h-5.1V550.6Zm-58.9-.3-.9.3v12h-1.7v-1.4h-20.9V550.6h-.3v35.8l14-.3h-13.7v-6.6h13.7V579h7.2v-1.5h1.7v3.2h-.6v12.8h.3V595l-8.6-.3h-13.7v-6.6l13.7-.3h-14V595h-1.4V562.9h-7.7V550.6h-13.5v12.3H992.3V579h35.4v14.5h-7.4l-.3,2-.9.9-1.1.6-1.7.3V597l-.6-.3-.8-.9h-.3v-1.1h-.3v-1.2h-4.6l-.3,2.3-.6.3-.2.3-1.2.6-1.4.3V597l-.9-.3-.8-.9h-.3v-1.1h-.3v-1.2H992.3l-.3,83.3v.6h.8l2.3,1.1.9.3,2.3,1.1.8.3,2.3,1.2.9.3,2.8,1.4.9.3,2.3,1.1.8.3,2.3,1.1.9.3,2.8,1.5.9.2,2.3,1.2.8.3,2.3,1.1.9.3,2.9,1.4.8.3,2.3,1.2.9.3,2.2,1.1.9.3,2.9,1.4.8.3,2.3,1.1.9.3,2.3,1.2.8.3,2.9,1.4.8.3,2.3,1.1.9.3,2.3,1.2.8.2,2.9,1.5.3.3V618.1H1091v.9h14.8v-.9h4.6v-1.4h.9V601.8h-.9V601h-4.6v-1.7h1.2V581h8.3v-4.3l-2.6-.3-6.3-.3-.6-.3h-.8v-.6l-.6-.5h-.3v-2.6l.6-.6.3-.6.5-.2.3-.3h9.5v-4.6h-5.5v-7.4h-.8v6.5h-1.5v-6.5h-.5l-.6.5v-.3l-.6-.5.3-.9h.9l.5.6v-6.6h1.5v6.6h.8v-7.2h-15.4l-1.2.3v-.3h-3.7v36.6h1.2l-1.2.3v10h1.2l-1.2.3v1.5h1.5V601h-3.2V550.6l-3.4-.3Z"/><g class="cls-9"><rect class="cls-10" x="992" y="550.3" width="176.2" height="155.91"/></g><path id="SVGID-6" data-name="SVGID" class="cls-11" d="M1078.7,684.2l-.6.3-1.7.9-.9.8-.3.6-.6.6-.2.5-.6.6-.6,1.2-.3,2.5V694h.3v1.1h.3v.6h.3v.8h.3l.5.6v.6h.3l.9.8.6.3,1.1,1.2,1.2.2,1.4.3,2.6.3v-.3l1.4-.3,2.3-1.1,2.3-2.3.5-1.1.3-.9.3-4.8h-.3v-.6h-.3v-.6h-.2v-.6l-.6-.5h-.3v-.6l-1.7-1.7-1.7-.9-.9-.3Zm-21.5-10.6v33.5h.9l2.8,1.4.9.3,2.8,1.5.9.2,2.9,1.5.8.3,3.4,1.7.9.3,2.9,1.4.8.3,2.9,1.4.8.3,3.5,1.7.8.3,4.6,2.3.9.3V722l.3-.3.2-.6.3-.3.3-.5.3-.3.3-.6.6-.6.2-.5.3-.3.3-.6.3-.3.3-.5.6-.6.2-.6.3-.3.3-.5.3-.3.3-.6.6-.6.2-.5.3-.3.3-.6.3-.3.3-.6.6-.5.2-.6.3-.3.3-.6.3-.3.3-.5.6-.6.3-.6.2-.3.3-.5.3-.3.3-.6.6-.6.3-.5.2-.3.3-.6.3-.3.3-.5.6-.6.3-.6.2-.3.3-.6.3-.2.3-.6.6-.6.3-.6.2-.2.3-.6.3-.3.3-.6.6-.5.3-.6.2-.3.3-.6.3-.3.3-.5.6-.6.3-.6.3-.3.2-.5.3-.3.3-.6.6-.6.3-.5.3-.3.2-.6.3-.3.3-.6.6-.5.3-.6.3-.3.2-.6.3-.2.3-.6.6-.6h-4.9V673.6Z"/><g class="cls-12"><rect class="cls-13" x="1057.2" y="673.6" width="59.8" height="48.63"/></g><text class="cls-14" transform="translate(1013.3 805.2)">TYPE F</text><text class="cls-15" transform="translate(991.9 832.3)">2-Bedroom</text><text class="cls-16" transform="translate(1039.5 767.6)">2</text></svg>