<svg id="Layer_11" data-name="Layer 11" xmlns="http://www.w3.org/2000/svg" xmlns:xlink="http://www.w3.org/1999/xlink" viewBox="0 0 1920 944"><defs><style>.cls-1,.cls-5{fill:url(#radial-gradient);}.cls-1,.cls-2,.cls-3{clip-rule:evenodd;}.cls-10,.cls-2,.cls-8{fill:url(#radial-gradient-2);}.cls-12,.cls-3{fill:url(#radial-gradient-3);}.cls-4{fill:#f8f6f1;}.cls-12,.cls-5,.cls-8{fill-rule:evenodd;}.cls-6{clip-path:url(#clip-path);}.cls-10,.cls-14,.cls-7{opacity:0.1;}.cls-7{fill:url(#radial-gradient-5);}.cls-9{clip-path:url(#clip-path-2);}.cls-11{fill:url(#radial-gradient-8);}.cls-13{clip-path:url(#clip-path-3);}.cls-14{fill:url(#radial-gradient-10);}.cls-15,.cls-16{font-size:21px;}.cls-15{fill:#A49C87;letter-spacing:0.05em;}.cls-15,.cls-17{font-family:Campton-Medium, Campton;font-weight:500;}.cls-16{fill:#033348;font-family:Campton-Light, Campton;font-weight:300;letter-spacing:0.02em;}.cls-17{font-size:24px;fill:#ccc09c;}</style><radialGradient id="radial-gradient" cx="1203.38" cy="577.52" r="81.24" gradientUnits="userSpaceOnUse"><stop offset="0" stop-color="#fff"/><stop offset="0.86" stop-color="#A49C87"/></radialGradient><radialGradient id="radial-gradient-2" cx="1212.82" cy="577.52" r="110.27" xlink:href="#radial-gradient"/><radialGradient id="radial-gradient-3" cx="1307.08" cy="655.62" r="28.95" xlink:href="#radial-gradient"/><clipPath id="clip-path"><path id="SVGID" class="cls-1" d="M1184.5,669.2l-.3.3-.8.3-.3.6-.3.8-.3.6.3.3v.8h.3v.9h.3v.6h.8l.6.2,2,.3v-.3l.6-.2.8-.9.3-2.9-.9-.8-.5-.3-.3-.3Zm-1.4-26.6-.3.3-.3.3v24.6h.3l.3.3,33.2.3v-.3l.2-.3.3-24.9-.3-.3Zm1.1-6.6-.3.3-.5.3-.3.9-.3.2-.3.9.3.3v.8h.3v.6h.3v.6h.5l.3.3.6.3,1.4.2v-.2l.9-.3.5-.6.3-.6.3-.3.3-2.2-1.4-1.5Zm8.6-34.6V630h-10.9v50.9h52.4V630.3l-11.2-.3h-.6v-3.1h.6V612h-.6v-1.7H1210v-8.9ZM1237.4,475l-.3.3-.8.8-.3.6-.3.8v.9h.3v.9h.3v.8h.3l.8.9.9.3,1.7.2v-.2l1.1-.6.9-.9.3-1.1.3-1.7h-.3v-.6h-.3v-.6l-.6-.5-.8-.3Zm-33.2-.3-.2.3v33.4h.2v.6l30.1-.3h.5V475l-.2-.3Zm-5.4,0-.6.3-.8.3-.3.8-.6.6v2.6h.3l.3.2v.6h.3v.6h.5l.3.3.6.3,1.7.2v-.2l.9-.3,1.1-1.2.3-.8.3-2h-.3v-.9l-.8-.8-.6-.3-.9-.3Zm-14.3-.6v12.6h-1.4V475.8h-.3v10.9h-29.5V503h29.5v.9l.3-.9h1.4v22h1.7v.6h14.9V525h52.1v-2.5l.2-48.1-.2-.3Z"/></clipPath><radialGradient id="radial-gradient-5" cx="1203.38" cy="577.52" r="81.24" xlink:href="#radial-gradient"/><clipPath id="clip-path-2"><path id="SVGID-2" data-name="SVGID" class="cls-2" d="M1244,660.6l-.6.3-.3.6-.2.3-.6,1.1-.3.3-.3,1.4-.3,1.2v1.1h-4.3v10.9H1266V666.9h-14.6v-2.6h-.2v-.8h-.3v-.9h-.3v-.5l-1.2-1.2-.5-.3Zm16.6-14-.6.3-.5.3-.3.3-.3.5-.3.3-.3.6-.3.3v2h.3v.8h.3l.9.9v.6h.8l.6.3,1.7.2v-.2l.9-.3.5-.3.9-.9.3-.5.3-.9.2-1.4h-.2v-.6h-.3V648l-.3-.2-.6-.3-.6-.6-.8-.3Zm2.9-15.2-.3.3-.3.3-1.2.3-1.4.3-.3.3-1.1.3-1.7,1.7v.6h.2l.3.2v.6h.3l.3.3v.6h.3v.5h.3l.6.6v.6h.2v.6h.3v.5h.3v.6h.3v.6h.3v.5h.3v.6h.3v.9l1.4-.3,1.7-.6.6-.3.3-.3.5-.2,1.2-1.2.8-.3.6-.5.3-.6.3-2.9h-.3v-1.1h-.3v-.6l-2.3-2.3-1.1-.6Zm-27.5-3.7v1.7l.3-1.7Zm59.8-13.1.8.3v-.3Zm-1.7,0,1.4.3v-.3Zm-9.2,0,1.2.3v-.3Zm-1.4,0,1.1.3v-.3Zm9.7-.3.3.3v-.3Zm-6.6,0,.3.3v-.3Zm-4,0,.3.3v-.3Zm-7.4-6.6.3.3v-.3Zm29.7-.6.3.3v-.3Zm-30-1.7v.6l.3-.6Zm0-.8v.5l.3-.5Zm30-.9v.6l.3-.6Zm-22-8-2,.3.6.5v.6l.3-.3.5-.3.3-.2h3.5l-3.5.2-.3.3-.5.3-.6.6-2.9.3-1.1.5-.6,1.2-.3,2.3-.3.3-.5.3v-.3l-.3-.3h-.6l-.3.3.3.3-.6,2.8.3.3v1.4h.3l-.3,1.5v.5l.9-.3.3-.5h.3l.5.3.3.2v2.6h.3v.6h.3v.6h.6l.5.3,3.2.2.6.6v.6h-.9l-.3.3v.5h2.3l1.4.3.3.3v-.3l1.2-.3h1.7l.5.3v-.3l.3-.5-.3-.3-.8-.3.8-.9h3.8l.5.6v.6h-.5l-.6.3.3.3,2,.2,1.7.3.3.3v-.3l.8-.3h2l.3.3v-.3l.3-.5-.3-.3-.8-.3.8-.9,2.9-.2.3-.3.8-.3.3-.6.3-2.6,1.2-1.1h.2l-.2.3v.5h.2l.6.6v-.3l.3-.5-.3-.3.3-1.5.3-2.5h-.3v-1.2l-.3-.3.3-1.1h-.6l-.5.6.2.3-.2.5v-.3l-.6-.5h-.6v-2.9h-.3v-.6l-.6-.5-.8-.3-2.9-.3-1.1-1.2h.6l.5.3v-.3l.3-.5-.3-.3h-.5l-.9.3v-.3h-4l-2,.3.6.5.8.3v-.3l.3-.2h3.4l-3.4.2-.3.3-.5.3-.6.6-3.5.3v-.3l-.8-.9-.6-.3h.6l.8.3v-.3l.3-.5-.3-.3h-.5l-.9.3v-.3Zm-36-13.5-.3.3.3.3v.6h.3l.2.3v-.3l.3-.3.3-.6-.3-.3Zm0-5.1-.3.6.3.3v.5l.8-.3.3-.8-.3-.3Zm-6.6-12.6v44.1h14.3v-6.3l1.1-.6.9-.9.3-.5.3-1.5h-.3v-.5h-.3v-.9l-.6-.6-.6-.3h-.8V594l1.7-.9.3-.3.3-.8.3-1.5h-.3V590h-.3v-.6l-1.2-1.1h-.8V564.5Zm-62.4-6.6v.6h.6v-.6Zm-1.4-2.5.3.2v-.2Zm-.3-2.1v7.8h.6v.5h2.8v-.5l.6-.3h-.3v-5.2l-.3-.2.3-.3.3-1.8Zm12.9-4.2v7.1h.8v-6.3h1.5v6.3h.3l.2.3v-.6h1.2v1.2h-.6l-.3.3v-.3l-.3-.3h-.5v6.6h-1.5v-6.6h-.8v7.4h-5.5v4.6h8.9l.9.3,1.4,1.4-.3,2.6-1.4,1.4-1.2.3-8.3.3v4.6h8.3v20H1210V577.4l-1.2-.3h1.2v-9.7l-1.2-.3h1.2v-18h-3.8l-.2.2-.9.3v-.5Zm81.8-5.2-.3.3-.6.3-.5.6-.3.5-.3.3-.3.9v29.1h.3v1.2h.3l.8.9v.5h.9l.9.3.5.3v1.7h.3v.9h.3l.9.8,1.7.6.5.3,3.5.6,21.7.2V584l1.4-.3,1.2-.3,1.4-.3.6-.6.6-.3.3-.2.2-.6.3-.9.3-1.4.6-.3.3-.3.8-.3.3-.2.3-.6.6-.6.3-1.1.2-28.6h-.2v-.9h-.3v-.6l-1.5-1.4-.5-.3Zm-1.4-9.7V541h26.9v-6.8Zm-115.6-12.9v3.4h.3v1.8H1153v-.6h-14.3v.6h-.8v-.9h-41.8v20.3H1163v1.7h-11.4v6.9h9.4l.6.3.9.8v.9h.3l-.3,2-.3.6-.6.5-.6.3-1.1.3-8.3.3v7.4h28.9V547.6h-4.3v-1.7h48.1v5.2h-12.9v13.4h12.9V612h-1.2v14.9h1.2v1.7h11.4v52.3h30.9v-28h5.2V629.4h-.3v-1.7h.3l57.7.3v-1.7h-.2v-1.4h-.3v-1.7h-.3v-1.5h-.3V620h-.3v-1.4h-.3v-1.7h-.3v-1.5h-.2v-1.7h-.3v-1.4h-.3v-1.7h-.3v-1.5h-.3v-1.7h-.3V606h-.3v-1.7h-.3v-1.5h-.2v-1.7h-.3v-1.4h-.3V598h-.3v-1.5h-.3v-1.7h-.3v-1.4h-.3v-1.7h-.2v-1.4h-.3v-1.8h-.3v-1.4h-.3v-1.7h-.3V584h-.3v-1.8h-.3v-1.4h-.2v-1.7h-.3v-1.4h-.3v-1.8h-.3v-1.4h-.3v-1.7h-.3v-1.4h-.3v-1.7h-.2v-1.5h-.3v-1.7h-.3v-1.4h-.3v-1.7h-.3v-1.5h-.3v-1.7h-.3v-1.4h-.2v-1.7h-.3v-1.5h-.3v-1.7h-.3v-1.4h-.3v-1.7h-.3v-1.5h-.3v-1.4h-.2v-1.4h-.3v-1.2h-.3v-.5h-.3v-.6h-.3v-.6h-.3v-.5h-.3v-.6h-.3v-.6h-.2v-.6h-.3v-.5h-.3v-.6h-.3v-.6l-.3-.3h-.3v-.5l-.3-.3h-.2v-.6l-.6-.6h-.3v-.5l-3.7-3.8-.6-.2-1.1-1.2-.6-.3-.3-.3-.6-.3-.5-.5-.6-.3-.3-.3-1.1-.6-.9-.3-.6-.2-1.7-.6-1.1-.6-1.7-.6-1.2-.2-1.4-.3h-4.6V533h-33.8v-6.5h-52.3v-.9h-14.9v.9h-31.7v-5.2Zm-12.6-33.2.6.3v-.3Zm-16.3,0,.9.3v-.3Zm6.9-.5,1.1.2v-.2Zm-2.6,0,.3.2v-.2Zm9.7-.3,1.2.3v-.3Zm-13.1,0,.8.3v-.3Zm24.3-.3,1.1.3V487Zm-9.2,0,.6.3V487Zm-16.3,0,.3.3V487Zm16.9-.3.8.3v-.3Zm-18.9-.3.3.3.9.3v-.3l-.6-.3Zm-.3-.3.3.3v-.3Zm-.3-.3.3.3v-.3Zm-2-.3v.6h.3l.9.9v-.6l-.9-.9Zm23.8-.2-.3.2-.9.9.6.3v-.3l.6-.6.3-.5Zm-22.3-.6-.3.3.3.3v.5h.5v-.5h-.3v-.6Zm-2-.6v.9h.2v.5l.3-.8h-.3v-.6Zm-.3-1.1.3.3V483Zm4.8-.3v.6h.6v-.6Zm22.1-.9v2.9l.3-2.9Zm-26.4,0,.3.3v-.3Zm24.6-1.1v1.1h.3l-.3,2.6-.2.6.5.3V485l.3-4-.3-.3Zm-22.8-.6-.3.3-.3.3-.3.6v3.1h.3l.6.3v-.3h-.3v-1.1h-.3v-1.2l.3-1.1.3-.3.2-.6Zm.2-.3.3.3v-.3Zm.3-.3.3.3v-.3Zm20.9-.2.3.2,1.1,1.2v-.6l-.8-.8Zm-20.6,0,.6.2v-.2Zm21.8-.3.2.3V479Zm-2,0,.2.3V479Zm-19.2,0,.6.3V479Zm20.9-.3.3.3v-.3Zm-2.6,0,.6.3v-.3Zm-17.7,0,.5.3v-.3Zm-2.6,0v.6l.6-.6Zm18.9-.3,1.4.3v-.3Zm-15.8,0,1.5.3v-.3Zm-2.3-.3-.2.3.5.3v-.3l.3-.3Zm20.9-.3.6.3v-.3Zm-20.3,0,.3.3v-.3Zm19.5-.3.8.3v-.3Zm-1.2-.2,1.2.2v-.2Zm-14.3,0,.3.2v-.2Zm23.8-.6v.6h1.1v-.6Zm-17.5-1.2V477H1125l-.9.3-1.1.2.9.3-.9.3-.6.3-.3.3-.5.3-.6.5v-.2h-.3l-.3.2.3.3-.6.3.3.3-.3.6v-.6h-.3l-.2.3v1.7h.2v1.1h.3v1.2h.3v.6h.3v.5h.3l.8.9-.5.3.5.3.3.3v-.3h.6l-.3.3.6.2v-.2h.3l-.3.2.9.3v-.3h.2l-.2.3.8.3,2.6.3,4,.3v-.3l-3.2-.3h5.8l-.9.3,5.2.3v-.3l-1.2-.3h1.4l2.3.3v-.3l-1.4-.3,2-.3h.9l.5.3v-.5h.3l.9.2v-.2l1.7-1.8.6-1.1h-.3l-.3.3v-.3l.3-.6-.3-.3.3-2.5h-.3v-.6h.3v.6l.3-.9h-.3v-.6l-1.5-1.4-.5-.3h-.6l.3.3-.3.3v-.3l-.6-.3-.8-.3-1.2-.3-1.4-.2-.9-.3H1133v-1.5Zm-36.6-1.4v21.7h16.6l-16.6.3v23.8l.3-1.7,5.4-.3.3-9.8.6-.5h4l.6.3.2.2v1.2h.3v8.9h4.9V511l-1.1-.3h1.1v-3.1h1.7v1.7h30v-2h7.2V474.1h-37.2v11.2H1113V474.1h-7.7l-.3.3v.9h-.6v-1.2Z"/></clipPath><radialGradient id="radial-gradient-8" cx="1269.18" cy="497.14" r="20.36" xlink:href="#radial-gradient"/><clipPath id="clip-path-3"><path id="SVGID-3" data-name="SVGID" class="cls-3" d="M1300.9,646l-1.1.3-.6.3-.6.6-.5.3-.6.5-.6.3-.3.3-.5.3-.3.6-.6.5-.6,1.2-.2.8-.3.6-.3.9-.3.5v3.8h.3v.5h.3v.9h.3v.9h.2v.5h.3v.6h.3v.6h.3l.6.5v.6h.3l.8.9.6.3.3.2.5.3.3.3.9.3.6.3.8.3,4.9.3v-.3l.6-.3.8-.3,2.3-1.1.9-.9.2-.6.6-.5.3-.6.6-.6.5-1.1.3-.9.3-.6.3-4h-.3v-1.1h-.3v-.9h-.3v-.8h-.2v-.6l-.6-.6h-.3v-.5l-2-2-.6-.3-.5-.6-.6-.3-1.4-.3-.6-.3Zm-24.6-15.7v.9h-1.4v49.7h64.4v-1.7h-.3v-1.7h-.3v-1.4h-.3v-1.7h-.3v-1.5h-.3v-1.7h-.2v-1.4h-.3v-1.7h-.3v-1.5h-.3v-1.7h-.3v-1.4h-.3v-1.7h-.3v-1.5h-.3v-1.7h-.2v-1.4h-.3v-1.7h-.3v-1.7h-.3v-1.5h-.3v-1.7h-.3v-1.4h-.3v-1.7h-.2V646h-.3v-1.7h-.3v-1.4h-.3v-1.7h-.3v-1.5h-.3V638h-.3v-1.4h-.2v-1.7h-.3v-1.4h-.3v-1.8h-.3v-1.4h-.9v.9h-1.4v-.9Z"/></clipPath><radialGradient id="radial-gradient-10" cx="1307.08" cy="655.62" r="28.95" xlink:href="#radial-gradient"/></defs><title>floorplansE</title><rect class="cls-4" x="1125" y="747" width="165" height="99"/><path id="SVGID-4" data-name="SVGID" class="cls-5" d="M1184.5,669.2l-.3.3-.8.3-.3.6-.3.8-.3.6.3.3v.8h.3v.9h.3v.6h.8l.6.2,2,.3v-.3l.6-.2.8-.9.3-2.9-.9-.8-.5-.3-.3-.3Zm-1.4-26.6-.3.3-.3.3v24.6h.3l.3.3,33.2.3v-.3l.2-.3.3-24.9-.3-.3Zm1.1-6.6-.3.3-.5.3-.3.9-.3.2-.3.9.3.3v.8h.3v.6h.3v.6h.5l.3.3.6.3,1.4.2v-.2l.9-.3.5-.6.3-.6.3-.3.3-2.2-1.4-1.5Zm8.6-34.6V630h-10.9v50.9h52.4V630.3l-11.2-.3h-.6v-3.1h.6V612h-.6v-1.7H1210v-8.9ZM1237.4,475l-.3.3-.8.8-.3.6-.3.8v.9h.3v.9h.3v.8h.3l.8.9.9.3,1.7.2v-.2l1.1-.6.9-.9.3-1.1.3-1.7h-.3v-.6h-.3v-.6l-.6-.5-.8-.3Zm-33.2-.3-.2.3v33.4h.2v.6l30.1-.3h.5V475l-.2-.3Zm-5.4,0-.6.3-.8.3-.3.8-.6.6v2.6h.3l.3.2v.6h.3v.6h.5l.3.3.6.3,1.7.2v-.2l.9-.3,1.1-1.2.3-.8.3-2h-.3v-.9l-.8-.8-.6-.3-.9-.3Zm-14.3-.6v12.6h-1.4V475.8h-.3v10.9h-29.5V503h29.5v.9l.3-.9h1.4v22h1.7v.6h14.9V525h52.1v-2.5l.2-48.1-.2-.3Z"/><g class="cls-6"><rect class="cls-7" x="1153.3" y="474.1" width="100.1" height="206.83"/></g><path id="SVGID-5" data-name="SVGID" class="cls-8" d="M1244,660.6l-.6.3-.3.6-.2.3-.6,1.1-.3.3-.3,1.4-.3,1.2v1.1h-4.3v10.9H1266V666.9h-14.6v-2.6h-.2v-.8h-.3v-.9h-.3v-.5l-1.2-1.2-.5-.3Zm16.6-14-.6.3-.5.3-.3.3-.3.5-.3.3-.3.6-.3.3v2h.3v.8h.3l.9.9v.6h.8l.6.3,1.7.2v-.2l.9-.3.5-.3.9-.9.3-.5.3-.9.2-1.4h-.2v-.6h-.3V648l-.3-.2-.6-.3-.6-.6-.8-.3Zm2.9-15.2-.3.3-.3.3-1.2.3-1.4.3-.3.3-1.1.3-1.7,1.7v.6h.2l.3.2v.6h.3l.3.3v.6h.3v.5h.3l.6.6v.6h.2v.6h.3v.5h.3v.6h.3v.6h.3v.5h.3v.6h.3v.9l1.4-.3,1.7-.6.6-.3.3-.3.5-.2,1.2-1.2.8-.3.6-.5.3-.6.3-2.9h-.3v-1.1h-.3v-.6l-2.3-2.3-1.1-.6Zm-27.5-3.7v1.7l.3-1.7Zm59.8-13.1.8.3v-.3Zm-1.7,0,1.4.3v-.3Zm-9.2,0,1.2.3v-.3Zm-1.4,0,1.1.3v-.3Zm9.7-.3.3.3v-.3Zm-6.6,0,.3.3v-.3Zm-4,0,.3.3v-.3Zm-7.4-6.6.3.3v-.3Zm29.7-.6.3.3v-.3Zm-30-1.7v.6l.3-.6Zm0-.8v.5l.3-.5Zm30-.9v.6l.3-.6Zm-22-8-2,.3.6.5v.6l.3-.3.5-.3.3-.2h3.5l-3.5.2-.3.3-.5.3-.6.6-2.9.3-1.1.5-.6,1.2-.3,2.3-.3.3-.5.3v-.3l-.3-.3h-.6l-.3.3.3.3-.6,2.8.3.3v1.4h.3l-.3,1.5v.5l.9-.3.3-.5h.3l.5.3.3.2v2.6h.3v.6h.3v.6h.6l.5.3,3.2.2.6.6v.6h-.9l-.3.3v.5h2.3l1.4.3.3.3v-.3l1.2-.3h1.7l.5.3v-.3l.3-.5-.3-.3-.8-.3.8-.9h3.8l.5.6v.6h-.5l-.6.3.3.3,2,.2,1.7.3.3.3v-.3l.8-.3h2l.3.3v-.3l.3-.5-.3-.3-.8-.3.8-.9,2.9-.2.3-.3.8-.3.3-.6.3-2.6,1.2-1.1h.2l-.2.3v.5h.2l.6.6v-.3l.3-.5-.3-.3.3-1.5.3-2.5h-.3v-1.2l-.3-.3.3-1.1h-.6l-.5.6.2.3-.2.5v-.3l-.6-.5h-.6v-2.9h-.3v-.6l-.6-.5-.8-.3-2.9-.3-1.1-1.2h.6l.5.3v-.3l.3-.5-.3-.3h-.5l-.9.3v-.3h-4l-2,.3.6.5.8.3v-.3l.3-.2h3.4l-3.4.2-.3.3-.5.3-.6.6-3.5.3v-.3l-.8-.9-.6-.3h.6l.8.3v-.3l.3-.5-.3-.3h-.5l-.9.3v-.3Zm-36-13.5-.3.3.3.3v.6h.3l.2.3v-.3l.3-.3.3-.6-.3-.3Zm0-5.1-.3.6.3.3v.5l.8-.3.3-.8-.3-.3Zm-6.6-12.6v44.1h14.3v-6.3l1.1-.6.9-.9.3-.5.3-1.5h-.3v-.5h-.3v-.9l-.6-.6-.6-.3h-.8V594l1.7-.9.3-.3.3-.8.3-1.5h-.3V590h-.3v-.6l-1.2-1.1h-.8V564.5Zm-62.4-6.6v.6h.6v-.6Zm-1.4-2.5.3.2v-.2Zm-.3-2.1v7.8h.6v.5h2.8v-.5l.6-.3h-.3v-5.2l-.3-.2.3-.3.3-1.8Zm12.9-4.2v7.1h.8v-6.3h1.5v6.3h.3l.2.3v-.6h1.2v1.2h-.6l-.3.3v-.3l-.3-.3h-.5v6.6h-1.5v-6.6h-.8v7.4h-5.5v4.6h8.9l.9.3,1.4,1.4-.3,2.6-1.4,1.4-1.2.3-8.3.3v4.6h8.3v20H1210V577.4l-1.2-.3h1.2v-9.7l-1.2-.3h1.2v-18h-3.8l-.2.2-.9.3v-.5Zm81.8-5.2-.3.3-.6.3-.5.6-.3.5-.3.3-.3.9v29.1h.3v1.2h.3l.8.9v.5h.9l.9.3.5.3v1.7h.3v.9h.3l.9.8,1.7.6.5.3,3.5.6,21.7.2V584l1.4-.3,1.2-.3,1.4-.3.6-.6.6-.3.3-.2.2-.6.3-.9.3-1.4.6-.3.3-.3.8-.3.3-.2.3-.6.6-.6.3-1.1.2-28.6h-.2v-.9h-.3v-.6l-1.5-1.4-.5-.3Zm-1.4-9.7V541h26.9v-6.8Zm-115.6-12.9v3.4h.3v1.8H1153v-.6h-14.3v.6h-.8v-.9h-41.8v20.3H1163v1.7h-11.4v6.9h9.4l.6.3.9.8v.9h.3l-.3,2-.3.6-.6.5-.6.3-1.1.3-8.3.3v7.4h28.9V547.6h-4.3v-1.7h48.1v5.2h-12.9v13.4h12.9V612h-1.2v14.9h1.2v1.7h11.4v52.3h30.9v-28h5.2V629.4h-.3v-1.7h.3l57.7.3v-1.7h-.2v-1.4h-.3v-1.7h-.3v-1.5h-.3V620h-.3v-1.4h-.3v-1.7h-.3v-1.5h-.2v-1.7h-.3v-1.4h-.3v-1.7h-.3v-1.5h-.3v-1.7h-.3V606h-.3v-1.7h-.3v-1.5h-.2v-1.7h-.3v-1.4h-.3V598h-.3v-1.5h-.3v-1.7h-.3v-1.4h-.3v-1.7h-.2v-1.4h-.3v-1.8h-.3v-1.4h-.3v-1.7h-.3V584h-.3v-1.8h-.3v-1.4h-.2v-1.7h-.3v-1.4h-.3v-1.8h-.3v-1.4h-.3v-1.7h-.3v-1.4h-.3v-1.7h-.2v-1.5h-.3v-1.7h-.3v-1.4h-.3v-1.7h-.3v-1.5h-.3v-1.7h-.3v-1.4h-.2v-1.7h-.3v-1.5h-.3v-1.7h-.3v-1.4h-.3v-1.7h-.3v-1.5h-.3v-1.4h-.2v-1.4h-.3v-1.2h-.3v-.5h-.3v-.6h-.3v-.6h-.3v-.5h-.3v-.6h-.3v-.6h-.2v-.6h-.3v-.5h-.3v-.6h-.3v-.6l-.3-.3h-.3v-.5l-.3-.3h-.2v-.6l-.6-.6h-.3v-.5l-3.7-3.8-.6-.2-1.1-1.2-.6-.3-.3-.3-.6-.3-.5-.5-.6-.3-.3-.3-1.1-.6-.9-.3-.6-.2-1.7-.6-1.1-.6-1.7-.6-1.2-.2-1.4-.3h-4.6V533h-33.8v-6.5h-52.3v-.9h-14.9v.9h-31.7v-5.2Zm-12.6-33.2.6.3v-.3Zm-16.3,0,.9.3v-.3Zm6.9-.5,1.1.2v-.2Zm-2.6,0,.3.2v-.2Zm9.7-.3,1.2.3v-.3Zm-13.1,0,.8.3v-.3Zm24.3-.3,1.1.3V487Zm-9.2,0,.6.3V487Zm-16.3,0,.3.3V487Zm16.9-.3.8.3v-.3Zm-18.9-.3.3.3.9.3v-.3l-.6-.3Zm-.3-.3.3.3v-.3Zm-.3-.3.3.3v-.3Zm-2-.3v.6h.3l.9.9v-.6l-.9-.9Zm23.8-.2-.3.2-.9.9.6.3v-.3l.6-.6.3-.5Zm-22.3-.6-.3.3.3.3v.5h.5v-.5h-.3v-.6Zm-2-.6v.9h.2v.5l.3-.8h-.3v-.6Zm-.3-1.1.3.3V483Zm4.8-.3v.6h.6v-.6Zm22.1-.9v2.9l.3-2.9Zm-26.4,0,.3.3v-.3Zm24.6-1.1v1.1h.3l-.3,2.6-.2.6.5.3V485l.3-4-.3-.3Zm-22.8-.6-.3.3-.3.3-.3.6v3.1h.3l.6.3v-.3h-.3v-1.1h-.3v-1.2l.3-1.1.3-.3.2-.6Zm.2-.3.3.3v-.3Zm.3-.3.3.3v-.3Zm20.9-.2.3.2,1.1,1.2v-.6l-.8-.8Zm-20.6,0,.6.2v-.2Zm21.8-.3.2.3V479Zm-2,0,.2.3V479Zm-19.2,0,.6.3V479Zm20.9-.3.3.3v-.3Zm-2.6,0,.6.3v-.3Zm-17.7,0,.5.3v-.3Zm-2.6,0v.6l.6-.6Zm18.9-.3,1.4.3v-.3Zm-15.8,0,1.5.3v-.3Zm-2.3-.3-.2.3.5.3v-.3l.3-.3Zm20.9-.3.6.3v-.3Zm-20.3,0,.3.3v-.3Zm19.5-.3.8.3v-.3Zm-1.2-.2,1.2.2v-.2Zm-14.3,0,.3.2v-.2Zm23.8-.6v.6h1.1v-.6Zm-17.5-1.2V477H1125l-.9.3-1.1.2.9.3-.9.3-.6.3-.3.3-.5.3-.6.5v-.2h-.3l-.3.2.3.3-.6.3.3.3-.3.6v-.6h-.3l-.2.3v1.7h.2v1.1h.3v1.2h.3v.6h.3v.5h.3l.8.9-.5.3.5.3.3.3v-.3h.6l-.3.3.6.2v-.2h.3l-.3.2.9.3v-.3h.2l-.2.3.8.3,2.6.3,4,.3v-.3l-3.2-.3h5.8l-.9.3,5.2.3v-.3l-1.2-.3h1.4l2.3.3v-.3l-1.4-.3,2-.3h.9l.5.3v-.5h.3l.9.2v-.2l1.7-1.8.6-1.1h-.3l-.3.3v-.3l.3-.6-.3-.3.3-2.5h-.3v-.6h.3v.6l.3-.9h-.3v-.6l-1.5-1.4-.5-.3h-.6l.3.3-.3.3v-.3l-.6-.3-.8-.3-1.2-.3-1.4-.2-.9-.3H1133v-1.5Zm-36.6-1.4v21.7h16.6l-16.6.3v23.8l.3-1.7,5.4-.3.3-9.8.6-.5h4l.6.3.2.2v1.2h.3v8.9h4.9V511l-1.1-.3h1.1v-3.1h1.7v1.7h30v-2h7.2V474.1h-37.2v11.2H1113V474.1h-7.7l-.3.3v.9h-.6v-1.2Z"/><g class="cls-9"><rect class="cls-10" x="1096.1" y="474.1" width="233.4" height="206.83"/></g><rect class="cls-11" x="1256.6" y="471.2" width="25.2" height="51.78"/><path id="SVGID-6" data-name="SVGID" class="cls-12" d="M1300.9,646l-1.1.3-.6.3-.6.6-.5.3-.6.5-.6.3-.3.3-.5.3-.3.6-.6.5-.6,1.2-.2.8-.3.6-.3.9-.3.5v3.8h.3v.5h.3v.9h.3v.9h.2v.5h.3v.6h.3v.6h.3l.6.5v.6h.3l.8.9.6.3.3.2.5.3.3.3.9.3.6.3.8.3,4.9.3v-.3l.6-.3.8-.3,2.3-1.1.9-.9.2-.6.6-.5.3-.6.6-.6.5-1.1.3-.9.3-.6.3-4h-.3v-1.1h-.3v-.9h-.3v-.8h-.2v-.6l-.6-.6h-.3v-.5l-2-2-.6-.3-.5-.6-.6-.3-1.4-.3-.6-.3Zm-24.6-15.7v.9h-1.4v49.7h64.4v-1.7h-.3v-1.7h-.3v-1.4h-.3v-1.7h-.3v-1.5h-.3v-1.7h-.2v-1.4h-.3v-1.7h-.3v-1.5h-.3v-1.7h-.3v-1.4h-.3v-1.7h-.3v-1.5h-.3v-1.7h-.2v-1.4h-.3v-1.7h-.3v-1.7h-.3v-1.5h-.3v-1.7h-.3v-1.4h-.3v-1.7h-.2V646h-.3v-1.7h-.3v-1.4h-.3v-1.7h-.3v-1.5h-.3V638h-.3v-1.4h-.2v-1.7h-.3v-1.4h-.3v-1.8h-.3v-1.4h-.9v.9h-1.4v-.9Z"/><g class="cls-13"><rect class="cls-14" x="1274.9" y="630.3" width="64.4" height="50.64"/></g><text class="cls-15" transform="translate(1166 809.2)">TYPE E</text><text class="cls-16" transform="translate(1144.9 836.3)">2-Bedroom</text><text class="cls-17" transform="translate(1207 767.6)">1</text></svg>