<svg id="cosoyteanninh" xmlns="http://www.w3.org/2000/svg" viewBox="0 0 3047.3 2006.1"><defs><style>.cls-1{fill:#37517a;}.cls-2{fill:#d1af84;}.cls-10,.cls-3{font-size:24px;fill:#0a1c3d;font-family:Montserrat-Regular, Montserrat;}.cls-3{letter-spacing:-0.05em;}.cls-4{letter-spacing:-0.06em;}.cls-5{letter-spacing:-0.06em;}.cls-6{letter-spacing:-0.05em;}.cls-7{letter-spacing:-0.07em;}.cls-8{letter-spacing:-0.04em;}.cls-9{letter-spacing:-0.07em;}.cls-10{letter-spacing:-0.03em;}.cls-11{letter-spacing:-0.03em;}.cls-12{letter-spacing:-0.03em;}.cls-13{letter-spacing:-0.04em;}</style></defs><title>healthFac</title><path class="cls-1" d="M1185.1,1077.2v16.7h-24.3v24.3h-16.5v-24.3h-24.4v-16.7h24.4v-24.4h16.5v24.4Z"/><path class="cls-1" d="M1613.9,1194.5v16.7h-24.2v24.3h-16.6v-24.3h-24.4v-16.7h24.4v-24.4h16.6v24.4Z"/><path class="cls-1" d="M1703.9,1085.4v16.7h-24.2v24.3h-16.6v-24.3h-24.4v-16.7h24.4V1061h16.6v24.4Z"/><rect class="cls-2" x="737" y="1045.9" width="303.7" height="79.17"/><text class="cls-3" transform="translate(769.8 1085.5)">Blood <tspan class="cls-4" x="70" y="0">T</tspan><tspan class="cls-5" x="82.2" y="0">r</tspan><tspan x="90.5" y="0">ansfusion a</tspan><tspan class="cls-6" x="213.6" y="0">n</tspan><tspan x="228.7" y="0">d </tspan><tspan x="8.5" y="30">Hema</tspan><tspan class="cls-7" x="77.4" y="30">t</tspan><tspan x="85.5" y="30">ology Hospital</tspan></text><rect class="cls-2" x="1702.1" y="1167.3" width="303.7" height="79.17"/><text class="cls-3" transform="translate(1754.4 1199.7)">HCMC Hospital of <tspan x="-17.7" y="30">Odon</tspan><tspan class="cls-7" x="45.2" y="30">t</tspan><tspan class="cls-8" x="53.3" y="30">o</tspan><tspan class="cls-9" x="67.3" y="30">-</tspan><tspan x="74.9" y="30">S</tspan><tspan class="cls-7" x="88.4" y="30">t</tspan><tspan x="96.5" y="30">oma</tspan><tspan class="cls-7" x="147.6" y="30">t</tspan><tspan x="155.7" y="30">ology</tspan></text><polygon class="cls-2" points="1100 1085.5 1039.9 1094.6 1039.9 1076.3 1100 1085.5"/><polygon class="cls-2" points="1641.3 1206.9 1701.4 1216 1701.4 1197.7 1641.3 1206.9"/><rect class="cls-2" x="1784.5" y="1049.8" width="303.7" height="79.17"/><text class="cls-10" transform="translate(1828.2 1084.2)">Saigon Ge<tspan class="cls-11" x="116" y="0">n</tspan><tspan class="cls-12" x="131.6" y="0">e</tspan><tspan class="cls-13" x="145.3" y="0">r</tspan><tspan class="cls-12" x="154" y="0">al </tspan><tspan x="42.6" y="30">Hospital</tspan></text><polygon class="cls-2" points="1724.4 1089.4 1784.5 1098.5 1784.5 1080.2 1724.4 1089.4"/></svg>