<svg id="cosoyteanninh" xmlns="http://www.w3.org/2000/svg" viewBox="0 0 3047.3 2006.1"><defs><style>.cls-1{fill:#37517a;}.cls-2{fill:#d1af84;}.cls-13,.cls-3{font-size:24px;fill:#0a1c3d;font-family:Montserrat-Regular, Montserrat;}.cls-3,.cls-6{letter-spacing:-0.05em;}.cls-4{letter-spacing:-0.07em;}.cls-5{letter-spacing:-0.06em;}.cls-7{letter-spacing:-0.06em;}.cls-8{letter-spacing:-0.05em;}.cls-9{letter-spacing:-0.07em;}.cls-10{letter-spacing:-0.05em;}.cls-11{letter-spacing:-0.05em;}.cls-12{letter-spacing:-0.08em;}.cls-13{letter-spacing:-0.03em;}.cls-14{letter-spacing:-0.05em;}.cls-15{letter-spacing:-0.03em;}.cls-16{letter-spacing:-0.03em;}.cls-17{letter-spacing:-0.03em;}</style></defs><title>healthFacV</title><path class="cls-1" d="M1185.1,1077.2v16.7h-24.3v24.3h-16.5v-24.3h-24.4v-16.7h24.4v-24.4h16.5v24.4Z"/><path class="cls-1" d="M1613.9,1194.5v16.7h-24.2v24.3h-16.6v-24.3h-24.4v-16.7h24.4v-24.4h16.6v24.4Z"/><path class="cls-1" d="M1718.3,1086.3V1103H1694v24.3h-16.5V1103h-24.4v-16.7h24.4v-24.4H1694v24.4Z"/><rect class="cls-2" x="737" y="1045.9" width="303.7" height="79.17"/><text class="cls-3" transform="translate(837.2 1085.5)">Bệnh <tspan class="cls-4" x="65.4" y="0">V</tspan><tspan x="80.5" y="0">iện</tspan><tspan class="cls-5"><tspan x="-76.4" y="30">T</tspan><tspan class="cls-6" x="-64.2" y="30">ru</tspan><tspan class="cls-7" x="-40.8" y="30">y</tspan><tspan class="cls-8" x="-29.4" y="30">ền màu - Hu</tspan><tspan class="cls-9" x="107.7" y="30">y</tspan><tspan class="cls-6" x="119.1" y="30">ết Học</tspan></tspan></text><rect class="cls-2" x="1702.1" y="1167.3" width="303.7" height="79.17"/><text class="cls-3" transform="translate(1796.3 1199.7)">Bệnh <tspan class="cls-4" x="65.4" y="0">V</tspan><tspan x="80.5" y="0">iện</tspan><tspan class="cls-10"><tspan x="-73.6" y="30">R</tspan><tspan class="cls-6" x="-57.6" y="30">ă</tspan><tspan class="cls-11" x="-44.6" y="30">n</tspan><tspan class="cls-6" x="-29.5" y="30">g Hàm Mặt T</tspan><tspan class="cls-12" x="112.4" y="30">P</tspan><tspan class="cls-6" x="127.7" y="30">.HCM</tspan></tspan></text><polygon class="cls-2" points="1100 1085.5 1039.9 1094.6 1039.9 1076.3 1100 1085.5"/><polygon class="cls-2" points="1641.3 1206.9 1701.4 1216 1701.4 1197.7 1641.3 1206.9"/><rect class="cls-2" x="1784.5" y="1049.8" width="303.7" height="79.17"/><text class="cls-13" transform="translate(1806.7 1084.2)">Bệnh <tspan class="cls-14" x="67.8" y="0">V</tspan><tspan x="83.4" y="0">iện Đa K</tspan><tspan class="cls-15" x="178.6" y="0">h</tspan><tspan class="cls-16" x="194.1" y="0">o</tspan><tspan class="cls-17" x="208.4" y="0">a</tspan><tspan x="67.7" y="30">Sài Gòn</tspan></text><polygon class="cls-2" points="1724.4 1089.4 1784.5 1098.5 1784.5 1080.2 1724.4 1089.4"/></svg>