<svg xmlns="http://www.w3.org/2000/svg" viewBox="0 0 50 66"><defs><style>.cls-1{fill:#A49C87;}.cls-2{fill:#fff;}</style></defs><title>hotspot</title><g id="Layer_2" data-name="Layer 2"><g id="Layer_1-2" data-name="Layer 1"><path class="cls-1" d="M25,65.5A3.8,3.8,0,0,1,22.1,64L13.8,52C2.8,36.4.5,33.1.5,25a24.5,24.5,0,0,1,49,0c0,8.1-2.3,11.4-13.3,27L27.9,64A3.8,3.8,0,0,1,25,65.5Zm0-50A9.5,9.5,0,1,0,34.5,25,9.6,9.6,0,0,0,25,15.5Z"/><path class="cls-2" d="M25,1A23.9,23.9,0,0,1,49,25c0,9.7-3.4,12.4-21.5,38.7a3.1,3.1,0,0,1-5,0C4.4,37.4,1,34.7,1,25A23.9,23.9,0,0,1,25,1m0,34A10,10,0,1,0,15,25,10,10,0,0,0,25,35M25,0A25,25,0,0,0,0,25c0,8.3,2.3,11.5,13.3,27.3,2.5,3.4,5.2,7.3,8.4,12a4.1,4.1,0,0,0,6.6,0c3.2-4.7,5.9-8.6,8.4-12C47.7,36.5,50,33.3,50,25A25,25,0,0,0,25,0Zm0,34a9,9,0,1,1,9-9,9,9,0,0,1-9,9Z"/></g></g></svg>