<svg xmlns="http://www.w3.org/2000/svg" viewBox="0 0 64.7 88"><defs><style>.cls-1{fill:#A49C87;}.cls-2{fill:#fff;}.cls-3{fill:none;stroke:#fff;stroke-miterlimit:10;stroke-width:2.56px;}</style></defs><title>hpPP</title><g id="Layer_2" data-name="Layer 2"><g id="Layer_1-2" data-name="Layer 1"><path class="cls-1" d="M32.3,87a4.8,4.8,0,0,1-3.9-2.1c-4.1-6.2-7.5-11.3-10.6-15.8C3.9,48.5,1,44.3,1,33.5,1,15.6,15.1,1,32.3,1S63.7,15.6,63.7,33.5c0,10.8-2.9,15-16.8,35.6-3.1,4.5-6.5,9.6-10.6,15.8A4.9,4.9,0,0,1,32.3,87Z"/><path class="cls-2" d="M32.3,2C49.1,2,62.7,16.1,62.7,33.5c0,12.7-4.3,16.3-27.2,50.8a3.8,3.8,0,0,1-6.3,0C6.3,49.8,2,46.2,2,33.5,2,16.1,15.6,2,32.3,2m0-2C14.5,0,0,15,0,33.5,0,44.6,3.3,49.4,17,69.7c3,4.5,6.5,9.6,10.5,15.7A5.6,5.6,0,0,0,32.3,88a5.5,5.5,0,0,0,4.8-2.6L47.7,69.7c13.7-20.3,17-25.1,17-36.2C64.7,15,50.2,0,32.3,0Z"/><path class="cls-2" d="M41.1,14.7a8.4,8.4,0,0,0-5.7,1.9,6.6,6.6,0,0,0-2.1,5.1,7,7,0,0,0,2.2,5.4,8.9,8.9,0,0,0,6,2h4.1v6.5h2.8V14.7Zm.1,11.7c-3.1,0-5.1-1.9-5.1-4.7s2-4.3,5.1-4.3h4.4v9Z"/><path class="cls-2" d="M22.5,34.1a8.1,8.1,0,0,0-5.7,2,6.4,6.4,0,0,0-2.2,5.1,7.1,7.1,0,0,0,2.3,5.4,8.8,8.8,0,0,0,5.9,2h4.1V55h2.9V34.1Zm.1,11.7c-3.1,0-5.2-1.8-5.2-4.6s2.1-4.4,5.2-4.4h4.3v9Z"/><line class="cls-3" x1="47.8" y1="49.4" x2="21.1" y2="19.4"/></g></g></svg>