<svg xmlns="http://www.w3.org/2000/svg" viewBox="0 0 28.9 28.9"><defs><style>.cls-1,.cls-2{fill:#c9ba8b;}.cls-1{stroke:#033348;stroke-miterlimit:10;stroke-width:0.75px;}</style></defs><title>infomation</title><g id="Layer_2" data-name="Layer 2"><g id="Layer_1-2" data-name="Layer 1"><path class="cls-1" d="M28.5,14.4A14.1,14.1,0,1,1,14.4.4,14.1,14.1,0,0,1,28.5,14.4Zm-2.8,0A11.3,11.3,0,1,0,14.4,25.7,11.3,11.3,0,0,0,25.7,14.4Z"/><path class="cls-2" d="M14.3,6.6A1.8,1.8,0,0,1,16,8.3,1.7,1.7,0,0,1,14.3,10a1.7,1.7,0,0,1-1.8-1.7A1.8,1.8,0,0,1,14.3,6.6Zm1.3,14.2H12.9V11.4h2.7Z"/></g></g></svg>